<svg xmlns="http://www.w3.org/2000/svg" xmlns:xlink="http://www.w3.org/1999/xlink" preserveAspectRatio="xMidYMid" width="24" height="24" viewBox="0 0 24 24">
  <defs>
    <style>
      .cls-1 {
        fill: #1b1b1b;
        fill-rule: evenodd;
      }
    </style>
  </defs>
  <path d="M23.130,14.458 L20.863,14.755 C20.697,15.290 20.482,15.809 20.221,16.307 L21.607,18.125 C21.910,18.522 21.874,19.082 21.522,19.437 L19.500,21.473 C19.150,21.824 18.598,21.866 18.197,21.573 L16.335,20.203 C15.830,20.471 15.304,20.690 14.760,20.858 L14.458,23.132 C14.392,23.629 13.968,24.000 13.467,24.000 L10.533,24.000 C10.030,24.000 9.606,23.627 9.541,23.128 L9.249,20.866 C8.717,20.701 8.199,20.488 7.703,20.228 L5.872,21.610 C5.475,21.911 4.919,21.873 4.565,21.523 L2.528,19.501 C2.177,19.152 2.134,18.601 2.425,18.201 L3.784,16.340 C3.511,15.825 3.288,15.290 3.118,14.738 L0.876,14.459 C0.376,14.396 0.000,13.972 0.000,13.467 L0.000,10.533 C0.000,10.029 0.374,9.604 0.874,9.541 L3.134,9.254 C3.306,8.708 3.527,8.180 3.799,7.673 L2.400,5.885 C2.090,5.487 2.124,4.922 2.479,4.564 L4.501,2.527 C4.855,2.172 5.418,2.133 5.816,2.437 L7.655,3.835 C8.163,3.566 8.693,3.346 9.242,3.176 L9.542,0.871 C9.606,0.373 10.030,0.000 10.533,0.000 L13.467,0.000 C13.973,0.000 14.398,0.377 14.459,0.879 L14.740,3.174 C15.267,3.337 15.778,3.548 16.271,3.804 L18.126,2.391 C18.521,2.090 19.080,2.125 19.437,2.478 L21.473,4.501 C21.827,4.852 21.867,5.412 21.566,5.811 L20.180,7.654 C20.452,8.162 20.676,8.693 20.850,9.243 L23.130,9.542 C23.628,9.606 24.000,10.031 24.000,10.533 L24.000,13.467 C24.000,13.969 23.628,14.394 23.130,14.458 ZM22.000,11.411 L19.931,11.140 C19.518,11.086 19.181,10.781 19.087,10.375 C18.900,9.574 18.581,8.817 18.138,8.124 C17.912,7.773 17.930,7.317 18.181,6.983 L19.444,5.305 L18.645,4.510 L16.957,5.795 C16.628,6.046 16.178,6.066 15.825,5.850 C15.135,5.423 14.390,5.117 13.608,4.940 C13.196,4.847 12.888,4.505 12.837,4.086 L12.582,2.000 L11.412,2.000 L11.139,4.097 C11.085,4.512 10.778,4.850 10.369,4.942 C9.568,5.125 8.809,5.440 8.112,5.879 C7.758,6.102 7.307,6.083 6.974,5.829 L5.303,4.559 L4.519,5.348 L5.792,6.975 C6.053,7.309 6.075,7.772 5.847,8.129 C5.401,8.827 5.082,9.587 4.898,10.387 C4.803,10.795 4.465,11.102 4.049,11.154 L2.000,11.414 L2.000,12.584 L4.034,12.837 C4.452,12.889 4.794,13.198 4.886,13.610 C5.064,14.406 5.380,15.167 5.822,15.871 C6.040,16.218 6.024,16.662 5.783,16.993 L4.547,18.687 L5.358,19.492 L7.023,18.236 C7.353,17.986 7.802,17.967 8.153,18.185 C8.844,18.614 9.592,18.921 10.376,19.099 C10.785,19.191 11.094,19.530 11.147,19.946 L11.412,22.000 L12.591,22.000 L12.865,19.935 C12.920,19.521 13.227,19.185 13.633,19.093 C14.425,18.911 15.178,18.599 15.869,18.164 C16.217,17.945 16.663,17.962 16.994,18.205 L18.688,19.451 L19.489,18.645 L18.228,16.991 C17.975,16.660 17.954,16.207 18.175,15.854 C18.607,15.164 18.918,14.415 19.096,13.628 C19.188,13.220 19.526,12.912 19.941,12.858 L22.000,12.589 L22.000,11.411 ZM12.000,17.014 C9.243,17.014 7.000,14.770 7.000,12.014 C7.000,9.257 9.243,7.014 12.000,7.014 C14.757,7.014 17.000,9.257 17.000,12.014 C17.000,14.770 14.757,17.014 12.000,17.014 ZM12.000,9.014 C10.346,9.014 9.000,10.359 9.000,12.014 C9.000,13.668 10.346,15.014 12.000,15.014 C13.654,15.014 15.000,13.668 15.000,12.014 C15.000,10.359 13.654,9.014 12.000,9.014 Z" class="cls-1"/>
</svg>
