<svg xmlns="http://www.w3.org/2000/svg" xmlns:xlink="http://www.w3.org/1999/xlink" preserveAspectRatio="xMidYMid" width="24" height="21" viewBox="0 0 24 21">
  <defs>
    <style>
      .cls-1 {
        fill: #1b1b1b;
        fill-rule: evenodd;
      }
    </style>
  </defs>
  <path d="M19.000,17.000 C18.448,17.000 18.000,16.552 18.000,16.000 C18.000,15.448 18.448,15.000 19.000,15.000 C20.387,15.000 22.000,13.188 22.000,10.853 C22.000,8.300 19.816,6.223 17.133,6.223 C17.044,6.223 16.954,6.228 16.866,6.237 C16.414,6.292 15.979,6.018 15.820,5.586 C15.037,3.441 12.912,2.000 10.533,2.000 C7.446,2.000 4.934,4.393 4.934,7.335 C4.934,7.578 4.955,7.825 5.000,8.091 C5.083,8.582 4.791,9.059 4.316,9.209 C2.931,9.649 2.000,10.875 2.000,12.261 C2.000,14.040 3.546,15.000 5.000,15.000 C5.552,15.000 6.000,15.448 6.000,16.000 C6.000,16.552 5.552,17.000 5.000,17.000 C2.542,17.000 0.000,15.227 0.000,12.261 C0.000,10.273 1.153,8.493 2.940,7.613 C2.935,7.520 2.934,7.427 2.934,7.335 C2.934,3.291 6.343,-0.000 10.533,-0.000 C13.496,-0.000 16.174,1.672 17.414,4.228 C21.071,4.371 24.000,7.288 24.000,10.853 C24.000,14.127 21.664,17.000 19.000,17.000 ZM9.707,16.293 L11.000,17.586 L11.000,11.000 C11.000,10.448 11.448,10.000 12.000,10.000 C12.552,10.000 13.000,10.448 13.000,11.000 L13.000,17.586 L14.293,16.293 C14.684,15.902 15.316,15.902 15.707,16.293 C16.098,16.684 16.098,17.316 15.707,17.707 L12.708,20.706 C12.615,20.799 12.505,20.872 12.382,20.923 C12.260,20.973 12.130,21.000 12.000,21.000 C11.870,21.000 11.740,20.973 11.618,20.923 C11.495,20.872 11.385,20.799 11.292,20.706 L8.293,17.707 C7.902,17.316 7.902,16.684 8.293,16.293 C8.684,15.902 9.316,15.902 9.707,16.293 Z" class="cls-1"/>
</svg>
