<svg xmlns="http://www.w3.org/2000/svg" xmlns:xlink="http://www.w3.org/1999/xlink" preserveAspectRatio="xMidYMid" width="59.75" height="59.75" viewBox="0 0 59.75 59.75">
  <defs>
    <style>
      .cls-1 {
        fill: #1b1b1b;
        fill-rule: evenodd;
      }
    </style>
  </defs>
  <path d="M56.061,21.456 L50.361,27.157 C47.982,29.536 44.819,30.846 41.456,30.846 L37.830,30.846 C37.280,30.846 36.834,30.401 36.834,29.850 C36.834,29.299 37.280,28.854 37.830,28.854 L41.456,28.854 C44.287,28.854 46.949,27.750 48.952,25.748 L54.652,20.047 C56.656,18.044 57.758,15.382 57.758,12.550 C57.758,9.718 56.656,7.057 54.652,5.054 C50.520,0.921 43.795,0.921 39.661,5.054 L33.959,10.757 C31.958,12.758 30.855,15.421 30.855,18.253 L30.855,21.879 C30.855,22.429 30.409,22.875 29.859,22.875 C29.309,22.875 28.862,22.429 28.862,21.879 L28.862,18.253 C28.862,14.888 30.172,11.726 32.550,9.348 L38.252,3.645 C43.163,-1.265 51.151,-1.265 56.061,3.645 C58.441,6.024 59.751,9.186 59.751,12.550 C59.751,15.914 58.441,19.077 56.061,21.456 ZM19.895,40.811 C19.640,40.811 19.385,40.713 19.190,40.519 C18.801,40.129 18.801,39.499 19.190,39.110 L40.115,18.185 C40.504,17.796 41.135,17.796 41.524,18.185 C41.913,18.574 41.913,19.205 41.524,19.594 L20.599,40.519 C20.405,40.713 20.150,40.811 19.895,40.811 ZM21.887,30.846 L18.260,30.846 C15.429,30.846 12.767,31.949 10.765,33.950 L5.063,39.653 C0.930,43.785 0.930,50.511 5.063,54.644 C7.065,56.646 9.728,57.750 12.559,57.750 C15.390,57.750 18.053,56.646 20.056,54.644 L25.756,48.943 C27.759,46.940 28.862,44.279 28.862,41.447 L28.862,37.821 C28.862,37.271 29.309,36.825 29.859,36.825 C30.409,36.825 30.855,37.271 30.855,37.821 L30.855,41.447 C30.855,44.811 29.545,47.973 27.165,50.352 L21.465,56.053 C19.086,58.432 15.923,59.742 12.559,59.742 C9.195,59.742 6.032,58.432 3.654,56.053 C-1.256,51.143 -1.256,43.154 3.654,38.244 L9.356,32.542 C11.735,30.163 14.897,28.854 18.260,28.854 L21.887,28.854 C22.438,28.854 22.884,29.299 22.884,29.850 C22.884,30.401 22.438,30.846 21.887,30.846 Z" class="cls-1"/>
</svg>
