<svg xmlns="http://www.w3.org/2000/svg" xmlns:xlink="http://www.w3.org/1999/xlink" preserveAspectRatio="xMidYMid" width="50" height="59.844" viewBox="0 0 50 59.844">
  <defs>
    <style>
      .cls-1 {
        fill: #1b1b1b;
        fill-rule: evenodd;
      }
    </style>
  </defs>
  <path d="M50.000,29.834 C50.000,40.867 42.981,50.728 32.933,53.815 C32.835,53.846 32.735,53.860 32.639,53.860 C32.211,53.860 31.815,53.584 31.683,53.156 C31.521,52.629 31.816,52.071 32.345,51.909 C41.563,49.077 48.000,40.000 48.000,29.834 C48.000,18.388 40.190,9.421 28.995,7.978 L33.838,15.404 C34.140,15.865 34.009,16.484 33.545,16.784 C33.377,16.893 33.187,16.945 33.001,16.945 C32.674,16.945 32.354,16.786 32.162,16.492 L26.162,7.293 C26.012,7.063 25.964,6.783 26.027,6.516 C26.092,6.250 26.262,6.022 26.500,5.885 L36.500,0.119 C36.977,-0.159 37.589,0.006 37.866,0.483 C38.143,0.961 37.979,1.571 37.500,1.846 L30.058,6.138 C41.664,8.027 50.000,17.831 50.000,29.834 ZM23.500,53.946 L13.500,59.712 C13.343,59.803 13.171,59.846 13.001,59.846 C12.655,59.846 12.319,59.667 12.134,59.347 C11.857,58.870 12.021,58.260 12.500,57.984 L19.942,53.693 C8.336,51.803 0.000,41.999 0.000,29.996 C0.000,18.963 7.020,9.102 17.069,6.015 C17.598,5.850 18.156,6.149 18.319,6.675 C18.481,7.201 18.185,7.760 17.657,7.922 C8.438,10.754 2.000,19.831 2.000,29.996 C2.000,41.442 9.810,50.409 21.005,51.852 L16.162,44.427 C15.860,43.965 15.991,43.347 16.455,43.046 C16.917,42.746 17.537,42.877 17.838,43.339 L23.838,52.538 C23.988,52.768 24.036,53.048 23.973,53.315 C23.908,53.581 23.738,53.809 23.500,53.946 Z" class="cls-1"/>
</svg>
