<svg xmlns="http://www.w3.org/2000/svg" xmlns:xlink="http://www.w3.org/1999/xlink" preserveAspectRatio="xMidYMid" width="59.656" height="59.812" viewBox="0 0 59.656 59.812">
  <defs>
    <style>
      .cls-1 {
        fill: #1b1b1b;
        fill-rule: evenodd;
      }
    </style>
  </defs>
  <path d="M48.997,59.810 C48.588,59.810 48.147,59.649 47.685,59.333 L30.884,47.801 C30.349,47.435 29.266,47.434 28.729,47.802 L11.930,59.332 C10.956,59.999 9.996,59.926 9.499,59.265 C9.162,58.817 9.101,58.205 9.317,57.446 L14.390,39.454 C14.590,38.742 14.302,37.615 13.786,37.091 L0.719,23.753 C-0.198,22.819 -0.025,21.974 0.092,21.654 C0.209,21.335 0.620,20.578 1.919,20.460 L19.212,18.837 C19.939,18.769 20.867,18.094 21.160,17.420 L28.105,1.347 C28.635,0.124 29.472,-0.008 29.807,-0.008 C30.143,-0.008 30.980,0.124 31.509,1.347 L38.458,17.422 C38.749,18.095 39.676,18.769 40.405,18.837 L57.697,20.456 C59.000,20.579 59.410,21.337 59.527,21.657 C59.643,21.976 59.814,22.820 58.899,23.753 L45.828,37.090 C45.311,37.616 45.025,38.741 45.227,39.452 L50.298,57.449 C50.513,58.204 50.452,58.816 50.116,59.264 C49.855,59.611 49.447,59.810 48.997,59.810 ZM29.807,45.520 C30.625,45.520 31.407,45.745 32.006,46.155 L48.178,57.255 L43.315,39.996 C42.920,38.612 43.402,36.720 44.411,35.691 L57.407,22.431 L40.220,20.823 C38.781,20.687 37.206,19.541 36.634,18.213 L29.807,2.421 L22.983,18.214 C22.396,19.565 20.855,20.686 19.398,20.823 L2.213,22.435 L15.203,35.692 C16.210,36.717 16.693,38.608 16.303,39.996 L11.436,57.255 L27.607,46.156 C28.207,45.745 28.988,45.520 29.807,45.520 Z" class="cls-1"/>
</svg>
