<svg xmlns="http://www.w3.org/2000/svg" xmlns:xlink="http://www.w3.org/1999/xlink" preserveAspectRatio="xMidYMid" width="59.906" height="60" viewBox="0 0 59.906 60">
  <defs>
    <style>
      .cls-1 {
        fill: #1b1b1b;
        fill-rule: evenodd;
      }
    </style>
  </defs>
  <path d="M59.610,59.707 C59.415,59.902 59.159,60.000 58.904,60.000 C58.648,60.000 58.393,59.902 58.198,59.707 L36.747,38.222 C32.840,41.798 27.659,44.000 21.962,44.000 C9.850,44.000 -0.004,34.131 -0.004,22.000 C-0.004,9.869 9.850,-0.000 21.962,-0.000 C34.074,-0.000 43.927,9.869 43.927,22.000 C43.927,27.706 41.729,32.894 38.159,36.808 L59.610,58.293 C60.000,58.684 60.000,59.316 59.610,59.707 ZM41.930,22.000 C41.930,10.972 32.973,2.000 21.962,2.000 C10.951,2.000 1.993,10.972 1.993,22.000 C1.993,33.028 10.951,42.000 21.962,42.000 C32.973,42.000 41.930,33.028 41.930,22.000 ZM31.946,23.000 L22.960,23.000 L22.960,32.000 C22.960,32.552 22.514,33.000 21.962,33.000 C21.410,33.000 21.000,32.552 21.000,32.000 L21.000,23.000 L11.978,23.000 C11.426,23.000 10.979,22.552 10.979,22.000 C10.979,21.448 11.426,21.000 11.978,21.000 L21.000,21.000 L21.000,12.000 C21.000,11.448 21.410,11.000 21.962,11.000 C22.514,11.000 22.960,11.448 22.960,12.000 L22.960,21.000 L31.946,21.000 C32.498,21.000 32.945,21.448 32.945,22.000 C32.945,22.552 32.498,23.000 31.946,23.000 Z" class="cls-1"/>
</svg>
