<?xml version="1.0" encoding="UTF-8" standalone="no"?>
<!-- Created with Inkscape (http://www.inkscape.org/) -->
<svg id="svg2" xmlns:rdf="http://www.w3.org/1999/02/22-rdf-syntax-ns#" xmlns="http://www.w3.org/2000/svg" xmlns:osb="http://www.openswatchbook.org/uri/2009/osb" height="128" width="128" version="1.1" xmlns:cc="http://creativecommons.org/ns#" xmlns:xlink="http://www.w3.org/1999/xlink" viewBox="0 0 128 128" xmlns:dc="http://purl.org/dc/elements/1.1/">
 <defs id="defs4">
  <linearGradient id="linearGradient4190" y2="774.51" gradientUnits="userSpaceOnUse" x2="196.43" gradientTransform="matrix(.36030 0 0 .39461 .90557 663.08)" y1="774.51" x1="32.143">
   <stop id="stop4188" stop-color="#2e2e2e" offset="0"/>
  </linearGradient>
  <linearGradient id="linearGradient4198" y2="796.86" gradientUnits="userSpaceOnUse" x2="156" gradientTransform="matrix(1.5647 0 0 1.6904 -11.218 -541.17)" y1="796.86" x1="75">
   <stop id="stop4196" stop-color="#2e2e2e" offset="0"/>
  </linearGradient>
 </defs>
 <metadata id="metadata7">
  <rdf:RDF>
   <cc:Work rdf:about="">
    <dc:format>image/svg+xml</dc:format>
    <dc:type rdf:resource="http://purl.org/dc/dcmitype/StillImage"/>
    <dc:title/>
   </cc:Work>
  </rdf:RDF>
 </metadata>
 <g id="layer1" transform="translate(0 -924.36)">
  <g id="g4210" transform="matrix(.70711 .70711 -.70711 .70711 703.5 257.69)">
   <circle id="path4184" stroke-linejoin="round" stroke-width="11.808" stroke="url(#linearGradient4190)" cy="968.71" cx="42.083" r="29.596" fill="none"/>
   <path id="path4200" stroke-linejoin="round" d="m106.13 735.17a56.326 56.326 0 0 0 -56.32 56.32v28.736a56.326 56.326 0 0 0 56.32 56.32h126.74a56.326 56.326 0 0 0 56.32 -56.32v-28.736a56.326 56.326 0 0 0 -56.32 -56.32h-126.74z" transform="matrix(.18467 0 0 .13769 77.199 858.05)" stroke="url(#linearGradient4198)" stroke-linecap="round" stroke-width="16.262" fill="#2e2e2e"/>
   <rect id="rect4202" height="11" width="26" y="963.36" x="69" fill="#2e2e2e"/>
  </g>
 </g>
</svg>
