<svg xmlns="http://www.w3.org/2000/svg" xmlns:xlink="http://www.w3.org/1999/xlink" preserveAspectRatio="xMidYMid" width="90" height="90" viewBox="0 0 60 60">
  <defs>
    <style>
      .cls-1 {
        fill: #1b1b1b;
        fill-rule: evenodd;
      }
    </style>
  </defs>
  <path d="M30.000,60.000 C13.458,60.000 0.000,46.542 0.000,30.000 C0.000,13.458 13.458,0.000 30.000,0.000 C46.542,0.000 60.000,13.458 60.000,30.000 C60.000,46.542 46.542,60.000 30.000,60.000 ZM30.000,2.000 C14.561,2.000 2.000,14.561 2.000,30.000 C2.000,45.440 14.561,58.000 30.000,58.000 C45.439,58.000 58.000,45.440 58.000,30.000 C58.000,14.561 45.439,2.000 30.000,2.000 ZM40.000,43.000 C39.714,43.000 39.430,42.877 39.232,42.640 L29.232,30.640 C29.202,30.604 29.192,30.560 29.168,30.521 C29.130,30.461 29.092,30.404 29.068,30.337 C29.044,30.270 29.037,30.203 29.027,30.134 C29.021,30.088 29.000,30.048 29.000,30.000 L29.000,12.000 C29.000,11.448 29.448,11.000 30.000,11.000 C30.552,11.000 31.000,11.448 31.000,12.000 L31.000,29.638 L40.768,41.360 C41.122,41.784 41.065,42.415 40.640,42.768 C40.453,42.924 40.226,43.000 40.000,43.000 Z" class="cls-1"/>
</svg>
