<svg xmlns="http://www.w3.org/2000/svg" xmlns:xlink="http://www.w3.org/1999/xlink" preserveAspectRatio="xMidYMid" width="78" height="89.391" viewBox="0 0 52 59.594">
  <defs>
    <style>
      .cls-1 {
        fill: #1b1b1b;
        fill-rule: evenodd;
      }
    </style>
  </defs>
  <path d="M51.283,28.229 C46.765,32.364 42.071,33.758 37.422,33.758 C32.522,33.758 27.674,32.233 23.132,30.805 C15.046,28.262 8.051,26.076 2.000,31.531 L2.000,58.625 C2.000,59.174 1.642,59.604 1.091,59.604 C0.541,59.604 0.000,59.174 0.000,58.625 L0.000,4.625 C0.000,4.301 0.198,4.141 0.465,4.057 C7.405,-2.391 15.705,0.212 23.732,2.738 C32.567,5.514 41.704,8.389 50.210,0.356 C50.333,0.241 50.479,0.175 50.632,0.134 C50.714,0.080 50.800,0.041 50.895,0.041 C51.446,0.041 52.000,0.076 52.000,0.625 L52.000,27.625 C52.000,28.043 51.679,28.184 51.283,28.229 ZM23.132,4.633 C15.046,2.089 8.051,-0.095 2.000,5.359 L2.000,28.974 C8.612,24.169 16.288,26.570 23.732,28.910 C32.493,31.665 41.551,34.498 50.000,26.710 L50.000,3.162 C45.880,6.447 41.632,7.585 37.422,7.585 C32.523,7.586 27.675,6.061 23.132,4.633 Z" class="cls-1"/>
</svg>
