<svg xmlns="http://www.w3.org/2000/svg" xmlns:xlink="http://www.w3.org/1999/xlink" preserveAspectRatio="xMidYMid" width="90" height="72" viewBox="0 0 60 48">
  <defs>
    <style>
      .cls-1 {
        fill: #1b1b1b;
        fill-rule: evenodd;
      }
    </style>
  </defs>
  <path d="M57.000,48.001 L3.000,48.001 C1.346,48.001 0.000,46.659 0.000,45.009 L0.000,3.117 C0.000,1.467 1.346,-0.000 3.000,-0.000 L22.000,-0.000 C22.174,-0.000 22.359,0.070 22.538,0.165 C22.658,0.199 22.774,0.253 22.878,0.334 L30.201,6.000 L57.000,6.000 C58.654,6.000 60.000,7.451 60.000,9.101 L60.000,45.009 C60.000,46.659 58.654,48.001 57.000,48.001 ZM58.000,9.101 C58.000,8.552 57.551,8.000 57.000,8.000 L30.440,8.000 C30.302,8.068 30.152,8.104 29.999,8.104 C29.785,8.104 29.569,8.036 29.387,7.895 L21.769,2.000 L3.000,2.000 C2.449,2.000 2.000,2.567 2.000,3.117 L2.000,45.009 C2.000,45.559 2.449,46.006 3.000,46.006 L57.000,46.006 C57.551,46.006 58.000,45.559 58.000,45.009 L58.000,9.101 Z" class="cls-1"/>
</svg>
