<svg xmlns="http://www.w3.org/2000/svg" xmlns:xlink="http://www.w3.org/1999/xlink" preserveAspectRatio="xMidYMid" width="84" height="96" viewBox="0 0 42 48">
  <defs>
    <style>
      .cls-1 {
        fill: #1b1b1b;
        fill-rule: evenodd;
      }
    </style>
  </defs>
  <path d="M21.000,48.000 C9.421,48.000 0.000,38.816 0.000,27.528 C0.000,18.631 5.908,10.802 14.701,8.046 C15.230,7.879 15.789,8.174 15.954,8.701 C16.119,9.228 15.826,9.789 15.299,9.954 C7.469,12.409 2.000,19.635 2.000,27.528 C2.000,37.714 10.523,46.000 21.000,46.000 C31.477,46.000 40.000,37.714 40.000,27.528 C40.000,19.509 34.655,12.447 26.701,9.954 C26.174,9.789 25.881,9.228 26.046,8.701 C26.210,8.174 26.769,7.879 27.299,8.046 C36.092,10.801 42.000,18.630 42.000,27.528 C42.000,38.816 32.579,48.000 21.000,48.000 ZM21.000,18.000 C20.447,18.000 20.000,17.552 20.000,17.000 L20.000,1.000 C20.000,0.448 20.447,0.000 21.000,0.000 C21.553,0.000 22.000,0.448 22.000,1.000 L22.000,17.000 C22.000,17.552 21.553,18.000 21.000,18.000 Z" class="cls-1"/>
</svg>
