<svg xmlns="http://www.w3.org/2000/svg" xmlns:xlink="http://www.w3.org/1999/xlink" preserveAspectRatio="xMidYMid" width="96" height="80" viewBox="0 0 48 40">
  <defs>
    <style>
      .cls-1 {
        fill: #1b1b1b;
        fill-rule: evenodd;
      }
    </style>
  </defs>
  <path d="M43.934,40.000 L4.066,40.000 C1.824,40.000 0.000,38.206 0.000,36.000 L0.000,10.000 C0.000,7.794 1.824,6.000 4.066,6.000 L11.382,6.000 L14.105,0.553 C14.275,0.214 14.621,0.000 15.000,0.000 L33.000,0.000 C33.379,0.000 33.725,0.214 33.895,0.553 L36.618,6.000 L43.934,6.000 C46.176,6.000 48.000,7.794 48.000,10.000 L48.000,36.000 C48.000,38.206 46.176,40.000 43.934,40.000 ZM46.000,10.000 C46.000,8.897 45.073,8.000 43.934,8.000 L36.000,8.000 C35.621,8.000 35.275,7.786 35.105,7.447 L32.382,2.000 L15.618,2.000 L12.895,7.447 C12.725,7.786 12.379,8.000 12.000,8.000 L4.066,8.000 C2.927,8.000 2.000,8.897 2.000,10.000 L2.000,36.000 C2.000,37.103 2.927,38.000 4.066,38.000 L43.934,38.000 C45.073,38.000 46.000,37.103 46.000,36.000 L46.000,10.000 ZM24.000,32.033 C18.486,32.033 14.000,27.547 14.000,22.033 C14.000,16.519 18.486,12.033 24.000,12.033 C29.514,12.033 34.000,16.519 34.000,22.033 C34.000,27.547 29.514,32.033 24.000,32.033 ZM24.000,14.033 C19.589,14.033 16.000,17.622 16.000,22.033 C16.000,26.444 19.589,30.033 24.000,30.033 C28.411,30.033 32.000,26.444 32.000,22.033 C32.000,17.622 28.411,14.033 24.000,14.033 Z" class="cls-1"/>
</svg>
