<svg xmlns="http://www.w3.org/2000/svg" xmlns:xlink="http://www.w3.org/1999/xlink" preserveAspectRatio="xMidYMid" width="80" height="95.688" viewBox="0 0 40 47.844">
  <defs>
    <style>
      .cls-1 {
        fill: #1b1b1b;
        fill-rule: evenodd;
      }
    </style>
  </defs>
  <path d="M40.000,23.851 C40.000,32.577 34.324,40.376 26.198,42.816 C26.103,42.845 26.005,42.859 25.910,42.859 C25.480,42.859 25.083,42.581 24.952,42.149 C24.793,41.621 25.093,41.065 25.622,40.907 C32.910,38.718 38.000,31.705 38.000,23.851 C38.000,15.459 32.432,8.796 24.295,7.188 L27.828,12.385 C28.138,12.841 28.019,13.461 27.560,13.770 C27.390,13.886 27.194,13.942 27.001,13.942 C26.681,13.942 26.365,13.788 26.172,13.504 L21.172,6.148 C21.017,5.918 20.963,5.635 21.025,5.365 C21.088,5.095 21.260,4.863 21.500,4.725 L29.500,0.116 C29.977,-0.161 30.590,0.003 30.866,0.480 C31.143,0.957 30.979,1.567 30.500,1.842 L24.628,5.226 C33.620,7.004 40.000,14.607 40.000,23.851 ZM18.500,43.100 L10.500,47.710 C10.343,47.801 10.171,47.844 10.001,47.844 C9.655,47.844 9.319,47.666 9.134,47.346 C8.857,46.869 9.021,46.259 9.500,45.984 L15.371,42.600 C6.379,40.822 0.000,33.219 0.000,23.975 C0.000,15.248 5.676,7.450 13.804,5.010 C14.331,4.849 14.890,5.150 15.050,5.677 C15.209,6.205 14.909,6.761 14.380,6.919 C7.091,9.108 2.000,16.121 2.000,23.975 C2.000,32.368 7.568,39.030 15.705,40.638 L12.172,35.441 C11.862,34.985 11.981,34.365 12.439,34.056 C12.895,33.747 13.518,33.866 13.828,34.322 L18.828,41.677 C18.983,41.907 19.037,42.190 18.975,42.460 C18.912,42.730 18.741,42.962 18.500,43.100 Z" class="cls-1"/>
</svg>
