<svg xmlns="http://www.w3.org/2000/svg" xmlns:xlink="http://www.w3.org/1999/xlink" preserveAspectRatio="xMidYMid" width="96" height="96" viewBox="0 0 48 48">
  <defs>
    <style>
      .cls-1 {
        fill: #1b1b1b;
        fill-rule: evenodd;
      }
    </style>
  </defs>
  <path d="M47.150,27.912 L41.686,28.755 C41.281,30.271 40.679,31.727 39.889,33.101 L43.221,37.469 C43.524,37.866 43.488,38.426 43.135,38.780 L38.906,43.037 C38.558,43.389 38.005,43.433 37.604,43.138 L33.147,39.859 C31.773,40.653 30.311,41.261 28.784,41.674 L28.062,47.110 C27.997,47.606 27.575,47.977 27.075,47.979 L21.083,48.000 C21.082,48.000 21.080,48.000 21.079,48.000 C20.586,48.000 20.166,47.640 20.091,47.151 L19.256,41.693 C17.745,41.290 16.291,40.693 14.921,39.912 L10.532,43.224 C10.133,43.524 9.578,43.486 9.225,43.136 L4.964,38.908 C4.613,38.560 4.569,38.008 4.861,37.608 L8.115,33.153 C7.305,31.757 6.690,30.274 6.280,28.731 L0.900,28.061 C0.401,28.000 0.025,27.576 0.023,27.073 L0.002,21.082 C-0.000,20.586 0.362,20.163 0.853,20.089 L6.306,19.268 C6.725,17.719 7.346,16.238 8.158,14.852 L4.788,10.541 C4.478,10.144 4.512,9.577 4.867,9.220 L9.097,4.962 C9.450,4.606 10.012,4.567 10.412,4.871 L14.822,8.227 C16.207,7.425 17.682,6.812 19.222,6.400 L19.932,0.889 C19.995,0.392 20.419,0.018 20.920,0.017 L26.921,0.000 C26.922,0.000 26.923,0.000 26.924,0.000 C27.421,0.000 27.841,0.364 27.913,0.856 L28.717,6.390 C30.219,6.790 31.664,7.383 33.030,8.158 L37.469,4.777 C37.865,4.477 38.423,4.512 38.779,4.864 L43.037,9.094 C43.391,9.445 43.431,10.005 43.130,10.404 L39.802,14.826 C40.613,16.207 41.234,17.682 41.656,19.226 L47.109,19.940 C47.605,20.005 47.977,20.428 47.979,20.929 L47.998,26.921 C48.000,27.415 47.640,27.837 47.150,27.912 ZM45.982,21.810 L40.723,21.120 C40.310,21.066 39.973,20.762 39.880,20.355 C39.462,18.560 38.746,16.861 37.752,15.308 C37.527,14.955 37.545,14.501 37.796,14.167 L41.008,9.898 L37.987,6.896 L33.704,10.158 C33.375,10.409 32.925,10.430 32.573,10.213 C31.026,9.256 29.354,8.570 27.605,8.176 C27.201,8.085 26.895,7.754 26.836,7.344 L26.058,2.002 L21.803,2.015 L21.118,7.334 C21.065,7.750 20.757,8.088 20.348,8.182 C18.555,8.589 16.854,9.295 15.290,10.279 C14.937,10.504 14.484,10.482 14.151,10.229 L9.898,6.993 L6.907,10.004 L10.160,14.165 C10.421,14.499 10.443,14.962 10.215,15.319 C9.219,16.879 8.503,18.582 8.087,20.383 C7.995,20.782 7.668,21.085 7.262,21.147 L2.005,21.938 L2.020,26.185 L7.211,26.831 C7.630,26.883 7.971,27.192 8.063,27.604 C8.463,29.394 9.169,31.099 10.161,32.673 C10.379,33.020 10.364,33.465 10.122,33.796 L6.983,38.094 L10.019,41.105 L14.252,37.911 C14.430,37.776 14.642,37.709 14.855,37.709 C15.037,37.709 15.220,37.759 15.382,37.859 C16.931,38.820 18.607,39.509 20.364,39.906 C20.765,39.997 21.070,40.324 21.132,40.731 L21.938,45.997 L26.195,45.981 L26.891,40.736 C26.946,40.323 27.253,39.987 27.659,39.894 C29.434,39.486 31.120,38.786 32.669,37.811 C33.017,37.593 33.463,37.609 33.794,37.853 L38.096,41.016 L41.103,37.988 L37.889,33.774 C37.636,33.443 37.615,32.990 37.836,32.638 C38.806,31.086 39.502,29.407 39.900,27.647 C39.991,27.247 40.317,26.942 40.723,26.880 L45.995,26.066 L45.982,21.810 ZM23.902,33.973 C18.388,33.973 13.902,29.486 13.902,23.972 C13.902,18.458 18.388,13.972 23.902,13.972 C29.416,13.972 33.901,18.458 33.901,23.972 C33.901,29.486 29.416,33.973 23.902,33.973 ZM23.902,15.972 C19.491,15.972 15.902,19.561 15.902,23.972 C15.902,28.384 19.491,31.973 23.902,31.973 C28.313,31.973 31.901,28.384 31.901,23.972 C31.901,19.561 28.313,15.972 23.902,15.972 Z" class="cls-1"/>
</svg>
