<svg xmlns="http://www.w3.org/2000/svg" xmlns:xlink="http://www.w3.org/1999/xlink" preserveAspectRatio="xMidYMid" width="80" height="95.376" viewBox="0 0 40 47.688">
  <defs>
    <style>
      .cls-1 {
        fill: #1b1b1b;
        fill-rule: evenodd;
      }
    </style>
  </defs>
  <path d="M37.000,47.677 L3.000,47.677 C1.346,47.677 0.000,46.341 0.000,44.699 L0.000,18.890 C0.000,17.248 1.346,15.719 3.000,15.719 L8.633,15.719 C6.580,9.625 9.782,2.961 15.898,0.751 C18.909,-0.337 22.168,-0.195 25.073,1.149 C27.979,2.493 30.184,4.881 31.279,7.871 L31.937,9.607 C32.130,10.119 31.868,10.692 31.352,10.885 C30.834,11.075 30.259,10.818 30.064,10.305 L29.403,8.560 C28.486,6.059 26.649,4.068 24.228,2.948 C21.807,1.827 19.093,1.710 16.582,2.616 C11.400,4.489 8.720,10.197 10.605,15.342 L10.744,15.719 L37.000,15.719 C38.654,15.719 40.000,17.248 40.000,18.890 L40.000,44.699 C40.000,46.341 38.654,47.677 37.000,47.677 ZM38.000,18.890 C38.000,18.342 37.552,17.719 37.000,17.719 L10.652,17.719 C10.589,17.760 10.532,17.810 10.458,17.837 C10.345,17.878 10.229,17.897 10.115,17.897 C9.910,17.897 9.711,17.833 9.545,17.719 L3.000,17.719 C2.448,17.719 2.000,18.342 2.000,18.890 L2.000,44.699 C2.000,45.247 2.448,45.692 3.000,45.692 L37.000,45.692 C37.552,45.692 38.000,45.247 38.000,44.699 L38.000,18.890 ZM21.000,31.612 L21.000,36.758 C21.000,37.306 20.553,37.750 20.000,37.750 C19.447,37.750 19.000,37.306 19.000,36.758 L19.000,31.612 C17.839,31.200 17.000,30.109 17.000,28.816 C17.000,27.174 18.346,25.838 20.000,25.838 C21.654,25.838 23.000,27.174 23.000,28.816 C23.000,30.109 22.161,31.200 21.000,31.612 ZM20.000,27.824 C19.448,27.824 19.000,28.269 19.000,28.816 C19.000,29.364 19.448,29.809 20.000,29.809 C20.552,29.809 21.000,29.364 21.000,28.816 C21.000,28.269 20.552,27.824 20.000,27.824 Z" class="cls-1"/>
</svg>
