<svg xmlns="http://www.w3.org/2000/svg" xmlns:xlink="http://www.w3.org/1999/xlink" preserveAspectRatio="xMidYMid" width="96" height="83.876" viewBox="0 0 48 41.938">
  <defs>
    <style>
      .cls-1 {
        fill: #1b1b1b;
        fill-rule: evenodd;
      }
    </style>
  </defs>
  <path d="M37.363,36.882 C37.255,36.920 37.144,36.937 37.035,36.937 C36.621,36.937 36.234,36.679 36.091,36.266 C35.909,35.746 36.185,35.176 36.707,34.996 C42.266,33.067 46.000,27.432 46.000,20.970 C46.000,14.489 42.252,8.846 36.675,6.929 C36.152,6.750 35.875,6.181 36.055,5.661 C36.234,5.139 36.803,4.859 37.325,5.042 C43.710,7.235 48.000,13.637 48.000,20.970 C48.000,28.281 43.726,34.675 37.363,36.882 ZM40.000,20.970 C40.000,24.823 36.859,27.959 33.000,27.959 C32.447,27.959 32.000,27.512 32.000,26.961 C32.000,26.409 32.447,25.962 33.000,25.962 C35.757,25.962 38.000,23.722 38.000,20.970 C38.000,18.217 35.757,15.978 33.000,15.978 C32.447,15.978 32.000,15.531 32.000,14.979 C32.000,14.427 32.447,13.981 33.000,13.981 C36.859,13.981 40.000,17.117 40.000,20.970 ZM27.000,41.937 C26.777,41.937 26.556,41.863 26.375,41.719 L11.649,29.956 L4.066,29.956 C1.824,29.956 0.000,28.075 0.000,25.763 L0.000,16.177 C0.000,13.865 1.824,11.984 4.066,11.984 L11.649,11.984 L26.375,0.221 C26.675,-0.020 27.086,-0.066 27.434,0.101 C27.779,0.268 28.000,0.617 28.000,1.001 L28.000,40.939 C28.000,41.323 27.779,41.672 27.434,41.839 C27.296,41.905 27.148,41.937 27.000,41.937 ZM26.000,3.079 L12.624,13.762 C12.375,13.962 12.061,14.007 11.772,13.938 L4.000,13.938 C2.860,13.938 2.000,14.966 2.000,16.177 L2.000,25.763 C2.000,26.974 2.927,27.959 4.066,27.959 L12.000,27.959 C12.044,27.959 12.082,27.979 12.125,27.984 C12.195,27.993 12.261,28.002 12.329,28.025 C12.394,28.048 12.451,28.083 12.509,28.118 C12.547,28.141 12.589,28.149 12.624,28.178 L26.000,38.861 L26.000,3.079 Z" class="cls-1"/>
</svg>
