<svg xmlns="http://www.w3.org/2000/svg" xmlns:xlink="http://www.w3.org/1999/xlink" preserveAspectRatio="xMidYMid" width="47.812" height="47.876" viewBox="0 0 23.906 23.938">
  <defs>
    <style>
      .cls-1 {
        fill: #1b1b1b;
        fill-rule: evenodd;
      }
    </style>
  </defs>
  <path d="M23.899,1.031 L23.899,6.980 C23.899,7.532 23.453,7.978 22.902,7.978 C22.352,7.978 22.000,7.489 22.000,6.938 L22.000,3.327 L16.796,8.494 C18.120,10.125 18.917,12.201 18.917,14.461 C18.917,19.686 14.672,23.936 9.452,23.936 C4.235,23.936 -0.011,19.686 -0.011,14.461 C-0.011,9.236 4.235,4.986 9.452,4.986 C11.697,4.986 13.759,5.775 15.384,7.087 L20.570,1.938 L17.000,1.938 C16.449,1.938 15.929,1.547 15.929,0.996 C15.929,0.445 16.374,-0.001 16.925,-0.001 L22.902,-0.001 C23.453,-0.001 23.899,0.445 23.899,0.996 L23.899,1.031 C23.899,1.031 23.899,1.031 23.899,1.031 ZM9.452,6.980 C5.333,6.980 1.982,10.336 1.982,14.461 C1.982,18.586 5.333,21.942 9.452,21.942 C13.573,21.942 16.925,18.586 16.925,14.461 C16.925,10.336 13.573,6.980 9.452,6.980 Z" class="cls-1"/>
</svg>
