<svg xmlns="http://www.w3.org/2000/svg" xmlns:xlink="http://www.w3.org/1999/xlink" preserveAspectRatio="xMidYMid" width="66" height="89.907" viewBox="0 0 44 59.938">
  <defs>
    <style>
      .cls-1 {
        fill: #1b1b1b;
        fill-rule: evenodd;
      }
    </style>
  </defs>
  <path d="M44.000,16.993 C44.000,17.025 43.985,17.052 43.982,17.082 L43.982,57.939 C43.982,59.042 43.085,59.939 41.981,59.939 L2.015,59.939 C0.904,59.939 -0.000,59.035 -0.000,57.925 L-0.000,2.029 C-0.000,0.919 0.904,0.015 2.015,0.015 L26.988,0.015 C27.033,0.015 27.071,0.035 27.114,0.041 C27.160,0.046 27.200,0.055 27.245,0.067 C27.415,0.113 27.574,0.187 27.695,0.308 L43.579,16.179 C43.609,16.200 43.624,16.237 43.652,16.262 C43.686,16.293 43.712,16.328 43.741,16.363 C43.890,16.538 44.000,16.746 44.000,16.993 ZM2.000,1.938 L1.999,57.925 L41.981,57.941 L41.983,17.938 L27.000,17.938 C26.448,17.938 25.988,17.545 25.988,16.993 L25.988,1.938 L2.000,1.938 ZM27.987,3.425 L27.987,15.995 L40.568,15.995 L27.987,3.425 Z" class="cls-1"/>
</svg>
