<svg xmlns="http://www.w3.org/2000/svg" xmlns:xlink="http://www.w3.org/1999/xlink" preserveAspectRatio="xMidYMid" width="89.813" height="89.859" viewBox="0 0 59.875 59.906">
  <defs>
    <style>
      .cls-1 {
        fill: #1b1b1b;
        fill-rule: evenodd;
      }
    </style>
  </defs>
  <path d="M59.583,0.295 C59.669,0.382 59.730,0.483 59.778,0.590 C59.793,0.623 59.802,0.656 59.813,0.690 C59.840,0.770 59.855,0.850 59.861,0.934 C59.863,0.970 59.867,1.005 59.866,1.041 C59.862,1.137 59.843,1.231 59.810,1.325 C59.804,1.344 59.803,1.364 59.795,1.383 C59.793,1.387 59.793,1.391 59.792,1.395 L34.787,59.304 C34.641,59.644 34.318,59.875 33.948,59.904 C33.922,59.905 33.897,59.906 33.871,59.906 C33.530,59.906 33.210,59.732 33.027,59.440 L20.496,39.541 C20.468,39.518 20.433,39.508 20.407,39.482 C20.385,39.460 20.378,39.432 20.359,39.409 L0.470,27.362 C0.152,27.169 -0.033,26.815 -0.009,26.444 C0.016,26.072 0.244,25.744 0.585,25.594 L58.473,0.086 C58.478,0.083 58.484,0.084 58.489,0.081 C58.511,0.072 58.534,0.071 58.557,0.063 C58.648,0.032 58.739,0.013 58.832,0.009 C58.868,0.008 58.902,0.011 58.938,0.013 C59.023,0.018 59.104,0.034 59.184,0.061 C59.218,0.072 59.250,0.080 59.282,0.095 C59.390,0.143 59.492,0.204 59.579,0.290 C59.580,0.291 59.580,0.292 59.581,0.293 C59.581,0.293 59.581,0.293 59.581,0.293 C59.582,0.294 59.582,0.295 59.583,0.295 ZM33.706,56.773 L55.889,5.399 L22.432,38.868 L33.706,56.773 ZM21.009,37.468 L54.403,4.061 L3.145,26.648 L21.009,37.468 Z" class="cls-1"/>
</svg>
