<svg xmlns="http://www.w3.org/2000/svg" xmlns:xlink="http://www.w3.org/1999/xlink" preserveAspectRatio="xMidYMid" width="90" height="60" viewBox="0 0 60 40">
  <defs>
    <style>
      .cls-1 {
        fill: #1b1b1b;
        fill-rule: evenodd;
      }
    </style>
  </defs>
  <path d="M59.489,39.873 C59.337,39.958 59.168,40.000 59.000,40.000 C58.819,40.000 58.639,39.952 58.479,39.854 L42.000,29.796 L42.000,38.003 C42.000,39.104 41.103,40.000 40.000,40.000 L2.000,40.000 C0.897,40.000 -0.000,39.104 -0.000,38.003 L-0.000,2.045 C-0.000,0.943 0.897,0.000 2.000,0.000 L40.000,0.000 C41.102,0.000 42.000,0.943 42.000,2.045 L42.000,10.252 L58.479,0.194 C58.788,0.005 59.174,-0.002 59.489,0.175 C59.805,0.352 60.000,0.685 60.000,1.046 L60.000,39.002 C60.000,39.363 59.805,39.696 59.489,39.873 ZM58.000,2.827 L41.522,12.886 C41.500,12.899 41.476,12.899 41.454,12.910 C41.394,12.941 41.331,12.960 41.265,12.979 C41.200,12.997 41.138,13.013 41.072,13.018 C41.047,13.019 41.026,13.032 41.000,13.032 C40.960,13.032 40.926,13.014 40.888,13.009 C40.819,13.002 40.755,12.991 40.689,12.969 C40.628,12.949 40.574,12.923 40.519,12.892 C40.463,12.861 40.411,12.828 40.362,12.786 C40.309,12.741 40.267,12.692 40.224,12.638 C40.200,12.607 40.167,12.588 40.147,12.554 C40.134,12.533 40.133,12.508 40.122,12.486 C40.091,12.427 40.073,12.365 40.054,12.301 C40.036,12.234 40.019,12.170 40.014,12.103 C40.013,12.079 40.000,12.058 40.000,12.033 L40.000,2.000 L2.000,2.000 L2.000,38.003 L40.000,38.003 L40.000,28.015 C40.000,27.990 40.013,27.969 40.014,27.945 C40.019,27.877 40.036,27.814 40.054,27.747 C40.073,27.682 40.091,27.621 40.122,27.562 C40.133,27.540 40.134,27.515 40.147,27.494 C40.168,27.460 40.201,27.440 40.225,27.410 C40.267,27.356 40.309,27.307 40.361,27.262 C40.411,27.220 40.464,27.186 40.521,27.155 C40.575,27.125 40.628,27.099 40.687,27.079 C40.754,27.056 40.821,27.045 40.891,27.038 C40.929,27.033 40.962,27.016 41.000,27.016 C41.025,27.016 41.046,27.028 41.070,27.030 C41.137,27.034 41.201,27.051 41.267,27.069 C41.332,27.088 41.394,27.107 41.454,27.137 C41.476,27.149 41.500,27.149 41.522,27.162 L58.000,37.221 L58.000,2.827 Z" class="cls-1"/>
</svg>
