<svg xmlns="http://www.w3.org/2000/svg" xmlns:xlink="http://www.w3.org/1999/xlink" preserveAspectRatio="xMidYMid" width="88.359" height="77.907" viewBox="0 0 58.906 51.938">
  <defs>
    <style>
      .cls-1 {
        fill: #1b1b1b;
        fill-rule: evenodd;
      }
    </style>
  </defs>
  <path d="M51.330,25.972 L58.611,33.256 C59.001,33.646 59.001,34.278 58.611,34.668 C58.416,34.863 58.161,34.960 57.905,34.960 C57.650,34.960 57.394,34.863 57.199,34.668 L49.918,27.384 L42.637,34.668 C42.442,34.863 42.186,34.960 41.931,34.960 C41.675,34.960 41.420,34.863 41.225,34.668 C40.835,34.278 40.835,33.646 41.225,33.256 L48.506,25.972 L41.225,18.689 C40.835,18.299 40.835,17.667 41.225,17.276 C41.615,16.886 42.247,16.886 42.637,17.276 L49.918,24.560 L57.199,17.276 C57.589,16.886 58.221,16.886 58.611,17.276 C59.001,17.667 59.001,18.299 58.611,18.689 L51.330,25.972 ZM33.369,51.844 C33.234,51.907 33.089,51.938 32.945,51.938 C32.716,51.938 32.489,51.859 32.306,51.707 L14.612,36.958 L4.893,36.958 C2.194,36.958 -0.002,34.718 -0.002,31.964 L-0.002,19.980 C-0.002,17.227 2.194,14.986 4.893,14.986 L14.612,14.986 L32.306,0.237 C32.604,-0.011 33.017,-0.064 33.369,0.101 C33.719,0.264 33.944,0.617 33.944,1.005 L33.944,50.940 C33.944,51.327 33.719,51.680 33.369,51.844 ZM32.000,2.938 L15.613,16.753 C15.359,16.963 15.037,17.010 14.740,16.938 L5.000,16.938 C3.402,16.938 1.995,18.328 1.995,19.980 L1.995,31.964 C1.995,33.616 3.295,34.960 4.893,34.960 L14.974,34.960 C15.022,34.960 15.063,34.981 15.109,34.988 C15.177,34.997 15.244,35.004 15.310,35.028 C15.377,35.053 15.434,35.090 15.493,35.127 C15.532,35.151 15.577,35.161 15.613,35.191 L32.000,48.938 L32.000,2.938 Z" class="cls-1"/>
</svg>
