<svg xmlns="http://www.w3.org/2000/svg" xmlns:xlink="http://www.w3.org/1999/xlink" preserveAspectRatio="xMidYMid" width="90" height="77.907" viewBox="0 0 60 51.938">
  <defs>
    <style>
      .cls-1 {
        fill: #1b1b1b;
        fill-rule: evenodd;
      }
    </style>
  </defs>
  <path d="M47.388,45.875 C47.273,45.917 47.157,45.936 47.043,45.936 C46.636,45.936 46.253,45.686 46.105,45.282 C45.914,44.764 46.180,44.189 46.698,44.000 C53.458,41.524 58.000,34.278 58.000,25.971 C58.000,17.768 53.336,10.347 46.658,7.924 C46.140,7.736 45.871,7.163 46.060,6.644 C46.249,6.126 46.820,5.858 47.342,6.047 C54.913,8.794 60.000,16.800 60.000,25.971 C60.000,35.113 54.932,43.112 47.388,45.875 ZM50.000,25.971 C50.000,30.928 45.963,34.960 41.000,34.960 C40.447,34.960 40.000,34.513 40.000,33.961 C40.000,33.409 40.447,32.962 41.000,32.962 C44.859,32.962 48.000,29.826 48.000,25.971 C48.000,22.117 44.859,18.980 41.000,18.980 C40.447,18.980 40.000,18.533 40.000,17.981 C40.000,17.429 40.447,16.983 41.000,16.983 C45.963,16.983 50.000,21.015 50.000,25.971 ZM33.000,51.938 C32.771,51.938 32.543,51.859 32.359,51.707 L14.638,36.957 L4.902,36.957 C2.199,36.957 -0.000,34.717 -0.000,31.964 L-0.000,19.979 C-0.000,17.226 2.199,14.985 4.902,14.985 L14.638,14.985 L32.359,0.235 C32.658,-0.012 33.075,-0.064 33.424,0.099 C33.775,0.263 34.000,0.616 34.000,1.003 L34.000,50.940 C34.000,51.327 33.775,51.680 33.424,51.844 C33.289,51.907 33.144,51.938 33.000,51.938 ZM32.000,3.135 L15.640,16.752 C15.604,16.782 15.559,16.792 15.520,16.816 C15.461,16.853 15.404,16.891 15.337,16.915 C15.270,16.939 15.204,16.946 15.135,16.955 C15.089,16.962 15.048,16.983 15.000,16.983 L4.902,16.983 C3.302,16.983 2.000,18.327 2.000,19.979 L2.000,31.964 C2.000,33.616 3.302,34.960 4.902,34.960 L15.000,34.960 C15.048,34.960 15.089,34.981 15.135,34.987 C15.204,34.996 15.271,35.004 15.337,35.028 C15.404,35.052 15.461,35.089 15.520,35.126 C15.559,35.151 15.604,35.161 15.640,35.191 L32.000,48.808 L32.000,3.135 Z" class="cls-1"/>
</svg>
