<svg xmlns="http://www.w3.org/2000/svg" xmlns:xlink="http://www.w3.org/1999/xlink" preserveAspectRatio="xMidYMid" width="60" height="60" viewBox="0 0 60 60">
  <defs>
    <style>
      .cls-1 {
        fill: #1b1b1b;
        fill-rule: evenodd;
      }
    </style>
  </defs>
  <path d="M30.000,60.000 C13.458,60.000 0.000,46.542 0.000,30.000 C0.000,13.458 13.458,0.000 30.000,0.000 C46.542,0.000 60.000,13.458 60.000,30.000 C60.000,46.542 46.542,60.000 30.000,60.000 ZM30.000,2.000 C14.561,2.000 2.000,14.561 2.000,30.000 C2.000,45.440 14.561,58.000 30.000,58.000 C45.439,58.000 58.000,45.440 58.000,30.000 C58.000,14.561 45.439,2.000 30.000,2.000 ZM27.144,40.681 C26.960,40.879 26.704,40.994 26.434,41.000 C26.427,41.000 26.419,41.000 26.412,41.000 C26.149,41.000 25.898,40.897 25.710,40.712 L14.298,29.462 C13.905,29.074 13.900,28.441 14.288,28.048 C14.675,27.655 15.309,27.649 15.702,28.038 L26.381,38.565 L44.268,19.319 C44.644,18.915 45.278,18.892 45.681,19.268 C46.085,19.644 46.108,20.276 45.732,20.681 L27.144,40.681 Z" class="cls-1"/>
</svg>
