<svg xmlns="http://www.w3.org/2000/svg" xmlns:xlink="http://www.w3.org/1999/xlink" preserveAspectRatio="xMidYMid" width="59.969" height="52.438" viewBox="0 0 59.969 52.438">
  <defs>
    <style>
      .cls-1 {
        fill: #1b1b1b;
        fill-rule: evenodd;
      }
    </style>
  </defs>
  <path d="M55.460,26.643 C55.459,26.644 55.459,26.646 55.458,26.647 L33.292,50.924 C32.418,51.902 31.236,52.444 29.969,52.444 L29.969,52.444 C28.702,52.444 27.520,51.902 26.640,50.915 L4.484,26.647 C4.482,26.645 4.482,26.643 4.480,26.641 C-1.529,20.540 -1.520,10.644 4.512,4.558 C10.540,-1.519 20.335,-1.535 26.382,4.512 C26.384,4.513 26.386,4.514 26.388,4.515 L29.970,7.712 L33.555,4.515 C33.556,4.514 33.558,4.514 33.560,4.513 C39.607,-1.533 49.402,-1.520 55.429,4.558 C61.458,10.645 61.467,20.541 55.460,26.643 ZM54.015,5.984 C48.753,0.677 40.189,0.678 34.924,5.984 C34.916,5.992 34.906,5.995 34.898,6.002 C34.890,6.009 34.887,6.020 34.879,6.027 L30.632,9.814 C30.578,9.862 30.515,9.887 30.455,9.921 C30.418,9.943 30.385,9.971 30.346,9.988 C30.225,10.038 30.098,10.068 29.970,10.068 C29.970,10.068 29.970,10.068 29.969,10.068 C29.969,10.068 29.969,10.068 29.969,10.068 C29.841,10.068 29.714,10.038 29.593,9.988 C29.553,9.971 29.521,9.943 29.483,9.921 C29.423,9.887 29.360,9.862 29.307,9.814 L25.063,6.027 C25.055,6.020 25.052,6.009 25.044,6.002 C25.037,5.994 25.026,5.992 25.019,5.984 C19.755,0.677 11.190,0.677 5.926,5.984 C0.663,11.296 0.663,19.938 5.926,25.250 C5.931,25.255 5.933,25.262 5.938,25.267 C5.943,25.272 5.950,25.274 5.955,25.280 L28.118,49.556 C28.622,50.121 29.277,50.426 29.969,50.426 L29.969,50.426 C30.662,50.426 31.317,50.121 31.815,49.564 L53.987,25.280 C53.992,25.274 53.999,25.273 54.003,25.268 C54.008,25.262 54.010,25.255 54.015,25.250 C59.275,19.939 59.275,11.295 54.015,5.984 Z" class="cls-1"/>
</svg>
