<svg xmlns="http://www.w3.org/2000/svg" xmlns:xlink="http://www.w3.org/1999/xlink" preserveAspectRatio="xMidYMid" width="51.906" height="60" viewBox="0 0 51.906 60">
  <defs>
    <style>
      .cls-1 {
        fill: #1b1b1b;
        fill-rule: evenodd;
      }
    </style>
  </defs>
  <path d="M35.936,31.999 C31.925,31.999 28.265,30.499 25.457,28.045 L9.420,44.022 L16.678,51.293 C17.068,51.684 17.068,52.316 16.678,52.707 C16.483,52.902 16.228,53.000 15.972,53.000 C15.717,53.000 15.461,52.902 15.267,52.707 L8.004,45.432 L2.413,51.002 L9.691,58.293 C10.081,58.684 10.081,59.316 9.691,59.707 C9.496,59.902 9.240,60.000 8.985,60.000 C8.730,60.000 8.474,59.902 8.279,59.707 L0.294,51.707 C0.294,51.707 0.293,51.706 0.293,51.706 C0.293,51.706 0.292,51.705 0.292,51.705 C0.239,51.652 0.212,51.587 0.174,51.526 C0.142,51.475 0.096,51.430 0.074,51.375 C0.049,51.314 0.049,51.248 0.037,51.183 C0.025,51.121 0.002,51.061 0.002,50.999 C0.002,50.940 0.025,50.884 0.035,50.826 C0.047,50.758 0.049,50.688 0.075,50.623 C0.101,50.560 0.151,50.508 0.189,50.451 C0.224,50.398 0.247,50.340 0.294,50.293 C0.294,50.293 0.295,50.293 0.295,50.292 C0.295,50.292 0.295,50.291 0.296,50.291 L24.039,26.637 C21.514,23.806 19.965,20.086 19.965,16.000 C19.965,7.178 27.130,0.000 35.936,0.000 C44.742,0.000 51.907,7.178 51.907,16.000 C51.907,24.822 44.742,31.999 35.936,31.999 ZM35.936,2.000 C28.230,2.000 21.961,8.280 21.961,16.000 C21.961,23.719 28.230,29.999 35.936,29.999 C43.641,29.999 49.910,23.719 49.910,16.000 C49.910,8.280 43.641,2.000 35.936,2.000 Z" class="cls-1"/>
</svg>
