<svg xmlns="http://www.w3.org/2000/svg" xmlns:xlink="http://www.w3.org/1999/xlink" preserveAspectRatio="xMidYMid" width="50" height="60" viewBox="0 0 50 60">
  <defs>
    <style>
      .cls-1 {
        fill: #1b1b1b;
        fill-rule: evenodd;
      }
    </style>
  </defs>
  <path d="M47.000,60.000 L3.000,60.000 C1.346,60.000 -0.000,58.654 -0.000,57.000 L-0.000,23.000 C-0.000,21.346 1.346,20.000 3.000,20.000 L10.000,20.000 L10.000,15.000 C10.000,6.728 16.728,-0.000 25.000,-0.000 C33.271,-0.000 40.000,6.728 40.000,15.000 L40.000,20.000 L47.000,20.000 C48.654,20.000 50.000,21.346 50.000,23.000 L50.000,57.000 C50.000,58.654 48.654,60.000 47.000,60.000 ZM25.000,2.000 C17.832,2.000 12.000,7.832 12.000,15.000 L12.000,20.000 L38.000,20.000 L38.000,15.000 C38.000,7.832 32.168,2.000 25.000,2.000 ZM48.000,23.000 C48.000,22.448 47.552,22.000 47.000,22.000 L3.000,22.000 C2.448,22.000 2.000,22.448 2.000,23.000 L2.000,57.000 C2.000,57.552 2.448,58.000 3.000,58.000 L47.000,58.000 C47.552,58.000 48.000,57.552 48.000,57.000 L48.000,23.000 ZM26.000,39.858 L26.000,47.000 C26.000,47.553 25.553,48.000 25.000,48.000 C24.447,48.000 24.000,47.553 24.000,47.000 L24.000,39.858 C22.279,39.411 21.000,37.859 21.000,36.000 C21.000,33.794 22.794,32.000 25.000,32.000 C27.206,32.000 29.000,33.794 29.000,36.000 C29.000,37.859 27.721,39.411 26.000,39.858 ZM25.000,34.000 C23.897,34.000 23.000,34.897 23.000,36.000 C23.000,37.102 23.897,38.000 25.000,38.000 C26.103,38.000 27.000,37.102 27.000,36.000 C27.000,34.897 26.103,34.000 25.000,34.000 Z" class="cls-1"/>
</svg>
