<svg xmlns="http://www.w3.org/2000/svg" xmlns:xlink="http://www.w3.org/1999/xlink" preserveAspectRatio="xMidYMid" width="59.906" height="59.906" viewBox="0 0 59.906 59.906">
  <defs>
    <style>
      .cls-1 {
        fill: #1b1b1b;
        fill-rule: evenodd;
      }
    </style>
  </defs>
  <path d="M59.890,0.940 C59.891,0.961 59.902,0.979 59.902,1.000 L59.902,16.972 C59.902,17.524 59.455,17.971 58.904,17.971 C58.352,17.971 58.000,17.458 58.000,16.906 L58.000,3.306 L41.514,19.691 C45.476,23.967 47.920,29.669 47.920,35.944 C47.920,49.156 37.171,59.905 23.958,59.905 C10.746,59.905 -0.003,49.156 -0.003,35.944 C-0.003,22.732 10.746,11.982 23.958,11.982 C30.178,11.982 35.833,14.384 40.097,18.284 L56.576,1.906 L43.000,1.906 C42.448,1.906 41.931,1.552 41.931,1.000 C41.931,0.448 42.377,0.002 42.929,0.002 L58.904,0.002 C58.904,0.002 58.904,0.002 58.904,0.002 C59.034,0.002 59.164,0.028 59.286,0.079 C59.409,0.130 59.519,0.203 59.611,0.296 C59.611,0.296 59.611,0.296 59.611,0.296 C59.617,0.302 59.618,0.309 59.624,0.315 C59.708,0.403 59.778,0.505 59.825,0.620 C59.868,0.723 59.883,0.831 59.890,0.940 ZM23.958,13.979 C11.847,13.979 1.994,23.832 1.994,35.944 C1.994,48.055 11.847,57.909 23.958,57.909 C36.070,57.909 45.923,48.055 45.923,35.944 C45.923,23.832 36.070,13.979 23.958,13.979 Z" class="cls-1"/>
</svg>
