<svg xmlns="http://www.w3.org/2000/svg" xmlns:xlink="http://www.w3.org/1999/xlink" preserveAspectRatio="xMidYMid" width="60" height="60" viewBox="0 0 60 60">
  <defs>
    <style>
      .cls-1 {
        fill: #1b1b1b;
        fill-rule: evenodd;
      }
    </style>
  </defs>
  <path d="M57.066,60.000 L2.934,60.000 C1.316,60.000 0.000,58.654 0.000,57.000 L0.000,53.002 C0.000,52.636 0.200,52.299 0.521,52.124 L21.138,40.877 C14.094,35.174 14.000,24.328 14.000,23.842 L14.012,12.423 C14.012,12.368 14.017,12.314 14.025,12.260 C15.004,6.363 21.612,0.050 29.908,0.004 C29.938,0.002 29.969,0.000 30.000,0.000 C38.337,0.000 44.993,6.338 45.979,12.258 C45.987,12.312 45.992,12.366 45.992,12.421 L46.000,23.837 C46.000,24.336 45.910,35.433 38.931,40.898 L59.479,52.121 C59.801,52.296 60.000,52.632 60.000,52.998 L60.000,57.000 C60.000,58.654 58.684,60.000 57.066,60.000 ZM58.000,53.591 L36.552,41.877 C36.551,41.877 36.550,41.876 36.549,41.875 C36.541,41.871 36.536,41.862 36.528,41.857 C36.394,41.779 36.291,41.671 36.210,41.549 C36.200,41.534 36.182,41.528 36.173,41.513 C36.152,41.477 36.150,41.437 36.133,41.400 C36.105,41.336 36.079,41.275 36.065,41.206 C36.051,41.143 36.048,41.083 36.047,41.020 C36.046,40.956 36.046,40.894 36.057,40.830 C36.069,40.762 36.092,40.700 36.117,40.636 C36.133,40.598 36.133,40.558 36.153,40.520 C36.164,40.501 36.183,40.489 36.195,40.471 C36.231,40.415 36.276,40.368 36.322,40.320 C36.370,40.270 36.416,40.222 36.472,40.184 C36.490,40.172 36.500,40.153 36.519,40.142 C43.898,35.735 44.000,23.956 44.000,23.837 L43.992,12.507 C42.912,6.341 35.836,2.042 30.085,2.000 C30.057,2.003 30.028,2.004 30.000,2.004 C24.232,2.004 17.094,6.314 16.012,12.509 L16.000,23.843 C16.000,23.956 16.103,35.417 23.538,40.157 C23.553,40.167 23.561,40.183 23.576,40.193 C23.629,40.231 23.670,40.280 23.715,40.327 C23.762,40.378 23.810,40.425 23.845,40.482 C23.854,40.497 23.869,40.506 23.878,40.521 C23.900,40.562 23.901,40.606 23.917,40.649 C23.942,40.713 23.967,40.775 23.978,40.843 C23.988,40.909 23.985,40.972 23.982,41.038 C23.980,41.100 23.979,41.159 23.965,41.220 C23.949,41.290 23.920,41.353 23.889,41.418 C23.871,41.457 23.867,41.500 23.843,41.538 C23.833,41.552 23.818,41.560 23.808,41.574 C23.770,41.627 23.721,41.670 23.672,41.716 C23.621,41.763 23.574,41.811 23.516,41.846 C23.502,41.855 23.494,41.870 23.478,41.878 L2.000,53.596 L2.000,57.000 C2.000,57.551 2.419,58.000 2.934,58.000 L57.066,58.000 C57.581,58.000 58.000,57.551 58.000,57.000 L58.000,53.591 Z" class="cls-1"/>
</svg>
