<svg xmlns="http://www.w3.org/2000/svg" xmlns:xlink="http://www.w3.org/1999/xlink" preserveAspectRatio="xMidYMid" width="52" height="60" viewBox="0 0 52 60">
  <defs>
    <style>
      .cls-1 {
        fill: #1b1b1b;
        fill-rule: evenodd;
      }
    </style>
  </defs>
  <path d="M26.000,60.000 C11.663,60.000 0.000,48.518 0.000,34.404 C0.000,23.190 7.112,13.401 17.698,10.047 C18.227,9.878 18.787,10.172 18.953,10.698 C19.120,11.225 18.828,11.787 18.302,11.953 C8.552,15.043 2.000,24.065 2.000,34.404 C2.000,47.415 12.767,58.000 26.000,58.000 C39.233,58.000 50.000,47.415 50.000,34.404 C50.000,24.064 43.449,15.041 33.698,11.953 C33.172,11.787 32.880,11.225 33.047,10.698 C33.213,10.172 33.772,9.878 34.302,10.047 C44.888,13.399 52.000,23.188 52.000,34.404 C52.000,48.518 40.337,60.000 26.000,60.000 ZM26.000,22.000 C25.447,22.000 25.000,21.552 25.000,21.000 L25.000,1.000 C25.000,0.448 25.447,0.000 26.000,0.000 C26.553,0.000 27.000,0.448 27.000,1.000 L27.000,21.000 C27.000,21.552 26.553,22.000 26.000,22.000 Z" class="cls-1"/>
</svg>
