<svg xmlns="http://www.w3.org/2000/svg" xmlns:xlink="http://www.w3.org/1999/xlink" preserveAspectRatio="xMidYMid" width="54" height="60" viewBox="0 0 54 60">
  <defs>
    <style>
      .cls-1 {
        fill: #1b1b1b;
        fill-rule: evenodd;
      }
    </style>
  </defs>
  <path d="M42.003,49.976 C41.546,50.285 40.928,50.167 40.619,49.710 C40.309,49.254 40.428,48.632 40.882,48.321 C47.641,43.712 52.007,35.343 52.007,27.000 C52.007,13.215 40.786,2.000 26.995,2.000 C13.205,2.000 1.985,13.215 1.985,27.000 C1.985,40.785 13.205,52.000 26.995,52.000 C27.608,52.000 28.209,51.944 28.813,51.900 L23.264,45.666 C22.898,45.254 22.933,44.622 23.344,44.254 C23.753,43.887 24.383,43.922 24.751,44.334 L31.724,52.169 C31.921,52.390 32.009,52.687 31.966,52.980 C31.924,53.273 31.754,53.531 31.503,53.687 L21.539,59.851 C21.376,59.952 21.195,60.000 21.017,60.000 C20.683,60.000 20.357,59.831 20.168,59.525 C19.880,59.055 20.025,58.438 20.494,58.149 L27.220,53.988 C27.144,53.988 27.071,54.000 26.995,54.000 C12.106,54.000 -0.008,41.888 -0.008,27.000 C-0.008,12.112 12.106,0.000 26.995,0.000 C41.886,0.000 53.999,12.112 53.999,27.000 C53.999,35.986 49.291,45.004 42.003,49.976 Z" class="cls-1"/>
</svg>
