<svg xmlns="http://www.w3.org/2000/svg" xmlns:xlink="http://www.w3.org/1999/xlink" preserveAspectRatio="xMidYMid" width="60" height="60" viewBox="0 0 60 60">
  <defs>
    <style>
      .cls-1 {
        fill: #1b1b1b;
        fill-rule: evenodd;
      }
    </style>
  </defs>
  <path d="M59.000,31.000 L51.951,31.000 C51.437,42.330 42.331,51.436 31.000,51.949 L31.000,59.000 C31.000,59.553 30.553,60.000 30.000,60.000 C29.447,60.000 29.000,59.553 29.000,59.000 L29.000,51.949 C17.669,51.436 8.563,42.330 8.049,31.000 L1.000,31.000 C0.447,31.000 0.000,30.553 0.000,30.000 C0.000,29.447 0.447,29.000 1.000,29.000 L8.049,29.000 C8.563,17.670 17.669,8.564 29.000,8.051 L29.000,1.000 C29.000,0.447 29.447,0.000 30.000,0.000 C30.553,0.000 31.000,0.447 31.000,1.000 L31.000,8.051 C42.331,8.564 51.437,17.670 51.951,29.000 L59.000,29.000 C59.553,29.000 60.000,29.447 60.000,30.000 C60.000,30.553 59.553,31.000 59.000,31.000 ZM31.000,49.949 C41.229,49.440 49.441,41.228 49.951,31.000 L41.952,31.000 C41.469,36.819 36.820,41.466 31.000,41.949 L31.000,49.949 ZM31.000,29.000 L39.949,29.000 C39.478,24.283 35.717,20.520 31.000,20.050 L31.000,29.000 ZM39.949,31.000 L31.000,31.000 L31.000,39.949 C35.717,39.479 39.478,35.717 39.949,31.000 ZM29.000,31.000 L20.051,31.000 C20.522,35.717 24.283,39.479 29.000,39.949 L29.000,31.000 ZM29.000,49.949 L29.000,41.949 C23.180,41.466 18.532,36.819 18.048,31.000 L10.049,31.000 C10.559,41.228 18.771,49.440 29.000,49.949 ZM29.000,10.051 C18.771,10.560 10.559,18.772 10.049,29.000 L18.048,29.000 C18.532,23.181 23.180,18.533 29.000,18.050 L29.000,10.051 ZM20.051,29.000 L29.000,29.000 L29.000,20.050 C24.283,20.520 20.522,24.283 20.051,29.000 ZM31.000,10.051 L31.000,18.050 C36.820,18.533 41.469,23.181 41.952,29.000 L49.951,29.000 C49.441,18.772 41.229,10.560 31.000,10.051 Z" class="cls-1"/>
</svg>
