<svg xmlns="http://www.w3.org/2000/svg" xmlns:xlink="http://www.w3.org/1999/xlink" preserveAspectRatio="xMidYMid" width="50" height="51.938" viewBox="0 0 50 51.938">
  <defs>
    <style>
      .cls-1 {
        fill: #1b1b1b;
        fill-rule: evenodd;
      }
    </style>
  </defs>
  <path d="M41.000,34.960 C40.448,34.960 40.000,34.514 40.000,33.962 C40.000,33.410 40.448,32.963 41.000,32.963 C44.860,32.963 48.000,29.826 48.000,25.972 C48.000,22.118 44.860,18.981 41.000,18.981 C40.448,18.981 40.000,18.534 40.000,17.982 C40.000,17.431 40.448,16.984 41.000,16.984 C45.962,16.984 50.000,21.016 50.000,25.972 C50.000,30.929 45.962,34.960 41.000,34.960 ZM33.424,51.844 C33.289,51.907 33.144,51.938 33.000,51.938 C32.770,51.938 32.543,51.859 32.360,51.707 L14.638,36.958 L4.902,36.958 C2.199,36.958 -0.000,34.718 -0.000,31.964 L-0.000,19.980 C-0.000,17.227 2.199,14.986 4.902,14.986 L14.638,14.986 L32.360,0.237 C32.658,-0.011 33.073,-0.064 33.424,0.101 C33.775,0.264 34.000,0.617 34.000,1.005 L34.000,50.940 C34.000,51.327 33.775,51.680 33.424,51.844 ZM32.000,3.137 L15.640,16.753 C15.604,16.783 15.560,16.793 15.521,16.817 C15.461,16.854 15.404,16.892 15.336,16.916 C15.270,16.940 15.204,16.947 15.135,16.957 C15.089,16.963 15.048,16.984 15.000,16.984 L4.902,16.984 C3.302,16.984 2.000,18.328 2.000,19.980 L2.000,31.964 C2.000,33.616 3.302,34.960 4.902,34.960 L15.000,34.960 C15.048,34.960 15.089,34.981 15.135,34.988 C15.204,34.997 15.270,35.004 15.337,35.028 C15.404,35.053 15.460,35.090 15.520,35.127 C15.559,35.151 15.604,35.161 15.640,35.191 L32.000,48.808 L32.000,3.137 Z" class="cls-1"/>
</svg>
