<svg xmlns="http://www.w3.org/2000/svg" xmlns:xlink="http://www.w3.org/1999/xlink" preserveAspectRatio="xMidYMid" width="48" height="48" viewBox="0 0 24 24">
  <defs>
    <style>
      .cls-1 {
        fill: #1b1b1b;
        fill-rule: evenodd;
      }
    </style>
  </defs>
  <path d="M12.000,24.000 C5.383,24.000 0.000,18.617 0.000,12.000 C0.000,5.383 5.383,0.000 12.000,0.000 C18.617,0.000 24.000,5.383 24.000,12.000 C24.000,18.617 18.617,24.000 12.000,24.000 ZM2.000,12.000 C2.000,17.514 6.486,22.000 12.000,22.000 C14.398,22.000 16.600,21.150 18.325,19.738 L4.262,5.676 C2.850,7.400 2.000,9.602 2.000,12.000 ZM12.000,2.000 C9.603,2.000 7.401,2.850 5.676,4.262 L19.739,18.324 C21.150,16.599 22.000,14.398 22.000,12.000 C22.000,6.486 17.514,2.000 12.000,2.000 Z" class="cls-1"/>
</svg>
