<svg xmlns="http://www.w3.org/2000/svg" xmlns:xlink="http://www.w3.org/1999/xlink" preserveAspectRatio="xMidYMid" width="48" height="48" viewBox="0 0 24 24">
  <defs>
    <style>
      .cls-1 {
        fill: #1b1b1b;
        fill-rule: evenodd;
      }
    </style>
  </defs>
  <path d="M12.000,24.000 C5.383,24.000 0.000,18.617 0.000,12.000 C0.000,5.383 5.383,0.000 12.000,0.000 C18.617,0.000 24.000,5.383 24.000,12.000 C24.000,18.617 18.617,24.000 12.000,24.000 ZM12.000,2.000 C6.486,2.000 2.000,6.486 2.000,12.000 C2.000,17.514 6.486,22.000 12.000,22.000 C17.514,22.000 22.000,17.514 22.000,12.000 C22.000,6.486 17.514,2.000 12.000,2.000 ZM11.752,16.659 C11.555,16.884 11.278,17.000 10.999,17.000 C10.780,17.000 10.560,16.928 10.376,16.781 L5.376,12.781 C4.944,12.436 4.874,11.807 5.219,11.375 C5.564,10.944 6.195,10.875 6.624,11.219 L10.877,14.622 L17.248,7.341 C17.611,6.927 18.243,6.884 18.659,7.248 C19.074,7.611 19.116,8.243 18.752,8.659 L11.752,16.659 Z" class="cls-1"/>
</svg>
