<svg xmlns="http://www.w3.org/2000/svg" xmlns:xlink="http://www.w3.org/1999/xlink" preserveAspectRatio="xMidYMid" width="47.624" height="48" viewBox="0 0 23.812 24">
  <defs>
    <style>
      .cls-1 {
        fill: #1b1b1b;
        fill-rule: evenodd;
      }
    </style>
  </defs>
  <path d="M20.321,20.485 C18.069,22.752 15.074,24.000 11.887,24.000 C8.700,24.000 5.705,22.752 3.453,20.485 C-1.197,15.806 -1.197,8.193 3.453,3.514 C5.705,1.248 8.700,-0.000 11.887,-0.000 C15.074,-0.000 18.069,1.248 20.321,3.514 C22.574,5.781 23.815,8.794 23.815,12.000 C23.815,15.205 22.574,18.218 20.321,20.485 ZM18.916,4.929 C17.038,3.040 14.542,2.000 11.887,2.000 C9.232,2.000 6.736,3.040 4.858,4.929 C0.984,8.827 0.984,15.172 4.858,19.071 C6.736,20.960 9.232,22.000 11.887,22.000 C14.542,22.000 17.038,20.960 18.916,19.071 C20.793,17.182 21.828,14.671 21.828,12.000 C21.828,9.329 20.793,6.818 18.916,4.929 ZM13.876,19.000 L9.900,19.000 C9.351,19.000 8.906,18.552 8.906,18.000 C8.906,17.447 9.351,17.000 9.900,17.000 L10.894,17.000 L10.894,13.000 L9.900,13.000 C9.351,13.000 8.906,12.552 8.906,12.000 C8.906,11.448 9.351,11.000 9.900,11.000 L11.888,11.000 C12.437,11.000 12.882,11.448 12.882,12.000 L12.882,17.000 L13.876,17.000 C14.425,17.000 14.870,17.447 14.870,18.000 C14.870,18.552 14.425,19.000 13.876,19.000 ZM11.888,9.000 C10.792,9.000 9.900,8.102 9.900,6.998 C9.900,5.896 10.792,5.000 11.888,5.000 C12.984,5.000 13.876,5.896 13.876,6.998 C13.876,8.102 12.984,9.000 11.888,9.000 Z" class="cls-1"/>
</svg>
