<svg xmlns="http://www.w3.org/2000/svg" xmlns:xlink="http://www.w3.org/1999/xlink" preserveAspectRatio="xMidYMid" width="39.812" height="48" viewBox="0 0 19.906 24">
  <defs>
    <style>
      .cls-1 {
        fill: #1b1b1b;
        fill-rule: evenodd;
      }
    </style>
  </defs>
  <path d="M12.934,14.000 C11.530,14.000 10.226,13.572 9.131,12.851 L5.294,16.907 L7.668,19.293 C8.057,19.684 8.057,20.316 7.668,20.707 C7.474,20.902 7.219,21.000 6.965,21.000 C6.710,21.000 6.455,20.902 6.261,20.707 L3.922,18.357 L2.383,19.983 L4.683,22.293 C5.071,22.684 5.071,23.316 4.683,23.707 C4.488,23.902 4.234,24.000 3.979,24.000 C3.724,24.000 3.470,23.902 3.275,23.707 L0.307,20.725 C0.307,20.725 0.307,20.725 0.307,20.725 C0.307,20.724 0.307,20.724 0.307,20.724 L0.290,20.707 C0.246,20.663 0.226,20.608 0.192,20.560 C0.153,20.502 0.104,20.450 0.078,20.387 C0.053,20.326 0.049,20.261 0.036,20.198 C0.024,20.136 0.001,20.076 0.001,20.013 C-0.000,19.949 0.021,19.889 0.032,19.827 C0.043,19.762 0.045,19.697 0.069,19.636 C0.091,19.578 0.135,19.530 0.168,19.477 C0.203,19.421 0.225,19.360 0.272,19.311 L7.653,11.510 C6.618,10.288 5.969,8.726 5.969,7.000 C5.969,3.141 9.094,0.000 12.934,0.000 C16.777,0.000 19.903,3.141 19.903,7.000 C19.903,10.859 16.777,14.000 12.934,14.000 ZM12.934,2.000 C10.191,2.000 7.960,4.243 7.960,7.000 C7.960,9.757 10.191,12.000 12.934,12.000 C15.679,12.000 17.912,9.757 17.912,7.000 C17.912,4.243 15.679,2.000 12.934,2.000 Z" class="cls-1"/>
</svg>
