<svg xmlns="http://www.w3.org/2000/svg" xmlns:xlink="http://www.w3.org/1999/xlink" preserveAspectRatio="xMidYMid" width="48" height="48" viewBox="0 0 24 24">
  <defs>
    <style>
      .cls-1 {
        fill: #1b1b1b;
        fill-rule: evenodd;
      }
    </style>
  </defs>
  <path d="M22.267,24.000 L1.733,24.000 C0.777,24.000 0.000,23.222 0.000,22.266 L0.000,20.799 C0.000,20.448 0.185,20.122 0.485,19.942 L7.355,15.819 C5.030,13.219 5.000,9.728 5.000,9.563 L5.003,5.282 C5.003,5.224 5.008,5.166 5.019,5.108 C5.561,2.052 9.066,-0.000 12.000,-0.000 C12.001,-0.000 12.003,-0.000 12.005,-0.000 C14.936,-0.000 18.439,2.051 18.981,5.106 C18.992,5.164 18.997,5.222 18.997,5.280 L19.000,9.561 C19.000,9.727 18.970,13.219 16.645,15.818 L23.515,19.940 C23.815,20.120 24.000,20.446 24.000,20.797 L24.000,22.266 C24.000,23.222 23.223,24.000 22.267,24.000 ZM22.000,21.365 L14.484,16.854 C14.397,16.802 14.333,16.729 14.268,16.657 C14.250,16.637 14.225,16.630 14.208,16.608 C14.205,16.605 14.205,16.600 14.203,16.597 C14.147,16.524 14.116,16.439 14.083,16.355 C14.068,16.317 14.041,16.284 14.032,16.245 C14.015,16.182 14.022,16.115 14.019,16.049 C14.016,15.987 14.001,15.925 14.009,15.864 C14.015,15.822 14.038,15.783 14.049,15.741 C14.072,15.657 14.092,15.571 14.137,15.494 C14.140,15.490 14.139,15.486 14.142,15.482 C14.174,15.428 14.224,15.393 14.264,15.348 C14.306,15.300 14.336,15.245 14.388,15.205 C16.975,13.207 17.000,9.599 17.000,9.563 L16.997,5.376 C16.622,3.598 14.269,1.998 12.000,1.998 C9.731,1.999 7.378,3.601 7.003,5.378 L7.000,9.564 C7.000,9.598 7.046,13.223 9.612,15.205 C9.664,15.246 9.694,15.301 9.736,15.348 C9.777,15.394 9.826,15.428 9.858,15.482 C9.861,15.486 9.860,15.490 9.863,15.494 C9.908,15.572 9.928,15.657 9.951,15.742 C9.962,15.783 9.985,15.822 9.991,15.864 C9.999,15.926 9.984,15.988 9.981,16.050 C9.977,16.116 9.985,16.182 9.968,16.245 C9.959,16.284 9.932,16.317 9.917,16.355 C9.884,16.439 9.853,16.524 9.797,16.597 C9.795,16.600 9.795,16.605 9.792,16.608 C9.756,16.655 9.705,16.681 9.663,16.720 C9.614,16.765 9.575,16.818 9.516,16.854 L2.000,21.365 L2.000,22.000 L22.000,22.000 L22.000,21.365 Z" class="cls-1"/>
</svg>
