<svg xmlns="http://www.w3.org/2000/svg" xmlns:xlink="http://www.w3.org/1999/xlink" preserveAspectRatio="xMidYMid" width="44" height="48" viewBox="0 0 22 24">
  <defs>
    <style>
      .cls-1 {
        fill: #1b1b1b;
        fill-rule: evenodd;
      }
    </style>
  </defs>
  <path d="M17.118,20.350 C16.662,20.662 16.040,20.544 15.728,20.087 C15.417,19.631 15.535,19.008 15.991,18.697 C18.427,17.037 20.000,14.017 20.000,11.004 C20.000,6.040 15.963,2.001 11.000,2.001 C6.037,2.001 2.000,6.040 2.000,11.004 C2.000,15.765 5.717,19.664 10.399,19.976 L8.980,17.494 C8.705,17.015 8.872,16.404 9.352,16.129 C9.831,15.856 10.442,16.022 10.716,16.501 L12.868,20.264 C13.001,20.496 13.035,20.771 12.964,21.028 C12.893,21.285 12.721,21.503 12.488,21.634 L8.488,23.872 C8.334,23.959 8.166,24.000 8.001,24.000 C7.650,24.000 7.310,23.816 7.127,23.488 C6.857,23.006 7.029,22.396 7.512,22.127 L8.334,21.666 C3.555,20.470 0.000,16.150 0.000,11.004 C0.000,4.936 4.935,0.000 11.000,0.000 C17.065,0.000 22.000,4.936 22.000,11.004 C22.000,14.659 20.084,18.328 17.118,20.350 Z" class="cls-1"/>
</svg>
