<svg xmlns="http://www.w3.org/2000/svg" xmlns:xlink="http://www.w3.org/1999/xlink" preserveAspectRatio="xMidYMid" width="40" height="47.688" viewBox="0 0 20 23.844">
  <defs>
    <style>
      .cls-1 {
        fill: #1b1b1b;
        fill-rule: evenodd;
      }
    </style>
  </defs>
  <path d="M17.000,23.848 L3.000,23.848 C1.346,23.848 0.000,22.512 0.000,20.869 L0.000,10.939 C0.000,9.296 1.346,7.960 3.000,7.960 L4.358,7.960 C3.255,4.893 4.856,1.495 7.947,0.377 C9.451,-0.166 11.078,-0.095 12.527,0.575 C13.978,1.247 15.077,2.439 15.623,3.931 L15.911,4.586 C16.131,5.089 15.898,5.674 15.393,5.892 C14.884,6.111 14.296,5.880 14.077,5.377 L13.767,4.666 C13.380,3.616 12.647,2.823 11.682,2.376 C10.718,1.929 9.634,1.881 8.631,2.243 C6.564,2.990 5.495,5.268 6.248,7.321 L6.479,7.960 L17.000,7.960 C18.654,7.960 20.000,9.296 20.000,10.939 L20.000,20.869 C20.000,22.512 18.654,23.848 17.000,23.848 ZM18.000,10.939 C18.000,10.391 17.552,9.875 17.000,9.875 L6.135,9.875 C6.127,9.878 6.122,9.885 6.113,9.888 C6.001,9.928 5.888,9.946 5.775,9.946 C5.653,9.946 5.536,9.917 5.424,9.875 L3.000,9.875 C2.448,9.875 2.000,10.391 2.000,10.939 L2.000,20.869 C2.000,21.417 2.448,21.862 3.000,21.862 L17.000,21.862 C17.552,21.862 18.000,21.417 18.000,20.869 L18.000,10.939 ZM11.000,15.628 L11.000,17.890 C11.000,18.439 10.553,18.883 10.000,18.883 C9.447,18.883 9.000,18.439 9.000,17.890 L9.000,15.628 C8.405,15.283 8.000,14.650 8.000,13.918 C8.000,12.823 8.898,11.932 10.000,11.932 C11.102,11.932 12.000,12.823 12.000,13.918 C12.000,14.650 11.595,15.283 11.000,15.628 Z" class="cls-1"/>
</svg>
