<svg xmlns="http://www.w3.org/2000/svg" xmlns:xlink="http://www.w3.org/1999/xlink" preserveAspectRatio="xMidYMid" width="48" height="33.876" viewBox="0 0 24 16.938">
  <defs>
    <style>
      .cls-1 {
        fill: #1b1b1b;
        fill-rule: evenodd;
      }
    </style>
  </defs>
  <path d="M23.472,16.821 C23.324,16.900 23.162,16.939 23.000,16.939 C22.806,16.939 22.612,16.883 22.445,16.772 L18.000,13.817 L18.000,14.945 C18.000,16.045 17.102,16.939 16.000,16.939 L2.000,16.939 C0.897,16.939 0.000,16.045 0.000,14.945 L0.000,1.982 C0.000,0.883 0.897,-0.012 2.000,-0.012 L16.000,-0.012 C17.102,-0.012 18.000,0.883 18.000,1.982 L18.000,3.111 L22.445,0.156 C22.751,-0.048 23.148,-0.067 23.472,0.106 C23.797,0.280 24.000,0.618 24.000,0.985 L24.000,15.942 C24.000,16.310 23.797,16.647 23.472,16.821 ZM22.000,2.849 L17.555,5.803 C17.529,5.820 17.499,5.823 17.472,5.837 C17.412,5.870 17.350,5.894 17.282,5.914 C17.218,5.933 17.156,5.947 17.090,5.953 C17.059,5.956 17.032,5.971 17.000,5.971 C16.966,5.971 16.938,5.955 16.905,5.952 C16.836,5.945 16.772,5.932 16.706,5.912 C16.645,5.893 16.590,5.871 16.535,5.842 C16.479,5.812 16.428,5.777 16.378,5.736 C16.325,5.693 16.279,5.647 16.236,5.594 C16.215,5.569 16.186,5.555 16.168,5.527 C16.151,5.501 16.148,5.471 16.134,5.444 C16.101,5.384 16.078,5.324 16.058,5.259 C16.038,5.193 16.024,5.129 16.018,5.062 C16.015,5.031 16.000,5.005 16.000,4.974 L16.000,1.938 L2.000,1.938 L2.000,14.945 L16.000,14.945 L16.000,11.954 C16.000,11.922 16.015,11.896 16.018,11.866 C16.024,11.798 16.038,11.735 16.058,11.669 C16.078,11.603 16.101,11.543 16.134,11.484 C16.148,11.457 16.151,11.426 16.168,11.400 C16.186,11.373 16.215,11.358 16.236,11.333 C16.279,11.280 16.324,11.235 16.377,11.192 C16.428,11.150 16.479,11.115 16.537,11.084 C16.590,11.056 16.644,11.035 16.703,11.016 C16.771,10.995 16.837,10.981 16.909,10.975 C16.940,10.972 16.968,10.956 17.000,10.956 C17.031,10.956 17.057,10.971 17.087,10.974 C17.155,10.980 17.218,10.994 17.285,11.014 C17.351,11.034 17.412,11.057 17.471,11.090 C17.498,11.105 17.529,11.107 17.555,11.124 L22.000,14.079 L22.000,2.849 Z" class="cls-1"/>
</svg>
