<svg xmlns="http://www.w3.org/2000/svg" xmlns:xlink="http://www.w3.org/1999/xlink" preserveAspectRatio="xMidYMid" width="24" height="24" viewBox="0 0 24 24">
  <defs>
    <style>
      .cls-1 {
        fill: #1b1b1b;
        fill-rule: evenodd;
      }
    </style>
  </defs>
  <path d="M12.000,24.000 C5.383,24.000 0.000,18.617 0.000,12.000 C0.000,5.383 5.383,0.000 12.000,0.000 C18.617,0.000 24.000,5.383 24.000,12.000 C24.000,18.617 18.617,24.000 12.000,24.000 ZM12.000,2.000 C6.486,2.000 2.000,6.486 2.000,12.000 C2.000,17.514 6.486,22.000 12.000,22.000 C17.514,22.000 22.000,17.514 22.000,12.000 C22.000,6.486 17.514,2.000 12.000,2.000 ZM16.707,16.707 C16.512,16.902 16.256,17.000 16.000,17.000 C15.744,17.000 15.488,16.902 15.293,16.707 L12.000,13.414 L8.707,16.707 C8.512,16.902 8.256,17.000 8.000,17.000 C7.744,17.000 7.488,16.902 7.293,16.707 C6.902,16.316 6.902,15.684 7.293,15.293 L10.586,12.000 L7.293,8.707 C6.902,8.316 6.902,7.684 7.293,7.293 C7.684,6.902 8.316,6.902 8.707,7.293 L12.000,10.586 L15.293,7.293 C15.684,6.902 16.316,6.902 16.707,7.293 C17.098,7.684 17.098,8.316 16.707,8.707 L13.414,12.000 L16.707,15.293 C17.098,15.684 17.098,16.316 16.707,16.707 Z" class="cls-1"/>
</svg>
