<svg xmlns="http://www.w3.org/2000/svg" xmlns:xlink="http://www.w3.org/1999/xlink" preserveAspectRatio="xMidYMid" width="24" height="19" viewBox="0 0 24 19">
  <defs>
    <style>
      .cls-1 {
        fill: #1b1b1b;
        fill-rule: evenodd;
      }
    </style>
  </defs>
  <path d="M18.625,17.000 L15.999,17.000 C15.446,17.000 14.999,16.552 14.999,16.000 C14.999,15.448 15.446,15.000 15.999,15.000 L18.625,15.000 C20.302,15.000 22.000,13.689 22.000,11.182 C22.000,8.525 19.816,6.363 17.133,6.363 C17.045,6.363 16.957,6.369 16.870,6.378 C16.417,6.435 15.972,6.157 15.817,5.718 C15.031,3.494 12.907,2.000 10.533,2.000 C7.446,2.000 4.934,4.488 4.934,7.546 C4.934,7.801 4.956,8.060 5.001,8.338 C5.080,8.824 4.793,9.295 4.325,9.448 C2.935,9.904 2.000,11.186 2.000,12.637 C2.000,14.830 4.296,15.000 5.000,15.000 L8.000,15.000 C8.552,15.000 9.000,15.448 9.000,16.000 C9.000,16.552 8.552,17.000 8.000,17.000 L5.000,17.000 C2.009,17.000 0.000,15.247 0.000,12.637 C0.000,10.595 1.154,8.766 2.941,7.862 C2.936,7.756 2.934,7.651 2.934,7.546 C2.934,3.385 6.343,-0.000 10.533,-0.000 C13.505,-0.000 16.188,1.728 17.423,4.369 C21.075,4.521 24.000,7.519 24.000,11.182 C24.000,14.499 21.689,17.000 18.625,17.000 ZM8.293,11.293 L11.293,8.293 C11.385,8.201 11.495,8.128 11.618,8.077 C11.862,7.976 12.138,7.976 12.382,8.077 C12.505,8.128 12.615,8.201 12.707,8.293 L15.707,11.293 C16.098,11.684 16.098,12.316 15.707,12.707 C15.512,12.902 15.256,13.000 15.000,13.000 C14.744,13.000 14.488,12.902 14.293,12.707 L13.000,11.414 L13.000,18.000 C13.000,18.552 12.552,19.000 12.000,19.000 C11.448,19.000 11.000,18.552 11.000,18.000 L11.000,11.414 L9.707,12.707 C9.316,13.098 8.684,13.098 8.293,12.707 C7.902,12.316 7.902,11.684 8.293,11.293 Z" class="cls-1"/>
</svg>
