<svg xmlns="http://www.w3.org/2000/svg" xmlns:xlink="http://www.w3.org/1999/xlink" preserveAspectRatio="xMidYMid" width="24" height="18" viewBox="0 0 24 18">
  <defs>
    <style>
      .cls-1 {
        fill: #1b1b1b;
        fill-rule: evenodd;
      }
    </style>
  </defs>
  <path d="M21.000,18.000 L3.000,18.000 C1.346,18.000 0.000,16.654 0.000,15.000 L0.000,3.000 C0.000,1.346 1.346,-0.000 3.000,-0.000 L21.000,-0.000 C22.654,-0.000 24.000,1.346 24.000,3.000 L24.000,15.000 C24.000,16.654 22.654,18.000 21.000,18.000 ZM3.000,16.000 L21.000,16.000 C21.551,16.000 22.000,15.552 22.000,15.000 L22.000,3.203 L12.628,10.777 C12.445,10.926 12.223,11.000 12.000,11.000 C11.777,11.000 11.555,10.926 11.372,10.777 L2.000,3.203 L2.000,15.000 C2.000,15.552 2.449,16.000 3.000,16.000 ZM20.308,2.000 L3.692,2.000 L12.000,8.714 L20.308,2.000 Z" class="cls-1"/>
</svg>
