<svg xmlns="http://www.w3.org/2000/svg" xmlns:xlink="http://www.w3.org/1999/xlink" preserveAspectRatio="xMidYMid" width="24" height="24" viewBox="0 0 24 24">
  <defs>
    <style>
      .cls-1 {
        fill: #1b1b1b;
        fill-rule: evenodd;
      }
    </style>
  </defs>
  <path d="M22.267,24.000 L1.733,24.000 C0.777,24.000 0.000,23.223 0.000,22.268 L0.000,20.801 C0.000,20.436 0.200,20.099 0.522,19.923 L7.199,16.281 L3.645,14.934 C3.298,14.802 3.052,14.488 3.007,14.118 C2.963,13.748 3.127,13.385 3.435,13.174 C4.987,12.108 5.777,7.678 5.909,5.135 C5.912,5.094 5.916,5.053 5.924,5.013 C6.436,2.108 8.992,-0.000 12.000,-0.000 C15.008,-0.000 17.564,2.108 18.076,5.013 C18.084,5.053 18.088,5.094 18.091,5.135 C18.223,7.678 19.013,12.108 20.565,13.174 C20.872,13.385 21.037,13.748 20.993,14.118 C20.949,14.487 20.703,14.801 20.356,14.933 L16.878,16.257 L23.485,19.927 C23.803,20.103 24.000,20.438 24.000,20.801 L24.000,22.268 C24.000,23.223 23.223,24.000 22.267,24.000 ZM22.000,21.390 L15.227,17.627 C15.226,17.626 15.226,17.626 15.226,17.626 C14.917,17.461 14.016,16.909 14.016,16.069 C14.016,15.380 14.609,14.810 15.475,14.651 L18.263,13.590 C16.491,10.948 16.146,6.174 16.097,5.305 C15.729,3.386 14.017,2.000 12.000,2.000 C9.983,2.000 8.271,3.386 7.903,5.305 C7.854,6.174 7.509,10.946 5.738,13.588 L8.544,14.652 C9.173,14.776 10.000,15.207 10.000,15.999 C10.000,16.690 9.642,17.223 8.903,17.629 C8.903,17.629 8.903,17.629 8.902,17.629 C8.902,17.629 8.901,17.630 8.900,17.631 L2.000,21.395 L2.000,22.000 L22.000,22.000 L22.000,21.390 Z" class="cls-1"/>
</svg>
