<svg xmlns="http://www.w3.org/2000/svg" xmlns:xlink="http://www.w3.org/1999/xlink" preserveAspectRatio="xMidYMid" width="23.781" height="22" viewBox="0 0 23.781 22">
  <defs>
    <style>
      .cls-1 {
        fill: #1b1b1b;
        fill-rule: evenodd;
      }
    </style>
  </defs>
  <path d="M21.975,11.084 C21.969,11.091 21.969,11.100 21.963,11.107 L13.980,21.016 C13.417,21.654 12.666,22.000 11.892,22.000 C11.117,22.000 10.367,21.654 9.833,21.051 L1.822,11.107 C1.816,11.100 1.815,11.090 1.809,11.083 C-0.607,8.522 -0.588,4.443 1.887,1.921 C3.104,0.682 4.723,0.000 6.444,0.000 L6.445,0.000 C8.130,0.000 9.711,0.662 10.919,1.852 C10.925,1.858 10.934,1.859 10.941,1.864 L11.888,2.681 L12.848,1.861 C12.855,1.855 12.864,1.854 12.871,1.848 C14.079,0.660 15.658,0.000 17.342,0.000 L17.342,0.000 C19.064,0.000 20.682,0.683 21.898,1.921 C24.372,4.443 24.391,8.524 21.975,11.084 ZM20.490,3.328 C19.649,2.472 18.531,2.000 17.342,2.000 L17.342,2.000 C16.152,2.000 15.033,2.472 14.191,3.329 C14.181,3.340 14.166,3.343 14.156,3.353 C14.144,3.364 14.140,3.378 14.128,3.389 L12.532,4.752 C12.503,4.777 12.468,4.786 12.437,4.807 C12.371,4.853 12.307,4.898 12.233,4.926 C12.213,4.933 12.193,4.933 12.173,4.939 C12.080,4.967 11.988,5.000 11.891,5.000 C11.752,5.000 11.616,4.960 11.486,4.900 C11.482,4.898 11.478,4.895 11.475,4.893 C11.396,4.856 11.318,4.820 11.249,4.761 L9.654,3.386 C9.643,3.376 9.639,3.362 9.628,3.353 C9.618,3.343 9.604,3.340 9.593,3.329 C8.752,2.472 7.634,2.000 6.445,2.000 L6.444,2.000 C5.255,2.000 4.136,2.472 3.294,3.329 C1.552,5.104 1.552,7.995 3.295,9.773 C3.307,9.786 3.310,9.802 3.322,9.814 C3.333,9.827 3.349,9.832 3.359,9.846 L11.341,19.754 C11.601,20.046 12.151,20.082 12.472,19.719 L20.426,9.846 C20.436,9.832 20.452,9.827 20.463,9.815 C20.474,9.802 20.478,9.786 20.490,9.773 C22.232,7.995 22.232,5.104 20.490,3.328 Z" class="cls-1"/>
</svg>
