<svg xmlns="http://www.w3.org/2000/svg" xmlns:xlink="http://www.w3.org/1999/xlink" preserveAspectRatio="xMidYMid" width="24" height="20" viewBox="0 0 24 20">
  <defs>
    <style>
      .cls-1 {
        fill: #1b1b1b;
        fill-rule: evenodd;
      }
    </style>
  </defs>
  <path d="M21.000,20.000 L3.000,20.000 C1.346,20.000 0.000,18.654 0.000,17.000 L0.000,6.000 C0.000,4.346 1.346,3.000 3.000,3.000 L5.399,3.000 L6.713,0.530 C6.886,0.204 7.226,0.000 7.596,0.000 L16.404,0.000 C16.774,0.000 17.114,0.204 17.287,0.530 L18.601,3.000 L21.000,3.000 C22.654,3.000 24.000,4.346 24.000,6.000 L24.000,17.000 C24.000,18.654 22.654,20.000 21.000,20.000 ZM22.000,6.000 C22.000,5.449 21.551,5.000 21.000,5.000 L18.000,5.000 C17.832,5.000 17.681,4.948 17.542,4.875 C17.504,4.855 17.474,4.830 17.438,4.805 C17.330,4.729 17.241,4.637 17.170,4.525 C17.156,4.503 17.130,4.494 17.117,4.470 L15.804,2.000 L8.196,2.000 L6.883,4.470 C6.860,4.512 6.823,4.538 6.795,4.576 C6.754,4.633 6.716,4.689 6.664,4.736 C6.615,4.780 6.561,4.810 6.506,4.843 C6.451,4.876 6.400,4.909 6.339,4.932 C6.273,4.955 6.206,4.963 6.137,4.972 C6.090,4.979 6.049,5.000 6.000,5.000 L3.000,5.000 C2.449,5.000 2.000,5.449 2.000,6.000 L2.000,17.000 C2.000,17.551 2.449,18.000 3.000,18.000 L21.000,18.000 C21.551,18.000 22.000,17.551 22.000,17.000 L22.000,6.000 ZM12.000,16.000 C8.967,16.000 6.500,13.533 6.500,10.501 C6.500,7.468 8.967,5.001 12.000,5.001 C15.033,5.001 17.500,7.468 17.500,10.501 C17.500,13.533 15.033,16.000 12.000,16.000 ZM12.000,7.001 C10.070,7.001 8.500,8.571 8.500,10.501 C8.500,12.430 10.070,14.000 12.000,14.000 C13.930,14.000 15.500,12.430 15.500,10.501 C15.500,8.571 13.930,7.001 12.000,7.001 Z" class="cls-1"/>
</svg>
