<svg xmlns="http://www.w3.org/2000/svg" xmlns:xlink="http://www.w3.org/1999/xlink" preserveAspectRatio="xMidYMid" width="47.812" height="48" viewBox="0 0 23.906 24">
  <defs>
    <style>
      .cls-1 {
        fill: #1b1b1b;
        fill-rule: evenodd;
      }
    </style>
  </defs>
  <path d="M14.441,19.000 C12.190,19.000 10.122,18.204 8.496,16.882 L5.887,19.500 L8.670,22.293 C9.059,22.684 9.059,23.316 8.670,23.707 C8.475,23.902 8.220,24.000 7.965,24.000 C7.710,24.000 7.456,23.902 7.261,23.707 L4.478,20.914 L1.696,23.707 C1.501,23.902 1.247,24.000 0.992,24.000 C0.737,24.000 0.482,23.902 0.287,23.707 C-0.102,23.316 -0.102,22.684 0.287,22.293 L3.070,19.500 L0.287,16.707 C-0.102,16.316 -0.102,15.684 0.287,15.293 C0.676,14.902 1.307,14.902 1.696,15.293 L4.478,18.086 L7.087,15.468 C5.770,13.835 4.977,11.760 4.977,9.500 C4.977,4.262 9.222,0.000 14.441,0.000 C19.660,0.000 23.905,4.262 23.905,9.500 C23.905,14.738 19.660,19.000 14.441,19.000 ZM14.441,2.000 C10.321,2.000 6.969,5.364 6.969,9.500 C6.969,13.636 10.321,17.000 14.441,17.000 C18.561,17.000 21.913,13.636 21.913,9.500 C21.913,5.364 18.561,2.000 14.441,2.000 Z" class="cls-1"/>
</svg>
