<svg xmlns="http://www.w3.org/2000/svg" xmlns:xlink="http://www.w3.org/1999/xlink" preserveAspectRatio="xMidYMid" width="44" height="48" viewBox="0 0 22 24">
  <defs>
    <style>
      .cls-1 {
        fill: #1b1b1b;
        fill-rule: evenodd;
      }
    </style>
  </defs>
  <path d="M11.000,24.000 C4.935,24.000 0.000,19.185 0.000,13.266 C0.000,8.596 3.095,4.489 7.701,3.046 C8.229,2.878 8.789,3.174 8.954,3.701 C9.119,4.228 8.826,4.789 8.299,4.954 C4.590,6.117 2.000,9.534 2.000,13.266 C2.000,18.081 6.037,22.000 11.000,22.000 C15.963,22.000 20.000,18.081 20.000,13.266 C20.000,9.534 17.410,6.117 13.701,4.954 C13.174,4.789 12.881,4.228 13.046,3.701 C13.211,3.174 13.769,2.877 14.299,3.046 C18.905,4.489 22.000,8.596 22.000,13.266 C22.000,19.185 17.065,24.000 11.000,24.000 ZM11.000,8.000 C10.447,8.000 10.000,7.552 10.000,7.000 L10.000,1.000 C10.000,0.448 10.447,0.000 11.000,0.000 C11.553,0.000 12.000,0.448 12.000,1.000 L12.000,7.000 C12.000,7.552 11.553,8.000 11.000,8.000 Z" class="cls-1"/>
</svg>
