<svg xmlns="http://www.w3.org/2000/svg" xmlns:xlink="http://www.w3.org/1999/xlink" preserveAspectRatio="xMidYMid" width="47.812" height="48" viewBox="0 0 23.906 24">
  <defs>
    <style>
      .cls-1 {
        fill: #1b1b1b;
        fill-rule: evenodd;
      }
    </style>
  </defs>
  <path d="M23.607,23.707 C23.413,23.902 23.158,24.000 22.903,24.000 C22.648,24.000 22.393,23.902 22.199,23.707 L14.545,16.025 C13.011,17.258 11.069,18.000 8.955,18.000 C4.011,18.000 -0.011,13.962 -0.011,9.000 C-0.011,4.038 4.011,-0.000 8.955,-0.000 C13.900,-0.000 17.922,4.038 17.922,9.000 C17.922,11.122 17.182,13.071 15.954,14.611 L23.607,22.293 C23.997,22.684 23.997,23.316 23.607,23.707 ZM8.955,2.000 C5.110,2.000 1.982,5.140 1.982,9.000 C1.982,12.860 5.110,16.000 8.955,16.000 C12.800,16.000 15.929,12.860 15.929,9.000 C15.929,5.140 12.800,2.000 8.955,2.000 ZM12.940,10.000 L9.952,10.000 L9.952,13.000 C9.952,13.552 9.506,14.000 8.955,14.000 C8.405,14.000 8.000,13.552 8.000,13.000 L8.000,10.000 L4.970,10.000 C4.420,10.000 3.974,9.552 3.974,9.000 C3.974,8.448 4.420,8.000 4.970,8.000 L8.000,8.000 L8.000,5.000 C8.000,4.448 8.405,4.000 8.955,4.000 C9.506,4.000 9.952,4.448 9.952,5.000 L9.952,8.000 L12.940,8.000 C13.491,8.000 13.937,8.448 13.937,9.000 C13.937,9.552 13.491,10.000 12.940,10.000 Z" class="cls-1"/>
</svg>
