<svg xmlns="http://www.w3.org/2000/svg" xmlns:xlink="http://www.w3.org/1999/xlink" preserveAspectRatio="xMidYMid" width="72" height="57" viewBox="0 0 48 38">
  <defs>
    <style>
      .cls-1 {
        fill: #1b1b1b;
        fill-rule: evenodd;
      }
    </style>
  </defs>
  <path d="M45.000,37.999 L3.000,37.999 C1.346,37.999 0.000,36.657 0.000,35.008 L0.000,3.106 C0.000,1.457 1.346,0.000 3.000,0.000 L18.000,0.000 C18.342,0.000 18.579,0.226 18.720,0.521 L24.233,5.000 L45.000,5.000 C46.654,5.000 48.000,6.442 48.000,8.091 L48.000,35.008 C48.000,36.657 46.654,37.999 45.000,37.999 ZM46.000,8.091 C46.000,7.541 45.551,7.000 45.000,7.000 L24.424,7.000 C24.290,7.062 24.145,7.094 24.000,7.094 C23.777,7.094 23.554,7.021 23.368,6.870 L17.374,2.000 L3.000,2.000 C2.449,2.000 2.000,2.557 2.000,3.106 L2.000,35.008 C2.000,35.558 2.449,36.005 3.000,36.005 L45.000,36.005 C45.551,36.005 46.000,35.558 46.000,35.008 L46.000,8.091 Z" class="cls-1"/>
</svg>
