<svg xmlns="http://www.w3.org/2000/svg" xmlns:xlink="http://www.w3.org/1999/xlink" preserveAspectRatio="xMidYMid" width="59.906" height="60" viewBox="0 0 59.906 60">
  <defs>
    <style>
      .cls-1 {
        fill: #1b1b1b;
        fill-rule: evenodd;
      }
    </style>
  </defs>
  <path d="M35.945,47.998 C29.698,47.998 24.020,45.572 19.750,41.636 L11.399,50.000 L19.679,58.293 C20.069,58.684 20.069,59.316 19.679,59.707 C19.484,59.902 19.228,60.000 18.973,60.000 C18.717,60.000 18.462,59.902 18.267,59.707 L9.987,51.414 L1.706,59.707 C1.511,59.902 1.256,60.000 1.000,60.000 C0.745,60.000 0.489,59.902 0.294,59.707 C-0.096,59.316 -0.096,58.684 0.294,58.293 L8.575,50.000 L0.294,41.707 C-0.096,41.316 -0.096,40.684 0.294,40.293 C0.684,39.902 1.316,39.902 1.706,40.293 L9.987,48.586 L18.338,40.222 C14.407,35.946 11.983,30.258 11.983,24.000 C11.983,10.767 22.732,0.000 35.945,0.000 C49.158,0.000 59.907,10.767 59.907,24.000 C59.907,37.232 49.158,47.998 35.945,47.998 ZM35.945,2.000 C23.833,2.000 13.980,11.869 13.980,24.000 C13.980,36.130 23.833,45.998 35.945,45.998 C48.057,45.998 57.910,36.130 57.910,24.000 C57.910,11.869 48.057,2.000 35.945,2.000 Z" class="cls-1"/>
</svg>
