<svg xmlns="http://www.w3.org/2000/svg" xmlns:xlink="http://www.w3.org/1999/xlink" preserveAspectRatio="xMidYMid" width="60" height="60" viewBox="0 0 60 60">
  <defs>
    <style>
      .cls-1 {
        fill: #1b1b1b;
        fill-rule: evenodd;
      }
    </style>
  </defs>
  <path d="M57.066,60.000 L2.934,60.000 C1.316,60.000 0.000,58.684 0.000,57.067 L0.000,53.201 C0.000,52.835 0.200,52.498 0.521,52.323 L20.088,41.649 C20.826,41.246 21.292,40.957 21.587,40.753 C21.212,40.604 20.704,40.455 20.211,40.384 L8.855,38.726 C8.451,38.667 8.124,38.369 8.028,37.972 C7.932,37.576 8.087,37.160 8.419,36.923 C14.699,32.439 14.998,13.179 15.000,12.986 C15.000,12.958 15.014,12.934 15.017,12.907 C15.019,12.879 15.010,12.853 15.015,12.825 C16.294,5.513 22.736,-0.000 30.000,-0.000 C37.424,-0.000 43.727,5.224 44.985,12.421 C44.990,12.449 44.981,12.475 44.983,12.503 C44.986,12.530 45.000,12.553 45.000,12.581 C45.002,12.780 45.306,32.442 51.581,36.923 C51.913,37.160 52.068,37.576 51.972,37.972 C51.876,38.369 51.549,38.667 51.145,38.726 L39.792,40.384 C39.297,40.454 38.787,40.605 38.412,40.753 C38.706,40.958 39.171,41.247 39.908,41.650 L59.478,52.323 C59.800,52.498 60.000,52.835 60.000,53.201 L60.000,57.067 C60.000,58.684 58.684,60.000 57.066,60.000 ZM58.000,53.794 L38.949,43.405 C36.993,42.335 36.000,41.613 36.000,40.637 C36.000,38.954 39.147,38.456 39.506,38.405 L48.825,37.044 C43.420,30.543 43.027,14.283 43.001,12.706 C41.886,6.499 36.429,1.999 30.000,1.999 C23.714,1.999 18.136,6.772 16.999,13.110 C16.973,14.669 16.577,30.594 11.180,37.045 L20.497,38.405 C20.852,38.456 24.000,38.954 24.000,40.637 C24.000,41.609 22.962,42.359 21.045,43.405 L2.000,53.794 L2.000,57.067 C2.000,57.582 2.419,58.001 2.934,58.001 L57.066,58.001 C57.572,58.001 58.000,57.573 58.000,57.067 L58.000,53.794 Z" class="cls-1"/>
</svg>
