<svg xmlns="http://www.w3.org/2000/svg" xmlns:xlink="http://www.w3.org/1999/xlink" preserveAspectRatio="xMidYMid" width="44" height="60" viewBox="0 0 44 60">
  <defs>
    <style>
      .cls-1 {
        fill: #1b1b1b;
        fill-rule: evenodd;
      }
    </style>
  </defs>
  <path d="M33.294,48.217 C28.042,55.083 22.871,59.569 22.653,59.757 C22.466,59.919 22.232,60.000 22.000,60.000 C21.768,60.000 21.534,59.919 21.347,59.757 C21.129,59.569 15.958,55.083 10.706,48.217 C5.822,41.832 0.000,32.138 0.000,22.207 C0.000,9.962 9.869,0.000 22.000,0.000 C34.131,0.000 44.000,9.962 44.000,22.207 C44.000,32.138 38.178,41.832 33.294,48.217 ZM22.000,2.000 C10.972,2.000 2.000,11.065 2.000,22.207 C2.000,38.383 18.483,54.419 22.000,57.654 C25.516,54.416 42.000,38.370 42.000,22.207 C42.000,11.065 33.028,2.000 22.000,2.000 ZM22.000,33.000 C15.935,33.000 11.000,28.065 11.000,22.000 C11.000,15.935 15.935,11.000 22.000,11.000 C28.065,11.000 33.000,15.935 33.000,22.000 C33.000,28.065 28.065,33.000 22.000,33.000 ZM22.000,13.000 C17.037,13.000 13.000,17.037 13.000,22.000 C13.000,26.963 17.037,31.000 22.000,31.000 C26.963,31.000 31.000,26.963 31.000,22.000 C31.000,17.037 26.963,13.000 22.000,13.000 Z" class="cls-1"/>
</svg>
