<svg xmlns="http://www.w3.org/2000/svg" xmlns:xlink="http://www.w3.org/1999/xlink" preserveAspectRatio="xMidYMid" width="36" height="36" viewBox="0 0 24 24">
  <defs>
    <style>
      .cls-1 {
        fill: #1b1b1b;
        fill-rule: evenodd;
      }
    </style>
  </defs>
  <path d="M12.000,24.000 C5.383,24.000 0.000,18.617 0.000,12.000 C0.000,5.383 5.383,-0.000 12.000,-0.000 C18.617,-0.000 24.000,5.383 24.000,12.000 C24.000,18.617 18.617,24.000 12.000,24.000 ZM12.000,2.000 C6.486,2.000 2.000,6.486 2.000,12.000 C2.000,17.514 6.486,22.000 12.000,22.000 C17.514,22.000 22.000,17.514 22.000,12.000 C22.000,6.486 17.514,2.000 12.000,2.000 ZM16.000,17.000 C15.744,17.000 15.488,16.902 15.293,16.707 L11.293,12.707 C11.201,12.615 11.128,12.505 11.077,12.382 C11.027,12.260 11.000,12.130 11.000,12.000 L11.000,5.000 C11.000,4.448 11.448,4.000 12.000,4.000 C12.552,4.000 13.000,4.448 13.000,5.000 L13.000,11.586 L16.707,15.293 C17.098,15.684 17.098,16.316 16.707,16.707 C16.512,16.902 16.256,17.000 16.000,17.000 Z" class="cls-1"/>
</svg>
