<svg xmlns="http://www.w3.org/2000/svg" xmlns:xlink="http://www.w3.org/1999/xlink" preserveAspectRatio="xMidYMid" width="27" height="35.907" viewBox="0 0 18 23.938">
  <defs>
    <style>
      .cls-1 {
        fill: #1b1b1b;
        fill-rule: evenodd;
      }
    </style>
  </defs>
  <path d="M18.001,7.987 C18.001,8.022 17.984,8.052 17.981,8.086 L17.981,21.944 C17.981,23.044 17.085,23.938 15.983,23.938 L1.997,23.938 C0.895,23.938 -0.001,23.044 -0.001,21.944 L-0.001,2.004 C-0.001,0.905 0.895,0.010 1.997,0.010 L9.989,0.010 C10.034,0.010 10.072,0.030 10.116,0.036 C10.161,0.042 10.201,0.050 10.245,0.062 C10.415,0.108 10.574,0.182 10.695,0.303 L17.579,7.174 C17.611,7.196 17.626,7.234 17.655,7.260 C17.685,7.287 17.707,7.318 17.733,7.349 C17.887,7.524 18.001,7.736 18.001,7.987 ZM1.997,21.944 L15.983,21.944 L15.983,8.938 L10.000,8.938 C9.448,8.938 8.990,8.538 8.990,7.987 L8.990,1.938 L2.000,1.938 L1.997,21.944 ZM10.988,3.415 L10.988,6.990 L14.570,6.990 L10.988,3.415 Z" class="cls-1"/>
</svg>
