<svg xmlns="http://www.w3.org/2000/svg" xmlns:xlink="http://www.w3.org/1999/xlink" preserveAspectRatio="xMidYMid" width="36" height="30" viewBox="0 0 24 20">
  <defs>
    <style>
      .cls-1 {
        fill: #1b1b1b;
        fill-rule: evenodd;
      }
    </style>
  </defs>
  <path d="M22.000,19.998 L2.000,19.998 C0.897,19.998 0.000,19.106 0.000,18.010 L0.000,2.111 C0.000,1.015 0.897,0.000 2.000,0.000 L9.000,0.000 C9.301,0.000 9.562,0.175 9.745,0.417 L12.303,2.111 L22.000,2.111 C23.103,2.111 24.000,3.003 24.000,4.099 L24.000,18.010 C24.000,19.106 23.103,19.998 22.000,19.998 ZM22.000,4.099 L12.000,4.099 C12.000,4.099 12.000,4.099 11.999,4.099 C11.999,4.099 11.999,4.099 11.999,4.099 C11.882,4.099 11.767,4.071 11.654,4.029 C11.619,4.016 11.587,3.999 11.554,3.983 C11.518,3.965 11.480,3.955 11.445,3.932 L8.529,2.000 L2.000,2.000 L2.000,18.010 L22.000,18.010 L22.000,4.099 Z" class="cls-1"/>
</svg>
