<svg xmlns="http://www.w3.org/2000/svg" xmlns:xlink="http://www.w3.org/1999/xlink" preserveAspectRatio="xMidYMid" width="35.859" height="35.907" viewBox="0 0 23.906 23.938">
  <defs>
    <style>
      .cls-1 {
        fill: #1b1b1b;
        fill-rule: evenodd;
      }
    </style>
  </defs>
  <path d="M23.815,0.633 C23.830,0.666 23.837,0.699 23.847,0.733 C23.872,0.813 23.886,0.893 23.890,0.976 C23.892,1.014 23.894,1.050 23.892,1.088 C23.886,1.175 23.866,1.261 23.837,1.346 C23.827,1.374 23.824,1.402 23.812,1.429 C23.808,1.437 23.808,1.445 23.805,1.453 L13.334,23.367 C13.168,23.714 12.819,23.934 12.436,23.934 C12.432,23.934 12.428,23.934 12.425,23.934 C12.037,23.929 11.687,23.700 11.528,23.346 L7.973,15.447 L0.526,11.325 C0.193,11.141 -0.005,10.784 0.013,10.404 C0.032,10.024 0.265,9.689 0.614,9.538 L22.513,0.108 C22.520,0.105 22.527,0.105 22.534,0.102 C22.558,0.093 22.583,0.091 22.608,0.083 C22.697,0.055 22.786,0.038 22.877,0.035 C22.915,0.034 22.949,0.038 22.986,0.041 C23.069,0.047 23.148,0.064 23.227,0.091 C23.262,0.103 23.295,0.113 23.329,0.128 C23.435,0.179 23.536,0.242 23.621,0.330 C23.621,0.330 23.622,0.330 23.622,0.331 C23.622,0.331 23.622,0.331 23.622,0.331 C23.623,0.331 23.624,0.332 23.624,0.332 C23.709,0.421 23.769,0.524 23.815,0.633 ZM12.463,20.572 L19.621,5.591 L9.940,14.966 L12.463,20.572 ZM8.582,13.508 L18.311,4.087 L3.266,10.565 L8.582,13.508 Z" class="cls-1"/>
</svg>
