<svg xmlns="http://www.w3.org/2000/svg" xmlns:xlink="http://www.w3.org/1999/xlink" preserveAspectRatio="xMidYMid" width="30" height="35.813" viewBox="0 0 20 23.875">
  <defs>
    <style>
      .cls-1 {
        fill: #1b1b1b;
        fill-rule: evenodd;
      }
    </style>
  </defs>
  <path d="M20.000,11.936 C20.000,16.492 17.043,20.565 12.810,21.839 C12.713,21.868 12.615,21.883 12.519,21.883 C12.090,21.883 11.693,21.605 11.563,21.176 C11.402,20.650 11.701,20.095 12.229,19.936 C15.627,18.913 18.000,15.623 18.000,11.936 C18.000,8.478 15.969,5.669 12.895,4.531 L13.894,6.518 C14.142,7.010 13.941,7.607 13.447,7.853 C13.304,7.924 13.151,7.958 13.001,7.958 C12.634,7.958 12.281,7.757 12.106,7.408 L10.106,3.430 C9.858,2.938 10.059,2.341 10.553,2.095 L14.553,0.106 C15.047,-0.139 15.647,0.059 15.894,0.551 C16.142,1.042 15.941,1.639 15.447,1.885 L13.773,2.718 C17.496,4.194 20.000,7.742 20.000,11.936 ZM9.447,21.777 L5.447,23.766 C5.304,23.838 5.151,23.871 5.001,23.871 C4.634,23.872 4.281,23.670 4.106,23.322 C3.858,22.830 4.059,22.233 4.553,21.987 L6.226,21.155 C2.503,19.680 0.000,16.132 0.000,11.936 C0.000,7.381 2.957,3.309 7.190,2.033 C7.721,1.872 8.277,2.171 8.437,2.696 C8.598,3.222 8.299,3.777 7.771,3.936 C4.373,4.961 2.000,8.250 2.000,11.936 C2.000,15.397 4.031,18.207 7.106,19.343 L6.106,17.354 C5.858,16.862 6.059,16.265 6.553,16.019 C7.046,15.774 7.647,15.973 7.895,16.464 L9.895,20.443 C10.142,20.934 9.941,21.532 9.447,21.777 Z" class="cls-1"/>
</svg>
