<svg xmlns="http://www.w3.org/2000/svg" xmlns:xlink="http://www.w3.org/1999/xlink" preserveAspectRatio="xMidYMid" width="36" height="32.907" viewBox="0 0 24 21.938">
  <defs>
    <style>
      .cls-1 {
        fill: #1b1b1b;
        fill-rule: evenodd;
      }
    </style>
  </defs>
  <path d="M18.314,18.891 C18.212,18.924 18.107,18.940 18.005,18.940 C17.583,18.940 17.189,18.672 17.052,18.251 C16.881,17.727 17.170,17.164 17.696,16.994 C20.267,16.165 21.994,13.742 21.994,10.967 C21.994,8.228 20.221,5.746 17.681,4.934 C17.154,4.765 16.865,4.203 17.034,3.680 C17.204,3.155 17.769,2.869 18.294,3.035 C21.706,4.127 23.998,7.314 23.998,10.967 C23.998,14.610 21.713,17.794 18.314,18.891 ZM20.042,10.967 C20.042,13.167 18.245,14.956 16.035,14.956 C15.481,14.956 15.034,14.510 15.034,13.959 C15.034,13.408 15.481,12.962 16.035,12.962 C17.140,12.962 18.038,12.067 18.038,10.967 C18.038,9.868 17.140,8.973 16.035,8.973 C15.481,8.973 15.034,8.527 15.034,7.976 C15.034,7.425 15.481,6.979 16.035,6.979 C18.245,6.979 20.042,8.768 20.042,10.967 ZM13.441,21.843 C13.307,21.905 13.164,21.935 13.022,21.935 C12.788,21.935 12.556,21.853 12.370,21.694 L5.641,15.953 L2.004,15.953 C0.899,15.953 0.001,15.058 0.001,13.959 L0.001,7.976 C0.001,6.877 0.899,5.982 2.004,5.982 L5.641,5.982 L12.370,0.241 C12.668,-0.015 13.086,-0.071 13.441,0.092 C13.796,0.254 14.024,0.608 14.024,0.997 L14.024,20.938 C14.024,21.327 13.796,21.681 13.441,21.843 ZM12.021,3.164 L6.663,7.736 C6.416,7.947 6.099,8.001 5.804,7.938 L2.000,7.938 L2.004,13.959 L6.011,13.959 C6.058,13.959 6.099,13.979 6.144,13.985 C6.217,13.995 6.287,14.002 6.357,14.028 C6.425,14.053 6.481,14.093 6.541,14.131 C6.581,14.157 6.626,14.168 6.663,14.199 L12.021,18.770 L12.021,3.164 Z" class="cls-1"/>
</svg>
