<svg xmlns="http://www.w3.org/2000/svg" xmlns:xlink="http://www.w3.org/1999/xlink" preserveAspectRatio="xMidYMid" width="35.859" height="32.907" viewBox="0 0 23.906 21.938">
  <defs>
    <style>
      .cls-1 {
        fill: #1b1b1b;
        fill-rule: evenodd;
      }
    </style>
  </defs>
  <path d="M21.324,10.968 L23.612,13.254 C24.002,13.643 24.002,14.274 23.612,14.664 C23.417,14.858 23.162,14.956 22.907,14.956 C22.651,14.956 22.396,14.858 22.201,14.664 L19.914,12.378 L17.626,14.664 C17.431,14.858 17.176,14.956 16.921,14.956 C16.666,14.956 16.411,14.858 16.216,14.664 C15.826,14.274 15.826,13.643 16.216,13.254 L18.503,10.968 L16.216,8.682 C15.826,8.292 15.826,7.661 16.216,7.272 C16.605,6.882 17.237,6.882 17.626,7.272 L19.914,9.558 L22.201,7.272 C22.591,6.882 23.222,6.882 23.612,7.272 C24.002,7.661 24.002,8.292 23.612,8.682 L21.324,10.968 ZM13.383,21.843 C13.249,21.905 13.107,21.935 12.966,21.935 C12.732,21.935 12.501,21.853 12.316,21.694 L5.614,15.953 L1.992,15.953 C0.892,15.953 -0.003,15.058 -0.003,13.959 L-0.003,7.977 C-0.003,6.878 0.892,5.983 1.992,5.983 L5.614,5.983 L12.316,0.241 C12.612,-0.013 13.029,-0.071 13.383,0.092 C13.736,0.255 13.963,0.608 13.963,0.998 L13.963,20.938 C13.963,21.327 13.736,21.681 13.383,21.843 ZM12.000,2.938 L6.632,7.736 C6.386,7.947 6.070,8.001 5.776,7.938 L2.000,7.938 L1.992,13.959 L5.982,13.959 C6.031,13.959 6.073,13.980 6.120,13.987 C6.190,13.996 6.258,14.003 6.326,14.028 C6.394,14.053 6.452,14.093 6.512,14.132 C6.551,14.157 6.596,14.168 6.632,14.199 L12.000,18.938 L12.000,2.938 Z" class="cls-1"/>
</svg>
