<svg xmlns="http://www.w3.org/2000/svg" xmlns:xlink="http://www.w3.org/1999/xlink" preserveAspectRatio="xMidYMid" width="96" height="96" viewBox="0 0 48 48">
  <defs>
    <style>
      .cls-1 {
        fill: #1b1b1b;
        fill-rule: evenodd;
      }
    </style>
  </defs>
  <path d="M24.000,48.000 C10.767,48.000 0.000,37.233 0.000,24.000 C0.000,10.767 10.767,0.000 24.000,0.000 C37.233,0.000 48.000,10.767 48.000,24.000 C48.000,37.233 37.233,48.000 24.000,48.000 ZM24.000,2.000 C11.869,2.000 2.000,11.869 2.000,24.000 C2.000,36.131 11.869,46.000 24.000,46.000 C36.131,46.000 46.000,36.131 46.000,24.000 C46.000,11.869 36.131,2.000 24.000,2.000 ZM32.001,34.000 C31.725,34.000 31.450,33.887 31.252,33.665 L23.252,24.665 C23.218,24.626 23.205,24.578 23.177,24.536 C23.139,24.476 23.097,24.421 23.071,24.354 C23.045,24.284 23.039,24.213 23.028,24.141 C23.021,24.093 23.000,24.050 23.000,24.000 L23.000,10.000 C23.000,9.448 23.448,9.000 24.000,9.000 C24.552,9.000 25.000,9.448 25.000,10.000 L25.000,23.619 L32.748,32.335 C33.114,32.749 33.077,33.380 32.665,33.748 C32.474,33.917 32.237,34.000 32.001,34.000 Z" class="cls-1"/>
</svg>
