<svg xmlns="http://www.w3.org/2000/svg" xmlns:xlink="http://www.w3.org/1999/xlink" preserveAspectRatio="xMidYMid" width="96" height="84" viewBox="0 0 48 42">
  <defs>
    <style>
      .cls-1 {
        fill: #1b1b1b;
        fill-rule: evenodd;
      }
    </style>
  </defs>
  <path d="M36.125,35.992 C36.082,35.998 36.041,36.000 35.999,36.000 C35.502,36.000 35.072,35.631 35.008,35.126 C34.938,34.577 35.327,34.077 35.874,34.008 C41.552,33.291 46.000,28.296 46.000,22.636 C46.000,16.370 40.945,11.272 34.732,11.272 C34.510,11.272 34.286,11.286 34.064,11.311 C33.591,11.362 33.160,11.087 33.007,10.646 C31.208,5.475 26.356,2.000 20.934,2.000 C13.875,2.000 8.133,7.791 8.133,14.909 C8.133,15.509 8.184,16.120 8.290,16.775 C8.368,17.259 8.084,17.728 7.618,17.883 C4.258,19.001 2.000,22.153 2.000,25.727 C2.000,30.289 5.678,34.000 10.199,34.000 L12.000,34.000 C12.552,34.000 13.000,34.448 13.000,35.000 C13.000,35.552 12.552,36.000 12.000,36.000 L10.199,36.000 C4.575,36.000 0.000,31.392 0.000,25.727 C0.000,21.573 2.462,17.876 6.206,16.281 C6.157,15.814 6.133,15.360 6.133,14.909 C6.133,6.688 12.772,-0.000 20.934,-0.000 C26.953,-0.000 32.362,3.696 34.626,9.273 C34.662,9.273 34.697,9.272 34.732,9.272 C42.048,9.272 48.000,15.267 48.000,22.636 C48.000,29.285 42.784,35.151 36.125,35.992 ZM18.707,34.293 L23.000,38.586 L23.000,22.999 C23.000,22.447 23.448,21.999 24.000,21.999 C24.552,21.999 25.000,22.447 25.000,22.999 L25.000,38.586 L29.293,34.293 C29.684,33.902 30.316,33.902 30.707,34.293 C31.098,34.684 31.098,35.316 30.707,35.707 L24.707,41.707 C24.615,41.799 24.505,41.872 24.382,41.923 C24.260,41.973 24.130,42.000 24.000,42.000 C23.870,42.000 23.740,41.973 23.618,41.923 C23.495,41.872 23.385,41.799 23.293,41.707 L17.293,35.707 C16.902,35.316 16.902,34.684 17.293,34.293 C17.684,33.902 18.316,33.902 18.707,34.293 Z" class="cls-1"/>
</svg>
