<svg xmlns="http://www.w3.org/2000/svg" xmlns:xlink="http://www.w3.org/1999/xlink" preserveAspectRatio="xMidYMid" width="95.248" height="84" viewBox="0 0 47.624 42">
  <defs>
    <style>
      .cls-1 {
        fill: #1b1b1b;
        fill-rule: evenodd;
      }
    </style>
  </defs>
  <path d="M44.005,21.366 C44.005,21.367 44.004,21.368 44.003,21.369 L26.564,40.728 C25.834,41.547 24.849,42.000 23.793,42.000 C23.792,42.000 23.792,42.000 23.791,42.000 C22.736,42.000 21.752,41.547 21.020,40.725 L3.586,21.369 C3.585,21.368 3.585,21.367 3.584,21.366 C-1.213,16.473 -1.204,8.548 3.617,3.672 C5.961,1.304 9.075,-0.000 12.387,-0.000 C15.700,-0.000 18.814,1.304 21.156,3.672 C21.160,3.675 21.161,3.680 21.164,3.683 C21.168,3.687 21.173,3.688 21.177,3.692 L23.794,6.497 L26.413,3.692 C26.417,3.689 26.422,3.687 26.425,3.684 C26.429,3.680 26.430,3.675 26.433,3.672 C28.776,1.304 31.890,-0.000 35.202,-0.000 C38.515,-0.000 41.629,1.304 43.971,3.672 C48.789,8.548 48.798,16.473 44.005,21.366 ZM42.566,5.084 C40.599,3.096 37.984,2.000 35.202,2.000 C32.423,2.000 29.810,3.094 27.842,5.080 L24.515,8.642 C24.508,8.649 24.498,8.651 24.491,8.659 C24.483,8.667 24.481,8.677 24.473,8.685 C24.413,8.741 24.342,8.773 24.273,8.812 C24.236,8.833 24.205,8.864 24.166,8.880 C24.046,8.929 23.920,8.956 23.793,8.956 C23.666,8.956 23.540,8.929 23.421,8.880 C23.381,8.864 23.349,8.832 23.311,8.811 C23.243,8.772 23.172,8.741 23.113,8.685 C23.105,8.677 23.103,8.667 23.095,8.659 C23.088,8.651 23.078,8.649 23.071,8.642 L19.743,5.076 C17.776,3.093 15.165,2.000 12.387,2.000 C9.605,2.000 6.990,3.096 5.022,5.084 C0.960,9.193 0.960,15.881 5.023,19.991 C5.029,19.997 5.031,20.006 5.037,20.012 C5.042,20.018 5.049,20.020 5.054,20.025 L22.492,39.385 C22.847,39.782 23.307,40.000 23.792,40.000 L23.793,40.000 C24.279,40.000 24.740,39.783 25.092,39.388 L42.535,20.025 C42.540,20.020 42.547,20.018 42.552,20.012 C42.558,20.006 42.560,19.997 42.566,19.991 C46.626,15.881 46.626,9.193 42.566,5.084 Z" class="cls-1"/>
</svg>
