<svg xmlns="http://www.w3.org/2000/svg" xmlns:xlink="http://www.w3.org/1999/xlink" preserveAspectRatio="xMidYMid" width="95.75" height="95.812" viewBox="0 0 47.875 47.906">
  <defs>
    <style>
      .cls-1 {
        fill: #1b1b1b;
        fill-rule: evenodd;
      }
    </style>
  </defs>
  <path d="M47.582,0.295 C47.668,0.381 47.729,0.482 47.778,0.589 C47.793,0.622 47.802,0.655 47.813,0.689 C47.839,0.768 47.855,0.849 47.860,0.932 C47.863,0.969 47.866,1.003 47.865,1.040 C47.861,1.136 47.842,1.230 47.810,1.323 C47.803,1.342 47.802,1.363 47.794,1.382 C47.793,1.386 47.793,1.390 47.791,1.394 L27.968,47.304 C27.822,47.644 27.499,47.875 27.130,47.903 C27.104,47.905 27.078,47.906 27.053,47.906 C26.712,47.906 26.392,47.732 26.208,47.440 L16.293,31.691 C16.274,31.675 16.251,31.669 16.234,31.652 C16.221,31.639 16.217,31.621 16.205,31.608 L0.468,22.075 C0.150,21.882 -0.034,21.528 -0.011,21.157 C0.014,20.785 0.242,20.458 0.583,20.308 L46.473,0.085 C46.478,0.082 46.484,0.082 46.489,0.080 C46.511,0.071 46.534,0.070 46.556,0.062 C46.647,0.031 46.740,0.012 46.834,0.008 C46.868,0.006 46.901,0.009 46.935,0.011 C47.022,0.017 47.104,0.033 47.186,0.060 C47.219,0.071 47.250,0.079 47.281,0.093 C47.389,0.141 47.491,0.203 47.578,0.289 C47.579,0.290 47.579,0.291 47.580,0.292 C47.580,0.292 47.580,0.292 47.581,0.292 C47.581,0.293 47.581,0.294 47.582,0.295 ZM26.887,44.774 L43.890,5.396 L18.247,31.049 L26.887,44.774 ZM16.825,29.649 L42.405,4.059 L3.142,21.361 L16.825,29.649 Z" class="cls-1"/>
</svg>
