<svg xmlns="http://www.w3.org/2000/svg" xmlns:xlink="http://www.w3.org/1999/xlink" preserveAspectRatio="xMidYMid" width="96" height="96" viewBox="0 0 48 48">
  <defs>
    <style>
      .cls-1 {
        fill: #1b1b1b;
        fill-rule: evenodd;
      }
    </style>
  </defs>
  <path d="M47.000,25.000 L41.951,25.000 C41.446,34.124 34.126,41.444 25.000,41.949 L25.000,47.000 C25.000,47.553 24.553,48.000 24.000,48.000 C23.447,48.000 23.000,47.553 23.000,47.000 L23.000,41.949 C13.874,41.444 6.554,34.124 6.049,25.000 L1.000,25.000 C0.447,25.000 -0.000,24.553 -0.000,24.000 C-0.000,23.447 0.447,23.000 1.000,23.000 L6.049,23.000 C6.554,13.875 13.874,6.555 23.000,6.050 L23.000,1.000 C23.000,0.447 23.447,-0.000 24.000,-0.000 C24.553,-0.000 25.000,0.447 25.000,1.000 L25.000,6.050 C34.126,6.555 41.446,13.875 41.951,23.000 L47.000,23.000 C47.553,23.000 48.000,23.447 48.000,24.000 C48.000,24.553 47.553,25.000 47.000,25.000 ZM25.000,39.949 C33.024,39.450 39.451,33.022 39.951,25.000 L33.948,25.000 C33.478,29.717 29.717,33.479 25.000,33.949 L25.000,39.949 ZM25.000,23.000 L31.907,23.000 C31.450,19.393 28.609,16.522 25.000,16.069 L25.000,23.000 ZM31.907,25.000 L25.000,25.000 L25.000,31.931 C28.609,31.478 31.450,28.607 31.907,25.000 ZM23.000,25.000 L16.093,25.000 C16.550,28.607 19.391,31.477 23.000,31.931 L23.000,25.000 ZM23.000,39.949 L23.000,33.949 C18.283,33.479 14.522,29.717 14.052,25.000 L8.049,25.000 C8.549,33.022 14.976,39.450 23.000,39.949 ZM23.000,8.050 C14.976,8.549 8.549,14.977 8.049,23.000 L14.052,23.000 C14.522,18.283 18.283,14.521 23.000,14.051 L23.000,8.050 ZM16.093,23.000 L23.000,23.000 L23.000,16.069 C19.391,16.523 16.550,19.393 16.093,23.000 ZM25.000,8.050 L25.000,14.051 C29.717,14.521 33.478,18.283 33.948,23.000 L39.951,23.000 C39.451,14.977 33.024,8.549 25.000,8.050 Z" class="cls-1"/>
</svg>
