<svg xmlns="http://www.w3.org/2000/svg" xmlns:xlink="http://www.w3.org/1999/xlink" preserveAspectRatio="xMidYMid" width="82" height="83.876" viewBox="0 0 41 41.938">
  <defs>
    <style>
      .cls-1 {
        fill: #1b1b1b;
        fill-rule: evenodd;
      }
    </style>
  </defs>
  <path d="M34.000,27.959 C33.448,27.959 33.000,27.512 33.000,26.961 C33.000,26.409 33.448,25.962 34.000,25.962 C36.757,25.962 39.000,23.722 39.000,20.970 C39.000,18.217 36.757,15.978 34.000,15.978 C33.448,15.978 33.000,15.531 33.000,14.979 C33.000,14.427 33.448,13.981 34.000,13.981 C37.860,13.981 41.000,17.117 41.000,20.970 C41.000,24.823 37.860,27.959 34.000,27.959 ZM27.433,41.839 C27.295,41.905 27.147,41.937 27.000,41.937 C26.777,41.937 26.556,41.863 26.375,41.719 L11.649,29.956 L4.066,29.956 C1.824,29.956 -0.000,28.075 -0.000,25.763 L-0.000,16.177 C-0.000,13.865 1.824,11.984 4.066,11.984 L11.649,11.984 L26.375,0.221 C26.675,-0.020 27.087,-0.066 27.433,0.101 C27.780,0.268 28.000,0.617 28.000,1.001 L28.000,40.939 C28.000,41.323 27.780,41.672 27.433,41.839 ZM26.000,3.079 L12.624,13.762 C12.589,13.790 12.547,13.799 12.509,13.822 C12.451,13.857 12.394,13.892 12.328,13.915 C12.261,13.938 12.194,13.947 12.125,13.956 C12.082,13.961 12.044,13.981 12.000,13.981 L4.066,13.981 C2.927,13.981 2.000,14.966 2.000,16.177 L2.000,25.763 C2.000,26.974 2.927,27.959 4.066,27.959 L12.000,27.959 C12.044,27.959 12.082,27.979 12.125,27.984 C12.194,27.993 12.261,28.002 12.329,28.025 C12.394,28.048 12.451,28.083 12.509,28.118 C12.547,28.141 12.589,28.149 12.624,28.178 L26.000,38.861 L26.000,3.079 Z" class="cls-1"/>
</svg>
