<?xml version="1.0" encoding="UTF-8" standalone="no"?>
<!-- Created with Inkscape (http://www.inkscape.org/) -->

<svg
   xmlns:dc="http://purl.org/dc/elements/1.1/"
   xmlns:cc="http://creativecommons.org/ns#"
   xmlns:rdf="http://www.w3.org/1999/02/22-rdf-syntax-ns#"
   xmlns:svg="http://www.w3.org/2000/svg"
   xmlns="http://www.w3.org/2000/svg"
   xmlns:sodipodi="http://sodipodi.sourceforge.net/DTD/sodipodi-0.dtd"
   xmlns:inkscape="http://www.inkscape.org/namespaces/inkscape"
   width="286.10278mm"
   height="230.71666mm"
   viewBox="0 0 1013.75 817.49997"
   id="svg4303"
   version="1.1"
   inkscape:version="0.91 r13725"
   sodipodi:docname="drawnKanji.svg">
  <defs
     id="defs4305" />
  <sodipodi:namedview
     id="base"
     pagecolor="#ffffff"
     bordercolor="#666666"
     borderopacity="1.0"
     inkscape:pageopacity="0.0"
     inkscape:pageshadow="2"
     inkscape:zoom="0.88"
     inkscape:cx="535.09855"
     inkscape:cy="357.71623"
     inkscape:document-units="px"
     inkscape:current-layer="layer1"
     showgrid="false"
     fit-margin-top="0"
     fit-margin-left="0"
     fit-margin-right="0"
     fit-margin-bottom="0"
     inkscape:window-width="1628"
     inkscape:window-height="1145"
     inkscape:window-x="463"
     inkscape:window-y="99"
     inkscape:window-maximized="0" />
  <metadata
     id="metadata4308">
    <rdf:RDF>
      <cc:Work
         rdf:about="">
        <dc:format>image/svg+xml</dc:format>
        <dc:type
           rdf:resource="http://purl.org/dc/dcmitype/StillImage" />
        <dc:title></dc:title>
      </cc:Work>
    </rdf:RDF>
  </metadata>
  <g
     inkscape:label="Layer 1"
     inkscape:groupmode="layer"
     id="layer1"
     transform="translate(1.1607274,-0.75507462)">
    <path
       style="fill:#000000"
       d="M 610.6875 170.45703 C 610.37108 170.45129 609.97808 170.55128 609.49805 170.68555 C 604.34007 172.12826 591.67009 178.93677 585.57617 183.54102 L 579.375 188.22656 L 579.375 204.42578 C 579.375 213.3353 579.83062 227.13722 580.38867 235.09766 L 581.4043 249.57227 L 572.26367 251.15625 C 567.23687 252.02796 557.27427 254.1012 550.12305 255.76367 C 542.97184 257.42615 536.88678 258.55475 536.60156 258.26953 C 536.31635 257.98431 535.60313 247.93464 535.01562 235.9375 C 534.42813 223.94037 533.31081 211.76089 532.5332 208.87305 C 531.29356 204.26939 530.78177 203.72703 528.37305 204.47266 C 521.29216 206.66455 505.50642 215.92133 500.76562 220.66211 C 499.28497 222.14276 499.13083 223.33767 500.0918 225.86523 C 501.27695 228.98241 503.9162 266.35201 503.02148 267.34766 C 502.78771 267.60781 493.48061 270.29593 482.33984 273.32031 C 471.19907 276.34468 458.88706 280.10956 454.98047 281.6875 C 446.86731 284.96455 430 295.79846 430 297.73242 C 430 299.68015 435.08203 298.56308 470.48633 288.82812 C 488.28475 283.93421 503.098 280.18198 503.40625 280.49023 C 504.16599 281.24996 507.69021 342.19721 507.23633 346.72852 L 506.875 350.33203 L 481.25 356.32617 C 447.65653 364.18512 396.47702 376.35146 373.75 381.88086 C 354.20054 386.63717 344.84042 390.57438 333.11328 398.97461 C 327.42768 403.04724 326.18817 404.44641 327.96289 404.78906 C 329.24852 405.03727 339.93602 402.92284 351.71289 400.08984 C 363.48976 397.25682 393.9375 389.92921 419.375 383.80664 C 458.45775 374.39978 491.26427 367.09927 505.11523 364.72656 L 508.35742 364.17188 L 509.83203 390.52344 C 510.64332 405.01679 511.64115 420.83135 512.05078 425.66797 L 512.79688 434.46289 L 502.98242 436.11133 C 483.73752 439.34504 468.17272 445.70022 454.375 455.95703 C 448.75795 460.13259 448.41908 460.6458 451.0293 461.02539 C 452.62669 461.25769 456.19346 460.54444 458.95508 459.43945 C 462.74964 457.92116 509.58192 448.75 513.54102 448.75 C 513.92384 448.75 510.53635 451.30505 506.01367 454.42773 C 499.73728 458.76127 497.61092 461.00795 497.0293 463.91602 C 495.63389 470.8931 479.85321 509.09493 469.47266 530.625 C 449.76281 571.50475 434.89464 592.79201 405.71094 621.91602 C 374.79663 652.7671 355.27869 668.15969 326.875 684.08789 C 320 687.94325 312.40625 692.79647 310 694.87305 L 305.625 698.64844 L 309.375 698.69727 C 315.6356 698.77835 345.0696 682.53999 369.64648 665.44727 C 393.99872 648.51079 424.98486 621.21221 448.27344 596.17383 C 469.16599 573.71151 490.61558 539.86423 506.8457 503.75 L 514.99023 485.625 L 515.01367 500 C 515.026 507.90625 514.09202 537.15625 512.9375 565 C 510.56296 622.26688 511.34098 656.8544 516.44531 720.9375 C 519.06056 753.77112 519.42316 756.25 521.625 756.25 C 524.73888 756.25 541.96582 747.1623 547.375 742.66602 L 551.62695 739.13281 L 548.92773 704.62695 C 543.76917 638.69693 543.07051 605.81262 545.55273 545.625 C 546.77193 516.0625 547.56827 480.93263 547.32227 467.55859 L 546.875 443.24219 L 558.75 441.11328 C 565.28125 439.94199 573.71875 438.62683 577.5 438.19141 L 584.375 437.40039 L 581.26953 439.86523 C 579.56105 441.22084 578.43605 442.52591 578.76953 442.76758 C 579.103 443.00924 580.8847 443.96771 582.73047 444.89648 C 587.19786 447.14442 587.01823 444.5648 590.0332 550 C 591.41918 598.46875 593.1047 646.4668 593.77734 656.66211 C 594.44999 666.85744 595 690.35928 595 708.88867 C 595 737.68203 594.72749 742.6839 593.125 743.29883 C 590.70389 744.2279 590.75079 744.80414 593.80859 751.7168 C 595.26462 755.00839 597.2017 757.5 598.30469 757.5 C 601.12446 757.5 618.75787 748.09373 623.74805 743.92773 L 628.01758 740.36328 L 627.73047 701.11914 C 627.5722 679.53472 626.88185 652.03125 626.19727 640 C 624.98555 618.70437 621.25 502.05431 621.25 485.51172 L 621.25 477.24414 L 638.4375 493.32812 C 668.19402 521.17309 711.45352 559.50034 722.5 567.80664 C 754.00303 591.49504 771.37725 600.57154 798.125 607.3125 C 828.24513 614.90336 896.10373 623.75 924.21094 623.75 C 938.23279 623.75 938.65724 623.66603 947.50391 619.11523 C 952.45991 616.56584 958.8463 612.3697 961.69531 609.79102 L 966.875 605.10156 L 958.125 605.03906 C 928.68179 604.82315 856.53305 595.1402 826.29492 587.34766 C 818.41342 585.31656 806.60092 581.11953 800.04492 578.01953 C 785.18197 570.9916 760.94432 554.83538 743.5918 540.38867 C 728.13745 527.52226 671.15397 475.80297 649.41992 454.91797 C 641.14568 446.96699 631.6223 438.38886 628.25781 435.85547 C 622.9061 431.82576 622.51936 431.25 625.17383 431.25 C 626.84263 431.25 636.55803 429.88119 646.76172 428.20703 C 661.45643 425.79599 667.0017 424.30154 673.4375 421.01953 C 682.45057 416.4232 692.5 408.25213 692.5 405.51953 C 692.5 403.28688 692.52421 403.28414 685.35156 406.11133 C 676.7587 409.49831 620.10733 417.19416 618.8418 415.14648 C 617.62199 413.17278 614.96032 375.37912 614.98242 360.33594 C 614.99848 349.39609 615.14597 348.76437 617.8125 348.16797 C 632.85589 344.80338 716.75654 333.88891 717.29492 335.22656 C 718.02334 337.0364 710.06293 363.41618 700.95508 389.375 C 692.30578 414.0269 687.28385 426.12451 682.94531 432.76172 C 681.72764 434.62454 681.11709 436.53506 681.58789 437.00586 C 683.07574 438.49371 693.68444 433.66968 703.53125 427.0293 C 711.8134 421.44409 713.63053 419.50527 717.72656 411.875 C 722.57271 402.84742 733.62752 373.1771 741.94531 346.875 C 744.55429 338.625 746.73015 331.7861 746.78125 331.67773 C 746.83233 331.56935 757 330.59155 769.375 329.50391 C 835.21212 323.71743 905.79005 321.66073 902.5 325.625 C 897.66888 331.44615 919.52833 322.21444 930.9375 313.61523 C 943.58233 304.08463 939.9773 303.04737 898.1543 304.17773 C 865.21249 305.06805 830.89936 307.22377 783.4043 311.38672 C 766.37059 312.87972 752.17617 313.84414 751.86133 313.5293 C 751.54649 313.21447 752.12593 308.94309 753.14844 304.03906 C 757.25515 284.34318 758.92768 249.47058 756.14844 241.49805 C 754.97529 238.13274 754.02978 237.50629 748.96094 236.73633 C 743.14966 235.85359 642.7893 241.60005 624.99805 243.83398 C 619.94996 244.46787 615.54392 244.7119 615.20898 244.37695 C 613.95234 243.12033 611.09474 193.89043 611.59766 182.16406 C 612.01292 172.48146 612.05865 170.48192 610.6875 170.45703 z M 716.56836 255.89453 C 717.19075 255.90201 717.63913 255.92108 717.89844 255.95312 C 724.86213 256.81355 725.42175 259.21758 724.5 284.375 C 723.76481 304.44075 722.5295 315.3865 720.80664 317.10938 C 720.38797 317.52805 701.61398 320.57215 679.08594 323.87305 C 656.55792 327.17395 632.92188 330.65515 626.5625 331.60938 L 615 333.34375 L 615 297.44531 L 615 261.54688 L 626.5625 260.70117 C 658.88482 258.3381 707.23254 255.78239 716.56836 255.89453 z M 581.33789 265 C 582.08517 265 582.41334 278.78984 582.20703 301.53516 L 581.875 338.07031 L 566.875 340.19727 C 558.625 341.36718 549.47972 342.68028 546.55273 343.11523 C 542.69657 343.68826 541.09747 343.45434 540.74414 342.26562 C 540.28189 340.71046 537.42596 281.79005 537.47656 274.85156 C 537.49697 272.05058 538.17715 271.46019 542.1875 270.77344 C 550.09883 269.41867 580.06395 265 581.33789 265 z M 580.74609 353.74805 C 581.67955 353.749 582.37317 363.03562 582.91406 382.8125 C 583.35123 398.79688 584.0614 414.17418 584.49219 416.98438 L 585.27539 422.09375 L 568.57422 424.91797 C 559.3893 426.47145 550.63414 428.02513 549.11719 428.36914 C 545.53237 429.18208 545.47238 428.84634 543.79883 398.125 C 543.0498 384.375 542.12622 369.98857 541.74609 366.15625 L 541.05469 359.18945 L 560.21484 356.46875 C 570.75269 354.97217 579.99164 353.74728 580.74609 353.74805 z "
       transform="translate(-1.1607274,0.75507462)"
       id="path5001" />
    <path
       style="fill:#000000"
       d="M 397.77148 502.76953 C 390.2634 502.72701 362.60021 506.05596 348.125 508.92578 C 324.99562 513.51135 276.1723 531.26062 248.18555 545.25781 C 228.42489 555.14083 188.03198 577.92648 182.8125 582.13477 C 178.80735 585.36398 177.5 587.29493 177.5 589.98047 C 177.5 591.93964 178.01201 593.72981 178.63867 593.95898 C 179.57757 594.30233 197.37983 666.13923 203.21289 693.125 C 204.10453 697.25 205.94574 704.84375 207.30469 710 C 208.66364 715.15625 210.11839 720.92188 210.53711 722.8125 C 210.95585 724.70313 212.06536 726.25 213.00391 726.25 C 216.08096 726.25 234.32745 716.47049 239.34766 712.13086 L 244.25977 707.88672 L 242.93359 702.08984 L 241.60742 696.29297 L 251.74023 693.19531 C 257.31405 691.4918 272.28125 686.7771 285 682.71875 C 297.71875 678.6604 309.38714 674.94517 310.92969 674.46289 C 313.15272 673.76784 313.57759 673.992 312.98242 675.54297 C 311.45426 679.52528 317.2721 677.4376 334.375 667.86719 C 357.42779 654.96736 367.92434 647.50833 365.88867 645.47266 C 365.20042 644.78441 362.24965 645.57456 355.88086 648.15234 C 354.41704 648.74483 356.25824 644.8993 361.17578 637.09375 C 378.13767 610.17031 389.63006 584.29328 396.52344 557.5 C 399.77581 544.85863 400.24636 540.76443 400.42383 523.55469 C 400.53483 512.79127 400.19014 503.54325 399.6582 503.00391 C 399.50548 502.84905 398.84407 502.77561 397.77148 502.76953 z M 364.07422 522.5 L 369.12695 522.5 L 368.40234 541.5625 C 367.81162 557.11112 366.98601 563.29033 363.91992 575.08594 C 357.72166 598.93134 347.09327 623.49705 332.72266 647.19531 L 325.70508 658.76758 L 306.29102 664.93945 C 295.61262 668.33424 282.30849 672.55036 276.72656 674.30859 C 271.14461 676.06683 263.83417 677.76197 260.48242 678.07617 C 257.13068 678.39036 251.07305 680.35867 247.01953 682.44922 C 242.96602 684.53978 239.30577 686.24909 238.88672 686.24609 C 238.46766 686.24385 232.1815 661.2356 224.91797 630.67188 L 211.71289 575.10156 L 214.40625 572.19531 C 222.90438 563.03046 282.27626 537.96955 317.27344 528.77539 C 324.18214 526.9604 357.44742 522.5 364.07422 522.5 z "
       transform="translate(-1.1607274,0.75507462)"
       id="path4993" />
    <path
       style="fill:#000000"
       d="m 181.86809,486.38026 c 11.7511,-11.07142 62.04117,-39.03719 95.39045,-53.04557 31.96162,-13.4255 59.23796,-21.71089 62.02846,-18.84159 1.07812,1.10857 0.35702,2.38199 -2.94773,5.20549 -7.50235,6.40982 -21.42063,13.52181 -26.49797,13.53996 -14.61481,0.0523 -69.49811,23.2137 -98.3743,41.51522 -21.77234,13.79915 -26.01619,16.10113 -30.90948,16.76614 l -4.84325,0.65823 6.15382,-5.79788 z"
       id="path4989" />
    <path
       style="fill:#000000"
       d="m 175.08927,399.51722 c 0,-2.15458 11.46539,-9.87897 23.125,-15.57962 19.63228,-9.59868 98.55497,-38.63298 117.4785,-43.21834 8.71798,-2.11245 10.20753,-2.18887 11.79145,-0.60495 1.58393,1.58393 1.50769,2.15766 -0.6035,4.54175 -3.09412,3.49409 -17.22002,12.70595 -23.5066,15.32928 -6.22056,2.59576 -8.77912,2.61076 -7.79481,0.0456 1.01569,-2.64684 -3.03627,-1.78786 -22.36504,4.74116 -15.38673,5.19745 -77.71892,28.68979 -88.54113,33.3702 -6.60913,2.8584 -9.58387,3.28514 -9.58387,1.3749 z"
       id="path4987" />
    <path
       style="fill:#000000"
       d="m 71.339273,363.7979 c 0,-3.97069 14.174263,-14.4953 30.624997,-22.73955 5.5,-2.75631 25.46875,-11.48159 44.375,-19.38949 18.90625,-7.90791 47.875,-20.26919 64.375,-27.4695 66.79503,-29.14821 126.24095,-51.45042 174.375,-65.41994 10.65625,-3.09266 23.99889,-7.11756 29.6503,-8.94422 5.65142,-1.82665 10.71392,-2.87326 11.25,-2.32579 1.36185,1.39076 -7.55643,8.8793 -16.63575,13.96876 -8.36992,4.6918 -9.30727,5.02979 -27.38955,9.87592 -49.819,13.35171 -118.87362,38.51438 -182.07497,66.34592 -11.92126,5.24969 -39.11253,16.85156 -60.42503,25.78195 -21.3125,8.93039 -41.682219,18.17388 -45.266044,20.54108 -10.428563,6.88831 -22.858953,12.20375 -22.858953,9.77486 z"
       id="path4985" />
    <path
       style="fill:#000000"
       d="m 327.58927,237.09607 c 0,-3.56786 25.47023,-18.83536 31.44088,-18.84645 1.61376,-0.002 12.49662,-2.5468 24.18412,-5.6529 11.6875,-3.1061 40.65625,-10.21137 64.375,-15.78947 23.71875,-5.57811 43.3557,-10.34313 43.63767,-10.58893 0.28196,-0.2458 -1.52087,-2.42185 -4.00629,-4.83566 -6.50675,-6.31927 -11.66253,-14.25402 -17.74178,-27.3046 -8.43946,-18.11739 -14.4323,-35.32552 -17.0298,-48.90024 -1.32053,-6.90126 -2.92213,-14.086525 -3.5591,-15.967255 -0.87121,-2.572417 -0.68807,-3.889544 0.7393,-5.316922 4.93964,-4.939638 19.97513,-13.707031 26.92467,-15.700132 3.07357,-0.88149 3.53343,-0.586911 4.65068,2.979174 0.68192,2.176565 2.14433,8.932697 3.2498,15.013628 2.52482,13.888297 9.74688,34.252057 18.70902,52.752987 5.45901,11.26926 8.57567,15.97492 14.737,22.25045 4.29761,4.37726 10.06383,9.10271 12.81383,10.501 l 5,2.54232 21.25,-6.09498 c 52.66822,-15.10645 79.7507,-19.44393 218.125,-34.9345 28.12397,-3.14839 58.75,-4.58128 58.75,-2.74872 0,1.94065 -8.1243,8.07372 -17.5,13.21079 -7.79816,4.27273 -8.77868,4.48303 -24.375,5.22774 -19.82383,0.94657 -47.45,3.77742 -116.875,11.97619 -82.07871,9.69311 -99.60577,13.17583 -169.375,33.6557 -17.5782,5.15986 -44.47923,11.90521 -94.375,23.66423 -14.78125,3.48353 -38.62063,9.42335 -52.97642,13.19962 -26.5489,6.98365 -30.77358,7.76711 -30.77358,5.70693 z"
       id="path4983" />
    <path
       style="fill:#000000"
       d="m 246.45771,200.25615 c -6.95332,-7.40148 -44.09237,-18.53125 -62.26035,-18.65809 -12.01444,-0.0839 -11.97731,-0.41255 1.02304,-9.05515 12.81824,-8.52155 22.80426,-12.22887 30.49064,-11.31966 8.45271,0.99985 39.66565,8.73907 48.3503,11.98842 8.34302,3.12153 17.27793,9.30224 17.27793,11.952 0,3.49795 -23.67271,18.01057 -29.46961,18.0664 -1.42702,0.0137 -3.86241,-1.32451 -5.41195,-2.97392 z"
       id="path4981" />
    <path
       style="fill:#000000"
       d="m 562.58927,143.34116 c 0,-0.66634 7.45313,-7.62735 16.5625,-15.4689 9.10938,-7.84154 22.20169,-20.10394 29.09402,-27.24977 13.9148,-14.426568 40.5566,-44.163173 46.08368,-51.43691 5.47288,-7.202409 30.47047,-21.636508 33.03304,-19.073932 1.08074,1.08073 -4.72059,8.322119 -23.6733,29.54977 -36.91809,41.349452 -69.67926,70.997082 -89.22494,80.745222 -6.31346,3.14876 -11.875,4.52311 -11.875,2.93452 z"
       id="path4392" />
  </g>
</svg>
