<?xml version="1.0" encoding="UTF-8" standalone="no"?>
<!-- Created with Inkscape (http://www.inkscape.org/) -->
<svg id="svg4303" xmlns:rdf="http://www.w3.org/1999/02/22-rdf-syntax-ns#" xmlns="http://www.w3.org/2000/svg" height="230.72mm" width="286.1mm" version="1.1" xmlns:cc="http://creativecommons.org/ns#" xmlns:dc="http://purl.org/dc/elements/1.1/" viewBox="0 0 1013.75 817.49997">
 <metadata id="metadata4308">
  <rdf:RDF>
   <cc:Work rdf:about="">
    <dc:format>image/svg+xml</dc:format>
    <dc:type rdf:resource="http://purl.org/dc/dcmitype/StillImage"/>
    <dc:title/>
   </cc:Work>
  </rdf:RDF>
 </metadata>
 <g id="layer1" transform="translate(1.1607 -.75507)">
  <path id="path5001" d="m610.69 170.46c-0.32-0.01-0.71 0.09-1.19 0.23-5.16 1.44-17.83 8.25-23.92 12.85l-6.2 4.69v16.2c0 8.91 0.45 22.71 1.01 30.67l1.01 14.47-9.14 1.59c-5.02 0.87-14.99 2.94-22.14 4.6-7.15 1.67-13.23 2.79-13.52 2.51-0.28-0.29-1-10.34-1.58-22.33-0.59-12-1.71-24.18-2.49-27.07-1.24-4.6-1.75-5.14-4.16-4.4-7.08 2.19-22.86 11.45-27.6 16.19-1.49 1.48-1.64 2.68-0.68 5.21 1.19 3.11 3.83 40.48 2.93 41.48-0.23 0.26-9.54 2.95-20.68 5.97s-23.45 6.79-27.36 8.37c-8.11 3.27-24.98 14.11-24.98 16.04 0 1.95 5.08 0.83 40.49-8.9 17.79-4.9 32.61-8.65 32.92-8.34 0.76 0.76 4.28 61.71 3.83 66.24l-0.36 3.6-25.63 6c-33.59 7.86-84.77 20.02-107.5 25.55-19.55 4.76-28.91 8.69-40.64 17.09-5.68 4.08-6.92 5.48-5.15 5.82 1.29 0.25 11.98-1.87 23.75-4.7 11.78-2.83 42.23-10.16 67.67-16.28 39.08-9.41 71.88-16.71 85.74-19.08l3.24-0.56 1.47 26.35c0.81 14.5 1.81 30.31 2.22 35.15l0.75 8.79-9.82 1.65c-19.24 3.24-34.81 9.59-48.6 19.85-5.62 4.17-5.96 4.69-3.35 5.07 1.6 0.23 5.16-0.49 7.93-1.59 3.79-1.52 50.62-10.69 54.58-10.69 0.38 0-3 2.56-7.53 5.68-6.27 4.33-8.4 6.58-8.98 9.49-1.4 6.97-17.18 45.17-27.56 66.7-19.71 40.88-34.58 62.17-63.76 91.3-30.91 30.85-50.43 46.24-78.83 62.17-6.88 3.85-14.47 8.71-16.88 10.78l-4.38 3.78 3.76 0.05c6.26 0.08 35.69-16.16 60.27-33.25 24.35-16.94 55.33-44.24 78.62-69.28 20.9-22.46 42.35-56.31 58.58-92.42l8.14-18.13 0.02 14.38c0.02 7.91-0.92 37.16-2.07 65-2.38 57.27-1.6 91.85 3.51 155.94 2.61 32.83 2.97 35.31 5.17 35.31 3.12 0 20.35-9.09 25.76-13.58l4.25-3.54-2.7-34.5c-5.16-65.93-5.86-98.82-3.38-159.01 1.22-29.56 2.02-64.69 1.77-78.06l-0.44-24.32 11.87-2.13c6.53-1.17 14.97-2.48 18.75-2.92l6.88-0.79-3.11 2.47c-1.71 1.35-2.83 2.66-2.5 2.9s2.11 1.2 3.96 2.13c4.47 2.24 4.29-0.34 7.3 105.1 1.39 48.47 3.07 96.47 3.75 106.66 0.67 10.2 1.22 33.7 1.22 52.23 0 28.79-0.27 33.79-1.88 34.41-2.42 0.93-2.37 1.5 0.69 8.42 1.45 3.29 3.39 5.78 4.49 5.78 2.82 0 20.46-9.41 25.45-13.57l4.27-3.57-0.29-39.24c-0.16-21.59-0.85-49.09-1.53-61.12-1.21-21.3-4.95-137.95-4.95-154.49v-8.27l17.19 16.09c29.75 27.84 73.01 66.17 84.06 74.48 31.5 23.69 48.88 32.76 75.62 39.5 30.13 7.59 97.98 16.44 126.09 16.44 14.02 0 14.45-0.08 23.29-4.63 4.96-2.55 11.35-6.75 14.2-9.33l5.18-4.69-8.76-0.06c-29.44-0.22-101.59-9.9-131.83-17.69-7.88-2.03-19.69-6.23-26.25-9.33-14.86-7.03-39.1-23.18-56.45-37.63-15.45-12.87-72.44-64.59-94.17-85.47-8.27-7.95-17.8-16.53-21.16-19.06-5.35-4.03-5.74-4.61-3.09-4.61 1.67 0 11.39-1.37 21.59-3.04 14.7-2.41 20.24-3.91 26.68-7.19 9.01-4.6 19.06-12.77 19.06-15.5 0-2.23 0.02-2.24-7.15 0.59-8.59 3.39-65.24 11.08-66.51 9.04-1.22-1.98-3.88-39.77-3.86-54.81 0.02-10.94 0.17-11.58 2.83-12.17 15.05-3.37 98.95-14.28 99.48-12.94 0.73 1.81-7.23 28.19-16.33 54.15-8.65 24.65-13.68 36.74-18.01 43.38-1.22 1.86-1.83 3.78-1.36 4.25 1.49 1.48 12.09-3.34 21.94-9.98 8.28-5.59 10.1-7.52 14.2-15.15 4.84-9.03 15.9-38.7 24.22-65 2.6-8.26 4.78-15.09 4.83-15.2s10.22-1.09 22.6-2.18c65.83-5.78 136.41-7.84 133.12-3.88-4.83 5.83 17.03-3.41 28.44-12 12.64-9.54 9.04-10.57-32.79-9.44-32.94 0.89-67.25 3.04-114.75 7.21-17.03 1.49-31.22 2.45-31.54 2.14-0.31-0.32 0.27-4.59 1.29-9.49 4.11-19.7 5.78-54.57 3-62.54-1.17-3.37-2.12-3.99-7.19-4.76-5.81-0.89-106.17 4.86-123.96 7.09-5.05 0.64-9.46 0.88-9.79 0.55-1.26-1.26-4.12-50.49-3.61-62.22 0.41-9.68 0.46-11.68-0.91-11.7zm105.88 85.43c0.62 0.01 1.07 0.03 1.33 0.06 6.96 0.86 7.52 3.27 6.6 28.43-0.74 20.06-1.97 31.01-3.69 32.73-0.42 0.42-19.2 3.46-41.72 6.76-22.53 3.3-46.17 6.79-52.53 7.74l-11.56 1.73v-35.89-35.9l11.56-0.85c32.32-2.36 80.67-4.92 90.01-4.81zm-135.23 9.11c0.75 0 1.07 13.79 0.87 36.54l-0.33 36.53-15 2.13c-8.26 1.17-17.4 2.48-20.33 2.92-3.85 0.57-5.45 0.33-5.81-0.85-0.46-1.56-3.31-60.48-3.26-67.42 0.02-2.8 0.7-3.39 4.71-4.08 7.91-1.35 37.87-5.77 39.15-5.77zm-0.59 88.75c0.93 0 1.62 9.29 2.16 29.06 0.44 15.99 1.15 31.36 1.58 34.17l0.79 5.11-16.71 2.83c-9.18 1.55-17.94 3.11-19.45 3.45-3.59 0.81-3.65 0.48-5.32-30.25-0.75-13.74-1.67-28.13-2.05-31.96l-0.7-6.97 19.16-2.72c10.54-1.5 19.78-2.72 20.54-2.72z" transform="translate(-1.1607 .75507)"/>
  <path id="path4993" d="m397.77 502.77c-7.51-0.04-35.17 3.29-49.65 6.16-23.12 4.58-71.95 22.33-99.93 36.33-19.77 9.88-60.16 32.67-65.38 36.87-4 3.23-5.31 5.16-5.31 7.85 0 1.96 0.51 3.75 1.14 3.98 0.94 0.34 18.74 72.18 24.57 99.16 0.89 4.13 2.74 11.72 4.09 16.88 1.36 5.16 2.82 10.92 3.24 12.81s1.53 3.44 2.46 3.44c3.08 0 21.33-9.78 26.35-14.12l4.91-4.24-1.33-5.8-1.32-5.8 10.13-3.09c5.57-1.71 20.54-6.42 33.26-10.48s24.39-7.77 25.93-8.26c2.22-0.69 2.65-0.47 2.05 1.08-1.53 3.99 4.29 1.9 21.4-7.67 23.05-12.9 33.54-20.36 31.51-22.4-0.69-0.69-3.64 0.1-10.01 2.68-1.46 0.59 0.38-3.25 5.3-11.06 16.96-26.92 28.45-52.8 35.34-79.59 3.26-12.64 3.73-16.74 3.9-33.95 0.11-10.76-0.23-20.01-0.76-20.55-0.15-0.15-0.82-0.22-1.89-0.23zm-33.7 19.73h5.06l-0.73 19.06c-0.59 15.55-1.41 21.73-4.48 33.53-6.2 23.84-16.83 48.41-31.2 72.11l-7.01 11.57-19.42 6.17c-10.68 3.39-23.98 7.61-29.56 9.37-5.59 1.76-12.9 3.45-16.25 3.77-3.35 0.31-9.41 2.28-13.46 4.37s-7.71 3.8-8.13 3.8c-0.42-0.01-6.71-25.01-13.97-55.58l-13.21-55.57 2.7-2.9c8.49-9.17 67.87-34.23 102.86-43.42 6.91-1.82 40.18-6.28 46.8-6.28z" transform="translate(-1.1607 .75507)"/>
  <path id="path4989" d="m181.87 486.38c11.751-11.071 62.041-39.037 95.39-53.046 31.962-13.426 59.238-21.711 62.028-18.842 1.0781 1.1086 0.35702 2.382-2.9477 5.2055-7.5024 6.4098-21.421 13.522-26.498 13.54-14.615 0.0523-69.498 23.214-98.374 41.515-21.772 13.799-26.016 16.101-30.909 16.766l-4.8432 0.65823 6.1538-5.7979z"/>
  <path id="path4987" d="m175.09 399.52c0-2.1546 11.465-9.879 23.125-15.58 19.632-9.5987 98.555-38.633 117.48-43.218 8.718-2.1124 10.208-2.1889 11.791-0.60495 1.5839 1.5839 1.5077 2.1577-0.6035 4.5418-3.0941 3.4941-17.22 12.706-23.507 15.329-6.2206 2.5958-8.7791 2.6108-7.7948 0.0456 1.0157-2.6468-3.0363-1.7879-22.365 4.7412-15.387 5.1974-77.719 28.69-88.541 33.37-6.6091 2.8584-9.5839 3.2851-9.5839 1.3749z"/>
  <path id="path4985" d="m71.339 363.8c0-3.9707 14.174-14.495 30.625-22.74 5.5-2.7563 25.469-11.482 44.375-19.389 18.906-7.9079 47.875-20.269 64.375-27.47 66.795-29.148 126.24-51.45 174.38-65.42 10.656-3.0927 23.999-7.1176 29.65-8.9442 5.6514-1.8266 10.714-2.8733 11.25-2.3258 1.3618 1.3908-7.5564 8.8793-16.636 13.969-8.3699 4.6918-9.3073 5.0298-27.39 9.8759-49.819 13.352-118.87 38.514-182.07 66.346-11.921 5.2497-39.113 16.852-60.425 25.782-21.312 8.9304-41.682 18.174-45.266 20.541-10.429 6.8883-22.859 12.204-22.859 9.7749z"/>
  <path id="path4983" d="m327.59 237.1c0-3.5679 25.47-18.835 31.441-18.846 1.6138-0.002 12.497-2.5468 24.184-5.6529 11.688-3.1061 40.656-10.211 64.375-15.789 23.719-5.5781 43.356-10.343 43.638-10.589 0.28196-0.2458-1.5209-2.4218-4.0063-4.8357-6.5068-6.3193-11.663-14.254-17.742-27.305-8.4395-18.117-14.432-35.326-17.03-48.9-1.3205-6.9013-2.9221-14.087-3.5591-15.967-0.87121-2.5724-0.68807-3.8895 0.7393-5.3169 4.9396-4.9396 19.975-13.707 26.925-15.7 3.0736-0.88149 3.5334-0.58691 4.6507 2.9792 0.68192 2.1766 2.1443 8.9327 3.2498 15.014 2.5248 13.888 9.7469 34.252 18.709 52.753 5.459 11.269 8.5757 15.975 14.737 22.25 4.2976 4.3773 10.064 9.1027 12.814 10.501l5 2.5423 21.25-6.095c52.668-15.106 79.751-19.444 218.12-34.934 28.124-3.1484 58.75-4.5813 58.75-2.7487 0 1.9406-8.1243 8.0737-17.5 13.211-7.7982 4.2727-8.7787 4.483-24.375 5.2277-19.824 0.94657-47.45 3.7774-116.88 11.976-82.079 9.6931-99.606 13.176-169.38 33.656-17.578 5.1599-44.479 11.905-94.375 23.664-14.781 3.4835-38.621 9.4234-52.976 13.2-26.549 6.9836-30.774 7.7671-30.774 5.7069z"/>
  <path id="path4981" d="m246.46 200.26c-6.9533-7.4015-44.092-18.531-62.26-18.658-12.014-0.0839-11.977-0.41255 1.023-9.0552 12.818-8.5216 22.804-12.229 30.491-11.32 8.4527 0.99985 39.666 8.7391 48.35 11.988 8.343 3.1215 17.278 9.3022 17.278 11.952 0 3.498-23.673 18.011-29.47 18.066-1.427 0.0137-3.8624-1.3245-5.412-2.9739z"/>
  <path id="path4392" d="m562.59 143.34c0-0.66634 7.4531-7.6274 16.562-15.469 9.1094-7.8415 22.202-20.104 29.094-27.25 13.915-14.427 40.557-44.163 46.084-51.437 5.4729-7.2024 30.47-21.637 33.033-19.074 1.0807 1.0807-4.7206 8.3221-23.673 29.55-36.918 41.349-69.679 70.997-89.225 80.745-6.3135 3.1488-11.875 4.5231-11.875 2.9345z"/>
 </g>
</svg>
