<svg xmlns="http://www.w3.org/2000/svg" xmlns:xlink="http://www.w3.org/1999/xlink" preserveAspectRatio="xMidYMid" width="18" height="24" viewBox="0 0 18 24">
  <defs>
    <style>
      .cls-1 {
        fill: #1b1b1b;
        fill-rule: evenodd;
      }
    </style>
  </defs>
  <path d="M9.651,23.759 C9.464,23.920 9.232,24.000 9.000,24.000 C8.768,24.000 8.536,23.920 8.349,23.759 C8.008,23.466 0.000,16.505 0.000,9.043 C0.000,4.057 4.037,0.000 9.000,0.000 C13.963,0.000 18.000,4.057 18.000,9.043 C18.000,16.505 9.992,23.466 9.651,23.759 ZM9.000,2.000 C5.141,2.000 2.000,5.159 2.000,9.043 C2.000,14.445 7.148,19.866 8.999,21.640 C10.850,19.864 16.000,14.435 16.000,9.043 C16.000,5.159 12.859,2.000 9.000,2.000 ZM9.000,13.074 C6.794,13.074 5.000,11.280 5.000,9.074 C5.000,6.868 6.794,5.074 9.000,5.074 C11.206,5.074 13.000,6.868 13.000,9.074 C13.000,11.280 11.206,13.074 9.000,13.074 ZM9.000,7.074 C7.898,7.074 7.000,7.972 7.000,9.074 C7.000,10.177 7.898,11.074 9.000,11.074 C10.102,11.074 11.000,10.177 11.000,9.074 C11.000,7.972 10.102,7.074 9.000,7.074 Z" class="cls-1"/>
</svg>
