<svg xmlns="http://www.w3.org/2000/svg" xmlns:xlink="http://www.w3.org/1999/xlink" preserveAspectRatio="xMidYMid" width="23.812" height="23.875" viewBox="0 0 23.812 23.875">
  <defs>
    <style>
      .cls-1 {
        fill: #1b1b1b;
        fill-rule: evenodd;
      }
    </style>
  </defs>
  <path d="M19.168,23.870 C18.888,23.870 18.604,23.773 18.325,23.583 L11.960,19.221 L11.826,19.229 L5.478,23.582 C4.833,24.022 4.102,23.927 3.719,23.420 C3.547,23.192 3.378,22.794 3.548,22.192 L5.468,15.386 C5.482,15.316 5.438,15.145 5.392,15.089 L0.446,10.048 C0.034,9.627 -0.107,9.090 0.069,8.608 C0.245,8.127 0.699,7.808 1.284,7.754 L7.831,7.140 C7.893,7.129 8.028,7.029 8.062,6.967 L10.691,0.894 C10.931,0.340 11.383,0.010 11.901,0.010 C12.420,0.010 12.873,0.342 13.110,0.898 L15.743,6.973 C15.774,7.030 15.910,7.129 15.978,7.141 L22.519,7.752 C23.106,7.809 23.559,8.129 23.734,8.610 C23.908,9.092 23.767,9.628 23.355,10.048 L18.408,15.092 C18.364,15.145 18.320,15.316 18.334,15.388 L20.254,22.192 C20.424,22.794 20.255,23.192 20.083,23.420 C19.867,23.706 19.533,23.870 19.168,23.870 ZM11.900,17.229 C12.334,17.229 12.754,17.355 13.082,17.581 L17.804,20.816 L16.424,15.927 C16.211,15.188 16.451,14.248 16.994,13.696 L21.005,9.608 L15.787,9.121 C15.011,9.047 14.227,8.476 13.920,7.761 L11.900,3.098 L9.880,7.764 C9.571,8.478 8.787,9.047 8.016,9.120 L2.799,9.609 L6.809,13.697 C7.351,14.248 7.590,15.188 7.377,15.931 L5.998,20.816 L10.720,17.580 C11.046,17.355 11.466,17.229 11.900,17.229 Z" class="cls-1"/>
</svg>
