<svg xmlns="http://www.w3.org/2000/svg" xmlns:xlink="http://www.w3.org/1999/xlink" preserveAspectRatio="xMidYMid" width="24" height="24" viewBox="0 0 24 24">
  <defs>
    <style>
      .cls-1 {
        fill: #1b1b1b;
        fill-rule: evenodd;
      }
    </style>
  </defs>
  <path d="M23.000,13.000 L20.939,13.000 C20.476,17.164 17.164,20.478 13.000,20.941 L13.000,23.000 C13.000,23.553 12.553,24.000 12.000,24.000 C11.447,24.000 11.000,23.553 11.000,23.000 L11.000,20.941 C6.836,20.478 3.524,17.164 3.061,13.000 L1.000,13.000 C0.447,13.000 0.000,12.553 0.000,12.000 C0.000,11.447 0.447,11.000 1.000,11.000 L3.061,11.000 C3.524,6.836 6.836,3.521 11.000,3.058 L11.000,1.000 C11.000,0.447 11.447,0.000 12.000,0.000 C12.553,0.000 13.000,0.447 13.000,1.000 L13.000,3.058 C17.164,3.521 20.476,6.836 20.939,11.000 L23.000,11.000 C23.553,11.000 24.000,11.447 24.000,12.000 C24.000,12.553 23.553,13.000 23.000,13.000 ZM13.000,18.899 C16.055,18.456 18.464,16.050 18.907,13.000 L16.890,13.000 C16.490,14.954 14.955,16.500 13.000,16.898 L13.000,18.899 ZM13.000,11.000 L14.815,11.000 C14.512,10.157 13.846,9.486 13.000,9.184 L13.000,11.000 ZM14.815,13.000 L13.000,13.000 L13.000,14.815 C13.846,14.513 14.511,13.842 14.815,13.000 ZM11.000,13.000 L9.185,13.000 C9.489,13.842 10.154,14.513 11.000,14.815 L11.000,13.000 ZM11.000,18.899 L11.000,16.898 C9.045,16.500 7.510,14.954 7.110,13.000 L5.093,13.000 C5.536,16.050 7.945,18.456 11.000,18.899 ZM11.000,5.100 C7.945,5.543 5.536,7.949 5.093,11.000 L7.110,11.000 C7.510,9.046 9.045,7.500 11.000,7.101 L11.000,5.100 ZM9.185,11.000 L11.000,11.000 L11.000,9.184 C10.154,9.486 9.488,10.157 9.185,11.000 ZM13.000,5.100 L13.000,7.101 C14.955,7.500 16.490,9.046 16.890,11.000 L18.907,11.000 C18.464,7.949 16.055,5.543 13.000,5.100 Z" class="cls-1"/>
</svg>
