<svg xmlns="http://www.w3.org/2000/svg" xmlns:xlink="http://www.w3.org/1999/xlink" preserveAspectRatio="xMidYMid" width="90" height="90" viewBox="0 0 60 60">
  <defs>
    <style>
      .cls-1 {
        fill: #1b1b1b;
        fill-rule: evenodd;
      }
    </style>
  </defs>
  <path d="M30.000,60.000 C13.458,60.000 0.000,46.542 0.000,30.000 C0.000,13.458 13.458,0.000 30.000,0.000 C46.542,0.000 60.000,13.458 60.000,30.000 C60.000,46.542 46.542,60.000 30.000,60.000 ZM2.000,30.000 C2.000,45.440 14.561,58.000 30.000,58.000 C37.361,58.000 44.046,55.123 49.049,50.463 L9.537,10.951 C4.877,15.954 2.000,22.640 2.000,30.000 ZM30.000,2.000 C22.640,2.000 15.954,4.877 10.951,9.537 L50.463,49.049 C55.124,44.046 58.000,37.360 58.000,30.000 C58.000,14.561 45.439,2.000 30.000,2.000 Z" class="cls-1"/>
</svg>
