<svg xmlns="http://www.w3.org/2000/svg" xmlns:xlink="http://www.w3.org/1999/xlink" preserveAspectRatio="xMidYMid" width="90" height="78" viewBox="0 0 60 52">
  <defs>
    <style>
      .cls-1 {
        fill: #1b1b1b;
        fill-rule: evenodd;
      }
    </style>
  </defs>
  <path d="M30.000,43.971 C27.956,43.971 24.209,44.000 24.209,44.000 L23.602,44.000 C19.761,51.449 11.414,51.980 11.051,51.999 C11.034,52.000 11.017,52.000 11.000,52.000 C10.634,52.000 10.296,51.800 10.121,51.476 C9.938,51.137 9.965,50.722 10.192,50.410 C10.229,50.359 13.746,45.452 13.978,39.596 C4.838,34.936 -0.000,28.858 -0.000,21.984 C-0.000,9.862 13.458,-0.000 30.000,-0.000 C46.542,-0.000 60.000,9.862 60.000,21.984 C60.000,34.107 46.542,43.971 30.000,43.971 ZM30.000,2.000 C14.560,2.000 2.000,10.965 2.000,21.984 C2.000,29.826 9.310,35.078 15.442,38.104 C15.486,38.125 15.514,38.162 15.553,38.189 C15.615,38.231 15.678,38.269 15.728,38.324 C15.772,38.371 15.799,38.425 15.832,38.478 C15.867,38.534 15.905,38.585 15.929,38.647 C15.954,38.715 15.960,38.785 15.971,38.857 C15.978,38.906 16.000,38.949 16.000,39.000 C16.000,39.017 15.998,39.034 15.998,39.051 C15.997,39.056 15.997,39.060 15.997,39.065 C15.980,43.522 14.238,47.449 13.003,49.672 C15.576,49.062 19.899,47.351 22.091,42.582 C22.113,42.535 22.152,42.503 22.179,42.461 C22.221,42.398 22.257,42.333 22.311,42.281 C22.361,42.233 22.422,42.203 22.480,42.167 C22.530,42.135 22.575,42.097 22.632,42.074 C22.709,42.044 22.791,42.036 22.874,42.025 C22.917,42.020 22.955,42.000 23.000,42.000 L23.030,42.000 C23.030,42.000 23.031,42.000 23.032,42.000 L24.201,42.000 C24.193,42.000 27.950,41.971 30.000,41.971 C45.440,41.971 58.000,33.005 58.000,21.984 C58.000,10.965 45.440,2.000 30.000,2.000 Z" class="cls-1"/>
</svg>
