<svg xmlns="http://www.w3.org/2000/svg" xmlns:xlink="http://www.w3.org/1999/xlink" preserveAspectRatio="xMidYMid" width="90" height="90" viewBox="0 0 60 60">
  <defs>
    <style>
      .cls-1 {
        fill: #1b1b1b;
        fill-rule: evenodd;
      }
    </style>
  </defs>
  <path d="M30.000,60.000 C13.458,60.000 -0.000,46.542 -0.000,30.000 C-0.000,13.458 13.458,0.000 30.000,0.000 C46.542,0.000 60.000,13.458 60.000,30.000 C60.000,46.542 46.542,60.000 30.000,60.000 ZM30.000,2.000 C14.560,2.000 2.000,14.561 2.000,30.000 C2.000,45.440 14.560,58.000 30.000,58.000 C45.440,58.000 58.000,45.440 58.000,30.000 C58.000,14.561 45.440,2.000 30.000,2.000 ZM40.707,40.707 C40.512,40.902 40.256,41.000 40.000,41.000 C39.744,41.000 39.488,40.902 39.293,40.707 L30.000,31.414 L20.707,40.707 C20.512,40.902 20.256,41.000 20.000,41.000 C19.744,41.000 19.488,40.902 19.293,40.707 C18.902,40.316 18.902,39.684 19.293,39.293 L28.586,30.000 L19.293,20.707 C18.902,20.316 18.902,19.684 19.293,19.293 C19.684,18.902 20.316,18.902 20.707,19.293 L30.000,28.586 L39.293,19.293 C39.684,18.902 40.316,18.902 40.707,19.293 C41.098,19.684 41.098,20.316 40.707,20.707 L31.414,30.000 L40.707,39.293 C41.098,39.684 41.098,40.316 40.707,40.707 Z" class="cls-1"/>
</svg>
