<svg xmlns="http://www.w3.org/2000/svg" xmlns:xlink="http://www.w3.org/1999/xlink" preserveAspectRatio="xMidYMid" width="90" height="60" viewBox="0 0 60 40">
  <defs>
    <style>
      .cls-1 {
        fill: #1b1b1b;
        fill-rule: evenodd;
      }
    </style>
  </defs>
  <path d="M55.134,40.000 L4.866,40.000 C2.183,40.000 -0.000,37.848 -0.000,35.201 L-0.000,4.800 C-0.000,2.153 2.183,-0.000 4.866,-0.000 L55.134,-0.000 C57.817,-0.000 60.000,2.153 60.000,4.800 L60.000,35.201 C60.000,37.848 57.817,40.000 55.134,40.000 ZM2.000,35.201 C2.000,36.744 3.286,38.000 4.866,38.000 L55.134,38.000 C56.714,38.000 58.000,36.744 58.000,35.201 L58.000,4.800 C58.000,4.588 57.971,4.384 57.926,4.186 L30.621,25.784 C30.439,25.928 30.219,26.000 30.000,26.000 C29.781,26.000 29.562,25.928 29.379,25.784 L2.074,4.186 C2.029,4.384 2.000,4.588 2.000,4.800 L2.000,35.201 ZM55.134,2.000 L4.866,2.000 C4.245,2.000 3.673,2.199 3.203,2.529 L30.000,23.725 L56.797,2.529 C56.327,2.199 55.755,2.000 55.134,2.000 Z" class="cls-1"/>
</svg>
