<svg xmlns="http://www.w3.org/2000/svg" xmlns:xlink="http://www.w3.org/1999/xlink" preserveAspectRatio="xMidYMid" width="89.859" height="90" viewBox="0 0 59.906 60">
  <defs>
    <style>
      .cls-1 {
        fill: #1b1b1b;
        fill-rule: evenodd;
      }
    </style>
  </defs>
  <path d="M59.610,59.707 C59.415,59.902 59.159,60.000 58.904,60.000 C58.648,60.000 58.393,59.902 58.198,59.707 L36.748,38.222 C32.841,41.798 27.660,44.000 21.962,44.000 C9.850,44.000 -0.003,34.131 -0.003,22.000 C-0.003,9.869 9.850,-0.000 21.962,-0.000 C34.074,-0.000 43.928,9.869 43.928,22.000 C43.928,27.706 41.729,32.894 38.160,36.807 L59.610,58.293 C60.000,58.684 60.000,59.316 59.610,59.707 ZM21.962,2.000 C10.952,2.000 1.994,10.972 1.994,22.000 C1.994,33.028 10.952,42.000 21.962,42.000 C32.973,42.000 41.931,33.028 41.931,22.000 C41.931,10.972 32.973,2.000 21.962,2.000 Z" class="cls-1"/>
</svg>
