<svg xmlns="http://www.w3.org/2000/svg" xmlns:xlink="http://www.w3.org/1999/xlink" preserveAspectRatio="xMidYMid" width="89.25" height="81" viewBox="0 0 59.5 54">
  <defs>
    <style>
      .cls-1 {
        fill: #1b1b1b;
        fill-rule: evenodd;
      }
    </style>
  </defs>
  <path d="M10.131,53.999 C7.416,54.000 4.917,52.974 3.032,51.074 C0.912,48.938 -0.141,46.396 -0.013,43.724 C0.124,40.889 1.542,38.092 4.202,35.411 L35.161,4.208 C37.853,1.495 41.432,0.000 45.239,0.000 C49.046,0.000 52.625,1.495 55.317,4.208 C60.874,9.810 60.874,18.923 55.317,24.524 L28.321,51.733 C27.934,52.123 27.306,52.123 26.918,51.733 C26.531,51.342 26.531,50.709 26.918,50.318 L53.914,23.110 C56.231,20.775 57.507,17.670 57.507,14.366 C57.507,11.063 56.231,7.958 53.914,5.622 C49.131,0.801 41.347,0.801 36.564,5.622 L5.605,36.826 C3.337,39.112 2.080,41.531 1.970,43.821 C1.869,45.914 2.722,47.933 4.436,49.660 C6.067,51.304 8.279,52.135 10.680,51.982 C13.163,51.829 15.628,50.641 17.619,48.634 L42.498,23.542 C44.219,21.807 44.219,18.986 42.499,17.251 C40.778,15.518 37.979,15.519 36.260,17.251 L15.557,38.117 C15.169,38.508 14.541,38.508 14.154,38.117 C13.766,37.726 13.766,37.093 14.154,36.702 L34.857,15.837 C37.350,13.325 41.407,13.325 43.902,15.837 C46.396,18.351 46.396,22.442 43.902,24.956 L19.023,50.049 C16.688,52.401 13.768,53.797 10.801,53.978 C10.576,53.992 10.353,53.999 10.131,53.999 Z" class="cls-1"/>
</svg>
