<svg xmlns="http://www.w3.org/2000/svg" xmlns:xlink="http://www.w3.org/1999/xlink" preserveAspectRatio="xMidYMid" width="90" height="72" viewBox="0 0 60 48">
  <defs>
    <style>
      .cls-1 {
        fill: #1b1b1b;
        fill-rule: evenodd;
      }
    </style>
  </defs>
  <path d="M55.134,48.000 L4.866,48.000 C2.183,48.000 -0.000,45.846 -0.000,43.199 L-0.000,12.799 C-0.000,10.153 2.183,8.000 4.866,8.000 L14.382,8.000 L18.105,0.553 C18.275,0.214 18.621,0.000 19.000,0.000 L41.000,0.000 C41.379,0.000 41.725,0.214 41.895,0.553 L45.618,8.000 L55.134,8.000 C57.817,8.000 60.000,10.153 60.000,12.799 L60.000,43.199 C60.000,45.846 57.817,48.000 55.134,48.000 ZM58.000,12.799 C58.000,11.255 56.714,10.000 55.134,10.000 L45.000,10.000 C44.999,10.000 44.999,10.000 44.998,10.000 C44.879,9.999 44.765,9.971 44.655,9.930 C44.625,9.919 44.597,9.907 44.569,9.893 C44.482,9.851 44.401,9.798 44.329,9.731 C44.315,9.718 44.299,9.710 44.286,9.696 C44.215,9.624 44.153,9.542 44.106,9.447 L40.382,2.000 L19.618,2.000 L15.894,9.447 C15.872,9.493 15.833,9.522 15.804,9.563 C15.763,9.621 15.727,9.681 15.675,9.729 C15.626,9.774 15.569,9.804 15.512,9.839 C15.459,9.871 15.411,9.907 15.353,9.929 C15.282,9.956 15.207,9.963 15.132,9.973 C15.087,9.980 15.047,10.000 15.000,10.000 L4.866,10.000 C3.286,10.000 2.000,11.255 2.000,12.799 L2.000,43.199 C2.000,44.744 3.286,46.000 4.866,46.000 L55.134,46.000 C56.714,46.000 58.000,44.744 58.000,43.199 L58.000,12.799 ZM30.000,38.934 C22.831,38.934 17.000,33.102 17.000,25.934 C17.000,18.765 22.831,12.934 30.000,12.934 C37.168,12.934 43.000,18.765 43.000,25.934 C43.000,33.102 37.168,38.934 30.000,38.934 ZM30.000,14.934 C23.935,14.934 19.000,19.868 19.000,25.934 C19.000,31.999 23.935,36.934 30.000,36.934 C36.065,36.934 41.000,31.999 41.000,25.934 C41.000,19.868 36.065,14.934 30.000,14.934 Z" class="cls-1"/>
</svg>
