<svg xmlns="http://www.w3.org/2000/svg" xmlns:xlink="http://www.w3.org/1999/xlink" preserveAspectRatio="xMidYMid" width="90" height="90" viewBox="0 0 60 60">
  <defs>
    <style>
      .cls-1 {
        fill: #1b1b1b;
        fill-rule: evenodd;
      }
    </style>
  </defs>
  <path d="M59.150,34.675 L52.091,35.764 C51.572,37.769 50.776,39.691 49.721,41.495 L54.028,47.141 C54.330,47.538 54.294,48.098 53.942,48.452 L48.610,53.819 C48.263,54.171 47.709,54.215 47.309,53.920 L41.550,49.685 C39.743,50.745 37.814,51.548 35.797,52.076 L34.863,59.105 C34.798,59.600 34.376,59.971 33.876,59.973 L26.321,60.000 C26.320,60.000 26.319,60.000 26.318,60.000 C25.824,60.000 25.404,59.640 25.329,59.151 L24.250,52.100 C22.251,51.583 20.333,50.795 18.532,49.750 L12.861,54.029 C12.462,54.330 11.907,54.292 11.554,53.941 L6.182,48.612 C5.831,48.264 5.787,47.712 6.079,47.313 L10.282,41.558 C9.200,39.722 8.390,37.767 7.865,35.727 L0.906,34.862 C0.407,34.801 0.031,34.377 0.029,33.874 L0.002,26.320 C-0.000,25.824 0.362,25.401 0.853,25.327 L7.897,24.266 C8.436,22.218 9.255,20.266 10.340,18.444 L5.982,12.867 C5.672,12.471 5.706,11.904 6.061,11.547 L11.394,6.180 C11.748,5.824 12.309,5.785 12.709,6.089 L18.408,10.424 C20.230,9.352 22.176,8.545 24.211,8.016 L25.129,0.893 C25.193,0.395 25.616,0.022 26.117,0.021 L33.684,0.000 C33.684,0.000 33.686,0.000 33.687,0.000 C34.184,0.000 34.605,0.364 34.677,0.856 L35.715,8.005 C37.702,8.518 39.611,9.301 41.407,10.339 L47.140,5.970 C47.537,5.668 48.095,5.704 48.451,6.057 L53.819,11.391 C54.173,11.742 54.213,12.302 53.913,12.701 L49.611,18.416 C50.696,20.231 51.516,22.177 52.055,24.216 L59.104,25.140 C59.601,25.204 59.972,25.627 59.974,26.128 L59.998,33.684 C60.000,34.178 59.640,34.600 59.150,34.675 ZM57.977,27.009 L51.120,26.110 C50.707,26.057 50.370,25.751 50.276,25.345 C49.744,23.055 48.830,20.887 47.558,18.899 C47.334,18.548 47.351,18.093 47.602,17.759 L51.791,12.194 L47.659,8.089 L42.080,12.340 C41.750,12.591 41.299,12.611 40.949,12.394 C38.972,11.173 36.838,10.298 34.602,9.793 C34.199,9.701 33.893,9.371 33.834,8.961 L32.822,2.002 L27.000,2.019 L26.107,8.952 C26.054,9.368 25.746,9.706 25.337,9.799 C23.049,10.319 20.876,11.222 18.878,12.479 C18.527,12.702 18.073,12.682 17.740,12.429 L12.195,8.211 L8.101,12.331 L12.344,17.761 C12.605,18.096 12.627,18.558 12.399,18.915 C11.127,20.907 10.213,23.082 9.682,25.379 C9.589,25.779 9.262,26.082 8.856,26.144 L2.005,27.177 L2.026,32.986 L8.799,33.828 C9.218,33.880 9.559,34.190 9.651,34.603 C10.162,36.886 11.063,39.063 12.330,41.074 C12.548,41.421 12.533,41.866 12.291,42.197 L8.201,47.798 L12.347,51.911 L17.866,47.747 C18.044,47.612 18.256,47.545 18.469,47.545 C18.651,47.545 18.834,47.595 18.996,47.695 C20.973,48.923 23.113,49.803 25.357,50.310 C25.759,50.400 26.063,50.728 26.125,51.134 L27.176,57.997 L32.996,57.976 L33.904,51.137 C33.959,50.724 34.264,50.388 34.672,50.294 C36.937,49.773 39.090,48.879 41.072,47.636 C41.417,47.418 41.864,47.434 42.196,47.677 L47.800,51.798 L51.910,47.660 L47.719,42.167 C47.466,41.836 47.445,41.383 47.666,41.030 C48.905,39.051 49.792,36.906 50.302,34.655 C50.393,34.255 50.720,33.951 51.126,33.889 L57.995,32.829 L57.977,27.009 ZM29.877,41.965 C23.260,41.965 17.877,36.582 17.877,29.965 C17.877,23.348 23.260,17.965 29.877,17.965 C36.493,17.965 41.875,23.348 41.875,29.965 C41.875,36.582 36.493,41.965 29.877,41.965 ZM29.877,19.965 C24.363,19.965 19.877,24.451 19.877,29.965 C19.877,35.479 24.363,39.965 29.877,39.965 C35.390,39.965 39.875,35.479 39.875,29.965 C39.875,24.451 35.390,19.965 29.877,19.965 Z" class="cls-1"/>
</svg>
