<svg xmlns="http://www.w3.org/2000/svg" xmlns:xlink="http://www.w3.org/1999/xlink" preserveAspectRatio="xMidYMid" width="75" height="90.093" viewBox="0 0 50 60.062">
  <defs>
    <style>
      .cls-1 {
        fill: #1b1b1b;
        fill-rule: evenodd;
      }
    </style>
  </defs>
  <path d="M47.000,60.060 L3.000,60.060 C1.346,60.060 -0.000,58.712 -0.000,57.056 L-0.000,23.014 C-0.000,21.357 1.346,20.062 3.000,20.062 L10.883,20.062 C9.544,16.317 9.728,12.272 11.408,8.663 C13.102,5.026 16.108,2.268 19.873,0.896 C27.644,-1.938 36.271,2.090 39.100,9.871 L39.957,12.712 C40.117,13.242 39.817,13.800 39.289,13.959 C38.759,14.120 38.202,13.820 38.043,13.291 L37.203,10.503 C34.769,3.812 27.293,0.323 20.557,2.777 C17.294,3.966 14.688,6.357 13.222,9.508 C11.754,12.660 11.600,16.194 12.787,19.460 L13.006,20.062 L47.000,20.062 C48.654,20.062 50.000,21.357 50.000,23.014 L50.000,57.056 C50.000,58.712 48.654,60.060 47.000,60.060 ZM48.000,23.014 C48.000,22.461 47.552,22.013 47.000,22.013 L3.000,22.013 C2.448,22.013 2.000,22.461 2.000,23.014 L2.000,57.056 C2.000,57.608 2.448,58.057 3.000,58.057 L47.000,58.057 C47.552,58.057 48.000,57.608 48.000,57.056 L48.000,23.014 ZM26.000,39.892 L26.000,47.043 C26.000,47.597 25.553,48.045 25.000,48.045 C24.447,48.045 24.000,47.597 24.000,47.043 L24.000,39.892 C22.279,39.445 21.000,37.891 21.000,36.029 C21.000,33.820 22.794,32.024 25.000,32.024 C27.206,32.024 29.000,33.820 29.000,36.029 C29.000,37.890 27.721,39.445 26.000,39.892 ZM25.000,34.027 C23.897,34.027 23.000,34.925 23.000,36.029 C23.000,37.133 23.897,38.032 25.000,38.032 C26.102,38.032 27.000,37.133 27.000,36.029 C27.000,34.925 26.102,34.027 25.000,34.027 Z" class="cls-1"/>
</svg>
