<svg xmlns="http://www.w3.org/2000/svg" xmlns:xlink="http://www.w3.org/1999/xlink" preserveAspectRatio="xMidYMid" width="90" height="75" viewBox="0 0 60 50">
  <defs>
    <style>
      .cls-1 {
        fill: #1b1b1b;
        fill-rule: evenodd;
      }
    </style>
  </defs>
  <path d="M44.541,44.000 L38.000,44.000 C37.447,44.000 37.000,43.552 37.000,43.000 C37.000,42.448 37.447,42.000 38.000,42.000 L44.541,42.000 C52.966,42.000 58.000,34.743 58.000,27.727 C58.000,19.856 51.510,13.453 43.533,13.453 C43.241,13.453 42.949,13.471 42.658,13.503 C42.218,13.555 41.762,13.282 41.606,12.843 C39.304,6.357 33.086,2.000 26.134,2.000 C17.091,2.000 9.734,9.259 9.734,18.181 C9.734,18.938 9.800,19.703 9.935,20.519 C10.015,21.007 9.728,21.481 9.258,21.633 C4.917,23.048 2.000,27.031 2.000,31.544 C2.000,37.310 6.755,42.000 12.601,42.000 L24.000,42.000 C24.552,42.000 25.000,42.448 25.000,43.000 C25.000,43.552 24.552,44.000 24.000,44.000 L12.601,44.000 C5.653,44.000 -0.000,38.412 -0.000,31.544 C-0.000,26.443 3.119,21.912 7.844,20.019 C7.771,19.393 7.734,18.786 7.734,18.181 C7.734,8.156 15.988,0.000 26.134,0.000 C33.672,0.000 40.442,4.574 43.220,11.459 C43.324,11.455 43.429,11.453 43.533,11.453 C52.613,11.453 60.000,18.753 60.000,27.727 C60.000,35.726 54.218,44.000 44.541,44.000 ZM22.293,35.707 C21.902,35.316 21.902,34.684 22.293,34.293 L30.293,26.293 C30.385,26.201 30.495,26.128 30.618,26.077 C30.862,25.976 31.138,25.976 31.382,26.077 C31.505,26.128 31.616,26.201 31.708,26.294 L39.707,34.293 C40.098,34.684 40.098,35.316 39.707,35.707 C39.512,35.902 39.256,36.000 39.000,36.000 C38.744,36.000 38.488,35.902 38.293,35.707 L32.000,29.414 L32.000,49.000 C32.000,49.552 31.553,50.000 31.000,50.000 C30.448,50.000 30.000,49.552 30.000,49.000 L30.000,29.414 L23.707,35.707 C23.316,36.098 22.684,36.098 22.293,35.707 Z" class="cls-1"/>
</svg>
