<svg xmlns="http://www.w3.org/2000/svg" xmlns:xlink="http://www.w3.org/1999/xlink" preserveAspectRatio="xMidYMid" width="71.484" height="72" viewBox="0 0 47.656 48">
  <defs>
    <style>
      .cls-1 {
        fill: #1b1b1b;
        fill-rule: evenodd;
      }
    </style>
  </defs>
  <path d="M40.666,40.970 C36.161,45.503 30.172,48.000 23.802,48.000 C17.431,48.000 11.442,45.503 6.938,40.970 C-2.359,31.613 -2.359,16.387 6.938,7.029 C11.442,2.496 17.431,-0.000 23.802,-0.000 C30.172,-0.000 36.161,2.496 40.666,7.029 C45.172,11.562 47.653,17.590 47.653,24.000 C47.653,30.411 45.172,36.437 40.666,40.970 ZM39.261,8.443 C35.131,4.288 29.641,2.000 23.802,2.000 C17.962,2.000 12.472,4.288 8.343,8.443 C-0.179,17.021 -0.179,30.979 8.343,39.556 C12.472,43.711 17.962,46.000 23.802,46.000 C29.641,46.000 35.131,43.711 39.261,39.556 C43.391,35.401 45.666,29.876 45.666,24.000 C45.666,18.124 43.391,12.599 39.261,8.443 ZM34.734,25.000 L24.797,25.000 L24.797,35.000 C24.797,35.552 24.352,36.000 23.803,36.000 C23.254,36.000 22.809,35.552 22.809,35.000 L22.809,25.000 L12.872,25.000 C12.323,25.000 11.878,24.552 11.878,24.000 C11.878,23.448 12.323,23.000 12.872,23.000 L22.809,23.000 L22.809,13.000 C22.809,12.448 23.254,12.000 23.803,12.000 C24.352,12.000 24.797,12.448 24.797,13.000 L24.797,23.000 L34.734,23.000 C35.283,23.000 35.728,23.448 35.728,24.000 C35.728,24.552 35.283,25.000 34.734,25.000 Z" class="cls-1"/>
</svg>
