<svg xmlns="http://www.w3.org/2000/svg" xmlns:xlink="http://www.w3.org/1999/xlink" preserveAspectRatio="xMidYMid" width="36.609" height="36.609" viewBox="0 0 24.406 24.406">
  <defs>
    <style>
      .cls-1 {
        fill: #1b1b1b;
        fill-rule: evenodd;
      }
    </style>
  </defs>
  <path d="M22.792,9.392 L20.581,11.602 C19.539,12.643 18.155,13.217 16.683,13.217 L16.261,13.217 C15.699,13.217 15.243,12.761 15.243,12.199 C15.243,11.636 15.699,11.181 16.261,11.181 L16.683,11.181 C17.612,11.181 18.485,10.819 19.143,10.163 L21.353,7.952 C22.010,7.294 22.372,6.420 22.372,5.491 C22.372,4.562 22.010,3.688 21.353,3.031 C19.997,1.675 17.790,1.675 16.433,3.031 L14.223,5.242 C13.566,5.900 13.204,6.775 13.204,7.704 L13.204,8.119 C13.204,8.682 12.748,9.137 12.186,9.137 C11.624,9.137 11.168,8.682 11.168,8.119 L11.168,7.704 C11.168,6.231 11.742,4.847 12.784,3.804 L14.994,1.592 C17.144,-0.558 20.643,-0.558 22.792,1.592 C23.834,2.633 24.408,4.017 24.408,5.491 C24.408,6.964 23.834,8.349 22.792,9.392 ZM8.118,17.281 C7.858,17.281 7.598,17.181 7.399,16.983 C7.001,16.585 7.001,15.941 7.399,15.543 L15.541,7.399 C15.939,7.002 16.583,7.002 16.981,7.399 C17.378,7.797 17.378,8.441 16.981,8.839 L8.838,16.983 C8.639,17.181 8.379,17.281 8.118,17.281 ZM8.124,13.205 L7.703,13.205 C6.774,13.205 5.899,13.567 5.242,14.223 L3.032,16.434 C1.677,17.791 1.676,19.999 3.032,21.355 C4.389,22.712 6.596,22.710 7.952,21.355 L10.163,19.144 C10.820,18.487 11.181,17.612 11.181,16.682 L11.181,16.265 C11.181,15.702 11.637,15.247 12.199,15.247 C12.761,15.247 13.217,15.702 13.217,16.265 L13.217,16.682 C13.217,18.156 12.644,19.540 11.603,20.583 L9.392,22.794 C8.316,23.869 6.904,24.407 5.492,24.407 C4.080,24.407 2.668,23.869 1.593,22.794 C-0.556,20.645 -0.557,17.146 1.593,14.994 L3.803,12.783 C4.845,11.743 6.230,11.169 7.703,11.169 L8.124,11.169 C8.686,11.169 9.142,11.624 9.142,12.187 C9.142,12.750 8.686,13.205 8.124,13.205 Z" class="cls-1"/>
</svg>
