<svg xmlns="http://www.w3.org/2000/svg" xmlns:xlink="http://www.w3.org/1999/xlink" preserveAspectRatio="xMidYMid" width="35.859" height="36" viewBox="0 0 23.906 24">
  <defs>
    <style>
      .cls-1 {
        fill: #1b1b1b;
        fill-rule: evenodd;
      }
    </style>
  </defs>
  <path d="M23.611,23.707 C23.416,23.902 23.161,24.000 22.906,24.000 C22.651,24.000 22.397,23.902 22.202,23.707 L14.549,16.025 C13.015,17.258 11.073,18.000 8.959,18.000 C4.015,18.000 -0.007,13.963 -0.007,9.001 C-0.007,4.038 4.015,-0.000 8.959,-0.000 C13.903,-0.000 17.925,4.038 17.925,9.001 C17.925,11.122 17.186,13.071 15.958,14.611 L23.611,22.293 C24.000,22.684 24.000,23.316 23.611,23.707 ZM8.959,2.000 C5.113,2.000 1.985,5.141 1.985,9.001 C1.985,12.860 5.113,16.000 8.959,16.000 C12.804,16.000 15.933,12.860 15.933,9.001 C15.933,5.141 12.804,2.000 8.959,2.000 Z" class="cls-1"/>
</svg>
