<svg xmlns="http://www.w3.org/2000/svg" xmlns:xlink="http://www.w3.org/1999/xlink" preserveAspectRatio="xMidYMid" width="35.907" height="31.266" viewBox="0 0 23.938 20.844">
  <defs>
    <style>
      .cls-1 {
        fill: #1b1b1b;
        fill-rule: evenodd;
      }
    </style>
  </defs>
  <path d="M11.104,20.858 C10.849,20.858 10.593,20.761 10.399,20.568 C10.009,20.181 10.009,19.555 10.399,19.168 L20.749,8.894 C21.520,8.128 21.945,7.110 21.945,6.027 C21.945,4.943 21.521,3.926 20.749,3.160 C19.155,1.580 16.564,1.580 14.972,3.160 L2.965,15.078 C2.288,15.750 1.963,16.398 1.999,17.003 C2.035,17.592 2.410,18.048 2.630,18.266 C3.445,19.075 4.494,18.854 5.748,17.611 L15.168,8.258 C15.558,7.872 16.189,7.872 16.579,8.258 C16.969,8.645 16.969,9.272 16.579,9.659 L7.158,19.011 C4.725,21.426 2.495,20.933 1.219,19.667 C0.493,18.946 0.063,18.042 0.008,17.121 C-0.064,15.925 0.457,14.767 1.555,13.678 L13.561,1.760 C15.931,-0.594 19.789,-0.594 22.159,1.760 C23.308,2.899 23.941,4.414 23.941,6.027 C23.941,7.639 23.308,9.154 22.159,10.294 L11.809,20.568 C11.614,20.761 11.359,20.858 11.104,20.858 Z" class="cls-1"/>
</svg>
