<svg xmlns="http://www.w3.org/2000/svg" xmlns:xlink="http://www.w3.org/1999/xlink" preserveAspectRatio="xMidYMid" width="30" height="32.907" viewBox="0 0 20 21.938">
  <defs>
    <style>
      .cls-1 {
        fill: #1b1b1b;
        fill-rule: evenodd;
      }
    </style>
  </defs>
  <path d="M16.002,14.956 C15.450,14.956 15.002,14.510 15.002,13.959 C15.002,13.408 15.450,12.962 16.002,12.962 C17.104,12.962 18.001,12.067 18.001,10.968 C18.001,9.869 17.104,8.974 16.002,8.974 C15.450,8.974 15.002,8.528 15.002,7.977 C15.002,7.426 15.450,6.980 16.002,6.980 C18.207,6.980 20.000,8.768 20.000,10.968 C20.000,13.167 18.207,14.956 16.002,14.956 ZM13.413,21.843 C13.279,21.905 13.137,21.935 12.995,21.935 C12.761,21.935 12.529,21.853 12.344,21.694 L5.628,15.953 L1.999,15.953 C0.896,15.953 -0.000,15.058 -0.000,13.959 L-0.000,7.977 C-0.000,6.878 0.896,5.983 1.999,5.983 L5.628,5.983 L12.344,0.241 C12.642,-0.013 13.058,-0.071 13.413,0.092 C13.767,0.255 13.995,0.608 13.995,0.998 L13.995,20.938 C13.995,21.327 13.767,21.681 13.413,21.843 ZM11.995,3.165 L6.648,7.736 C6.402,7.947 6.086,8.001 5.791,7.938 L2.000,7.938 L1.999,13.959 L5.997,13.959 C6.047,13.959 6.089,13.980 6.136,13.987 C6.206,13.996 6.274,14.003 6.341,14.028 C6.410,14.053 6.468,14.093 6.528,14.132 C6.567,14.157 6.612,14.168 6.648,14.199 L11.995,18.770 L11.995,3.165 Z" class="cls-1"/>
</svg>
