<svg xmlns="http://www.w3.org/2000/svg" xmlns:xlink="http://www.w3.org/1999/xlink" preserveAspectRatio="xMidYMid" width="96" height="84" viewBox="0 0 48 42">
  <defs>
    <style>
      .cls-1 {
        fill: #1b1b1b;
        fill-rule: evenodd;
      }
    </style>
  </defs>
  <path d="M24.000,35.977 C22.598,35.977 20.190,35.994 19.566,35.999 C16.286,41.549 9.354,41.983 9.051,41.999 C9.034,42.000 9.017,42.000 9.000,42.000 C8.634,42.000 8.296,41.800 8.121,41.476 C7.938,41.137 7.965,40.722 8.192,40.410 C8.219,40.374 10.737,36.858 10.962,32.641 C3.889,28.916 0.000,23.732 0.000,17.988 C0.000,8.069 10.767,-0.000 24.000,-0.000 C37.233,-0.000 48.000,8.069 48.000,17.988 C48.000,27.907 37.233,35.977 24.000,35.977 ZM24.000,2.000 C11.869,2.000 2.000,9.172 2.000,17.988 C2.000,24.873 8.537,29.192 12.434,31.153 C12.481,31.177 12.513,31.217 12.554,31.247 C12.610,31.287 12.666,31.321 12.712,31.370 C12.758,31.420 12.788,31.477 12.822,31.534 C12.854,31.586 12.890,31.633 12.913,31.691 C12.940,31.762 12.947,31.837 12.957,31.913 C12.964,31.959 12.984,31.999 12.984,32.047 C12.984,32.061 12.983,32.075 12.983,32.089 C12.982,32.093 12.982,32.097 12.982,32.101 C12.969,35.178 11.873,37.921 10.970,39.658 C13.119,39.128 16.433,37.802 18.110,34.535 C18.274,34.216 18.588,34.041 18.921,34.013 C18.954,34.009 18.985,33.993 19.019,33.992 L19.420,34.000 C19.425,34.000 22.383,33.977 24.000,33.977 C36.131,33.977 46.000,26.805 46.000,17.988 C46.000,9.172 36.131,2.000 24.000,2.000 Z" class="cls-1"/>
</svg>
