<svg xmlns="http://www.w3.org/2000/svg" xmlns:xlink="http://www.w3.org/1999/xlink" preserveAspectRatio="xMidYMid" width="96" height="96" viewBox="0 0 48 48">
  <defs>
    <style>
      .cls-1 {
        fill: #1b1b1b;
        fill-rule: evenodd;
      }
    </style>
  </defs>
  <path d="M24.000,48.000 C10.767,48.000 0.000,37.233 0.000,24.000 C0.000,10.767 10.767,0.000 24.000,0.000 C37.233,0.000 48.000,10.767 48.000,24.000 C48.000,37.233 37.233,48.000 24.000,48.000 ZM24.000,2.000 C11.869,2.000 2.000,11.869 2.000,24.000 C2.000,36.131 11.869,46.000 24.000,46.000 C36.131,46.000 46.000,36.131 46.000,24.000 C46.000,11.869 36.131,2.000 24.000,2.000 ZM21.861,32.681 C21.677,32.879 21.421,32.994 21.151,33.000 C21.144,33.000 21.136,33.000 21.129,33.000 C20.866,33.000 20.614,32.897 20.427,32.712 L11.298,23.712 C10.905,23.324 10.900,22.691 11.288,22.298 C11.675,21.905 12.309,21.900 12.702,22.288 L21.098,30.565 L35.268,15.319 C35.644,14.915 36.277,14.892 36.681,15.268 C37.085,15.644 37.108,16.276 36.732,16.681 L21.861,32.681 Z" class="cls-1"/>
</svg>
