<svg xmlns="http://www.w3.org/2000/svg" xmlns:xlink="http://www.w3.org/1999/xlink" preserveAspectRatio="xMidYMid" width="96" height="68" viewBox="0 0 48 34">
  <defs>
    <style>
      .cls-1 {
        fill: #1b1b1b;
        fill-rule: evenodd;
      }
    </style>
  </defs>
  <path d="M24.000,34.000 C7.481,34.000 -0.000,20.959 -0.000,17.000 C-0.000,13.041 7.481,-0.000 24.000,-0.000 C40.519,-0.000 48.000,13.041 48.000,17.000 C48.000,20.959 40.519,34.000 24.000,34.000 ZM24.000,2.000 C8.822,2.000 2.000,13.924 2.000,17.000 C2.000,20.076 8.822,32.000 24.000,32.000 C39.178,32.000 46.000,20.076 46.000,17.000 C46.000,13.924 39.178,2.000 24.000,2.000 ZM24.000,26.000 C19.037,26.000 15.000,21.963 15.000,17.000 C15.000,12.037 19.037,8.000 24.000,8.000 C28.963,8.000 33.000,12.037 33.000,17.000 C33.000,21.963 28.963,26.000 24.000,26.000 ZM24.000,10.000 C20.141,10.000 17.000,13.141 17.000,17.000 C17.000,20.859 20.141,24.000 24.000,24.000 C27.859,24.000 31.000,20.859 31.000,17.000 C31.000,13.141 27.859,10.000 24.000,10.000 Z" class="cls-1"/>
</svg>
