<svg xmlns="http://www.w3.org/2000/svg" xmlns:xlink="http://www.w3.org/1999/xlink" preserveAspectRatio="xMidYMid" width="96" height="96" viewBox="0 0 48 48">
  <defs>
    <style>
      .cls-1 {
        fill: #1b1b1b;
        fill-rule: evenodd;
      }
    </style>
  </defs>
  <path d="M45.467,48.000 L2.533,48.000 C1.137,48.000 -0.000,46.864 -0.000,45.467 L-0.000,42.401 C-0.000,42.036 0.200,41.699 0.521,41.524 L16.040,33.058 C16.317,32.907 16.556,32.730 16.730,32.577 C16.585,32.521 16.406,32.470 16.207,32.442 L6.860,31.126 C6.455,31.069 6.126,30.771 6.028,30.374 C5.932,29.976 6.086,29.560 6.419,29.322 C10.490,26.415 11.829,14.500 12.001,10.154 C12.002,10.133 12.014,10.116 12.017,10.095 C12.019,10.070 12.010,10.047 12.015,10.023 C13.021,4.215 18.063,-0.000 24.000,-0.000 C29.937,-0.000 34.979,4.215 35.985,10.023 C35.990,10.047 35.981,10.070 35.983,10.095 C35.986,10.115 35.998,10.133 35.999,10.154 C36.171,14.500 37.510,26.415 41.581,29.322 C41.914,29.560 42.068,29.976 41.972,30.374 C41.874,30.771 41.545,31.069 41.140,31.126 L31.791,32.442 C31.593,32.470 31.414,32.522 31.268,32.577 C31.442,32.731 31.681,32.907 31.957,33.059 L47.479,41.524 C47.800,41.699 48.000,42.036 48.000,42.401 L48.000,45.467 C48.000,46.864 46.863,48.000 45.467,48.000 ZM46.000,42.995 L30.999,34.814 C30.664,34.631 29.000,33.659 29.000,32.436 C29.000,31.326 30.301,30.635 31.510,30.462 L38.875,29.425 C34.682,24.000 34.052,11.434 34.005,10.321 C33.147,5.497 28.948,2.000 24.000,2.000 C19.052,2.000 14.853,5.497 13.995,10.321 C13.948,11.434 13.318,24.000 9.125,29.425 L16.488,30.462 C17.699,30.635 19.000,31.326 19.000,32.436 C19.000,33.660 17.332,34.631 16.997,34.814 L2.000,42.995 L2.000,45.467 C2.000,45.756 2.244,46.001 2.533,46.001 L45.467,46.001 C45.756,46.001 46.000,45.756 46.000,45.467 L46.000,42.995 Z" class="cls-1"/>
</svg>
