<svg xmlns="http://www.w3.org/2000/svg" xmlns:xlink="http://www.w3.org/1999/xlink" preserveAspectRatio="xMidYMid" width="95.812" height="96" viewBox="0 0 47.906 48">
  <defs>
    <style>
      .cls-1 {
        fill: #1b1b1b;
        fill-rule: evenodd;
      }
    </style>
  </defs>
  <path d="M28.944,38.000 C24.075,38.000 19.643,36.136 16.281,33.102 L9.896,39.500 L16.675,46.293 C17.065,46.684 17.065,47.316 16.675,47.707 C16.480,47.902 16.225,48.000 15.970,48.000 C15.714,48.000 15.459,47.902 15.264,47.707 L8.484,40.914 L1.705,47.707 C1.510,47.902 1.254,48.000 0.999,48.000 C0.744,48.000 0.488,47.902 0.293,47.707 C-0.097,47.316 -0.097,46.684 0.293,46.293 L7.073,39.500 L0.293,32.707 C-0.097,32.316 -0.097,31.684 0.293,31.293 C0.683,30.902 1.315,30.902 1.705,31.293 L8.484,38.086 L14.870,31.688 C11.842,28.320 9.981,23.879 9.981,19.000 C9.981,8.523 18.488,-0.000 28.944,-0.000 C39.401,-0.000 47.907,8.523 47.907,19.000 C47.907,29.477 39.401,38.000 28.944,38.000 ZM28.944,2.000 C19.589,2.000 11.978,9.626 11.978,19.000 C11.978,28.374 19.589,36.000 28.944,36.000 C38.300,36.000 45.911,28.374 45.911,19.000 C45.911,9.626 38.300,2.000 28.944,2.000 Z" class="cls-1"/>
</svg>
