<svg xmlns="http://www.w3.org/2000/svg" xmlns:xlink="http://www.w3.org/1999/xlink" preserveAspectRatio="xMidYMid" width="83.624" height="96" viewBox="0 0 41.812 48">
  <defs>
    <style>
      .cls-1 {
        fill: #1b1b1b;
        fill-rule: evenodd;
      }
    </style>
  </defs>
  <path d="M41.794,22.586 C41.793,22.668 41.767,22.746 41.746,22.825 C41.700,23.004 41.621,23.168 41.493,23.293 C41.492,23.294 41.492,23.295 41.491,23.295 C37.759,26.916 33.880,28.109 30.041,28.109 C26.097,28.109 22.197,26.849 18.543,25.669 C12.167,23.608 6.647,21.838 1.906,26.176 L1.906,47.000 C1.906,47.553 1.538,48.000 0.988,48.000 C0.438,48.000 -0.008,47.553 -0.008,47.000 L-0.008,4.106 C-0.008,3.714 0.222,3.384 0.548,3.220 C6.142,-1.922 12.753,0.200 19.151,2.268 C26.155,4.528 33.396,6.869 40.109,0.358 C40.115,0.353 40.122,0.351 40.128,0.346 C40.283,0.159 40.511,0.043 40.800,0.043 C41.350,0.043 41.796,0.490 41.796,1.043 L41.796,22.578 C41.796,22.581 41.794,22.583 41.794,22.586 ZM18.542,4.171 C12.164,2.112 6.645,0.342 1.906,4.679 L1.906,23.627 C7.195,19.922 13.264,21.863 19.152,23.765 C26.082,26.004 33.250,28.308 39.906,22.036 L39.906,3.174 C36.667,5.719 33.338,6.612 30.040,6.612 C26.096,6.612 22.196,5.352 18.542,4.171 Z" class="cls-1"/>
</svg>
