<svg xmlns="http://www.w3.org/2000/svg" xmlns:xlink="http://www.w3.org/1999/xlink" preserveAspectRatio="xMidYMid" width="95.312" height="96" viewBox="0 0 47.656 48">
  <defs>
    <style>
      .cls-1 {
        fill: #1b1b1b;
        fill-rule: evenodd;
      }
    </style>
  </defs>
  <path d="M40.666,40.970 C36.162,45.503 30.173,48.000 23.803,48.000 C17.432,48.000 11.443,45.503 6.939,40.970 C-2.359,31.612 -2.359,16.386 6.939,7.030 C11.443,2.497 17.432,-0.000 23.803,-0.000 C30.173,-0.000 36.162,2.497 40.666,7.030 C45.172,11.562 47.653,17.588 47.653,24.000 C47.653,30.410 45.172,36.437 40.666,40.970 ZM39.261,8.444 C35.132,4.288 29.642,2.000 23.803,2.000 C17.963,2.000 12.473,4.288 8.344,8.444 C-0.179,17.021 -0.179,30.977 8.344,39.556 C12.473,43.712 17.963,46.000 23.803,46.000 C29.642,46.000 35.132,43.712 39.261,39.556 C43.391,35.401 45.666,29.876 45.666,24.000 C45.666,18.123 43.391,12.598 39.261,8.444 ZM26.785,38.000 L20.823,38.000 C20.274,38.000 19.829,37.552 19.829,37.000 C19.829,36.447 20.274,36.000 20.823,36.000 L22.656,36.000 L22.656,22.000 L20.823,22.000 C20.274,22.000 19.829,21.552 19.829,21.000 C19.829,20.448 20.274,20.000 20.823,20.000 L23.804,20.000 C24.353,20.000 24.798,20.448 24.798,21.000 C24.798,21.108 24.772,21.206 24.738,21.300 C24.717,21.366 24.689,21.425 24.656,21.484 L24.656,36.000 L26.785,36.000 C27.334,36.000 27.779,36.447 27.779,37.000 C27.779,37.552 27.334,38.000 26.785,38.000 ZM23.617,16.000 C21.973,16.000 20.635,14.655 20.635,13.000 C20.635,11.346 21.973,10.000 23.617,10.000 C25.261,10.000 26.598,11.346 26.598,13.000 C26.598,14.655 25.261,16.000 23.617,16.000 ZM23.617,12.000 C23.069,12.000 22.623,12.449 22.623,13.000 C22.623,13.552 23.069,14.000 23.617,14.000 C24.164,14.000 24.610,13.552 24.610,13.000 C24.610,12.449 24.164,12.000 23.617,12.000 Z" class="cls-1"/>
</svg>
