<svg xmlns="http://www.w3.org/2000/svg" xmlns:xlink="http://www.w3.org/1999/xlink" preserveAspectRatio="xMidYMid" width="83.812" height="96" viewBox="0 0 41.906 48">
  <defs>
    <style>
      .cls-1 {
        fill: #1b1b1b;
        fill-rule: evenodd;
      }
    </style>
  </defs>
  <path d="M28.935,26.000 C25.702,26.000 22.748,24.800 20.474,22.832 L8.384,34.989 L13.676,40.293 C14.066,40.684 14.066,41.316 13.676,41.707 C13.481,41.902 13.226,42.000 12.971,42.000 C12.715,42.000 12.460,41.902 12.265,41.707 L6.975,36.405 L2.407,40.999 L7.689,46.293 C8.079,46.684 8.079,47.316 7.689,47.707 C7.494,47.902 7.239,48.000 6.984,48.000 C6.728,48.000 6.473,47.902 6.278,47.707 L0.293,41.708 C0.293,41.708 0.293,41.708 0.293,41.708 C0.293,41.708 0.292,41.708 0.292,41.708 L0.292,41.707 C0.242,41.657 0.217,41.595 0.180,41.539 C0.145,41.484 0.097,41.436 0.073,41.377 C-0.056,41.059 0.002,40.695 0.214,40.411 C0.242,40.373 0.256,40.328 0.291,40.294 L19.066,21.415 C17.136,19.145 15.964,16.209 15.964,13.000 C15.964,5.832 21.783,0.000 28.935,0.000 C36.087,0.000 41.906,5.832 41.906,13.000 C41.906,20.168 36.087,26.000 28.935,26.000 ZM28.935,2.000 C22.883,2.000 17.959,6.935 17.959,13.000 C17.959,19.065 22.883,24.000 28.935,24.000 C34.987,24.000 39.911,19.065 39.911,13.000 C39.911,6.935 34.987,2.000 28.935,2.000 Z" class="cls-1"/>
</svg>
