<svg xmlns="http://www.w3.org/2000/svg" xmlns:xlink="http://www.w3.org/1999/xlink" preserveAspectRatio="xMidYMid" width="96" height="96" viewBox="0 0 48 48">
  <defs>
    <style>
      .cls-1 {
        fill: #1b1b1b;
        fill-rule: evenodd;
      }
    </style>
  </defs>
  <path d="M45.003,17.465 L40.465,22.003 C38.533,23.936 35.964,25.000 33.231,25.000 L31.000,25.000 C30.448,25.000 30.000,24.553 30.000,24.000 C30.000,23.447 30.448,23.000 31.000,23.000 L33.231,23.000 C35.430,23.000 37.497,22.144 39.050,20.589 L43.589,16.051 C45.144,14.496 46.000,12.430 46.000,10.231 C46.000,8.032 45.144,5.966 43.589,4.411 C42.034,2.856 39.967,2.000 37.769,2.000 C35.571,2.000 33.504,2.856 31.949,4.411 L27.411,8.949 C25.856,10.504 25.000,12.571 25.000,14.770 L25.000,17.000 C25.000,17.553 24.552,18.000 24.000,18.000 C23.448,18.000 23.000,17.553 23.000,17.000 L23.000,14.770 C23.000,12.037 24.065,9.468 25.997,7.535 L30.535,2.997 C32.467,1.065 35.036,-0.000 37.769,-0.000 C40.502,-0.000 43.071,1.065 45.003,2.997 C46.935,4.929 48.000,7.498 48.000,10.231 C48.000,12.964 46.935,15.533 45.003,17.465 ZM16.000,33.000 C15.744,33.000 15.488,32.902 15.293,32.707 C14.902,32.316 14.902,31.684 15.293,31.293 L32.293,14.293 C32.684,13.902 33.316,13.902 33.707,14.293 C34.098,14.684 34.098,15.316 33.707,15.707 L16.707,32.707 C16.512,32.902 16.256,33.000 16.000,33.000 ZM17.000,25.000 L14.769,25.000 C12.570,25.000 10.503,25.856 8.950,27.411 L4.411,31.949 C2.856,33.504 2.000,35.571 2.000,37.769 C2.000,39.968 2.856,42.034 4.411,43.589 C5.966,45.144 8.033,46.000 10.231,46.000 C12.429,46.000 14.496,45.144 16.051,43.589 L20.589,39.051 C22.144,37.496 23.000,35.429 23.000,33.230 L23.000,31.000 C23.000,30.447 23.448,30.000 24.000,30.000 C24.552,30.000 25.000,30.447 25.000,31.000 L25.000,33.230 C25.000,35.963 23.935,38.532 22.003,40.465 L17.465,45.003 C15.533,46.935 12.964,48.000 10.231,48.000 C7.498,48.000 4.929,46.935 2.997,45.003 C1.065,43.071 0.000,40.502 0.000,37.769 C0.000,35.037 1.065,32.468 2.997,30.535 L7.535,25.997 C9.467,24.064 12.036,23.000 14.769,23.000 L17.000,23.000 C17.552,23.000 18.000,23.447 18.000,24.000 C18.000,24.553 17.552,25.000 17.000,25.000 Z" class="cls-1"/>
</svg>
