<svg xmlns="http://www.w3.org/2000/svg" xmlns:xlink="http://www.w3.org/1999/xlink" preserveAspectRatio="xMidYMid" width="95.812" height="96" viewBox="0 0 47.906 48">
  <defs>
    <style>
      .cls-1 {
        fill: #1b1b1b;
        fill-rule: evenodd;
      }
    </style>
  </defs>
  <path d="M47.610,47.707 C47.415,47.902 47.159,48.000 46.904,48.000 C46.649,48.000 46.393,47.902 46.198,47.707 L29.920,31.395 C26.740,34.248 22.556,36.000 17.961,36.000 C8.055,36.000 -0.004,27.925 -0.004,18.000 C-0.004,8.075 8.055,0.000 17.961,0.000 C27.868,0.000 35.927,8.075 35.927,18.000 C35.927,22.603 34.179,26.795 31.332,29.981 L47.610,46.293 C48.000,46.684 48.000,47.316 47.610,47.707 ZM17.961,2.000 C9.155,2.000 1.992,9.178 1.992,18.000 C1.992,26.822 9.155,34.000 17.961,34.000 C26.767,34.000 33.931,26.822 33.931,18.000 C33.931,9.178 26.767,2.000 17.961,2.000 Z" class="cls-1"/>
</svg>
