<svg xmlns="http://www.w3.org/2000/svg" xmlns:xlink="http://www.w3.org/1999/xlink" preserveAspectRatio="xMidYMid" width="96" height="96" viewBox="0 0 48 48">
  <defs>
    <style>
      .cls-1 {
        fill: #1b1b1b;
        fill-rule: evenodd;
      }
    </style>
  </defs>
  <path d="M45.467,48.000 L2.533,48.000 C1.137,48.000 -0.000,46.854 -0.000,45.445 L-0.000,42.334 C-0.000,41.969 0.199,41.633 0.519,41.457 L16.297,32.795 C11.059,27.533 11.000,19.627 11.000,19.272 L11.009,10.138 C11.009,10.083 11.014,10.029 11.022,9.975 C12.007,4.044 18.459,0.049 23.907,0.004 C23.937,0.002 23.969,0.000 24.000,0.000 C29.467,0.000 35.987,4.007 36.981,9.973 C36.989,10.026 36.994,10.081 36.994,10.136 L37.000,19.269 C37.000,19.623 36.941,27.529 31.702,32.793 L47.481,41.456 C47.801,41.631 48.000,41.967 48.000,42.332 L48.000,45.445 C48.000,46.854 46.863,48.000 45.467,48.000 ZM46.000,42.926 L29.537,33.885 C29.535,33.885 29.533,33.884 29.532,33.883 L29.517,33.874 C29.462,33.845 29.427,33.797 29.380,33.759 C29.329,33.718 29.270,33.687 29.227,33.634 C29.225,33.632 29.224,33.629 29.222,33.626 C29.157,33.545 29.115,33.451 29.078,33.356 C29.068,33.330 29.047,33.307 29.039,33.281 C29.017,33.204 29.020,33.123 29.016,33.043 C29.014,32.995 28.998,32.948 29.003,32.900 C29.007,32.860 29.029,32.823 29.038,32.783 C29.057,32.696 29.075,32.607 29.118,32.527 C29.120,32.524 29.119,32.520 29.121,32.517 C29.157,32.451 29.213,32.405 29.261,32.351 C29.297,32.310 29.319,32.262 29.362,32.227 C34.943,27.625 35.000,19.354 35.000,19.271 L34.994,10.222 C34.138,5.403 28.598,2.042 24.084,2.001 C24.057,2.003 24.028,2.004 24.000,2.004 C19.471,2.004 13.868,5.376 13.009,10.224 L13.000,19.274 C13.000,19.356 13.075,27.644 18.638,32.228 C18.685,32.267 18.711,32.320 18.749,32.365 C18.793,32.416 18.845,32.457 18.879,32.519 C18.881,32.522 18.880,32.525 18.882,32.529 C18.926,32.610 18.944,32.699 18.963,32.788 C18.972,32.827 18.993,32.863 18.997,32.902 C19.001,32.949 18.986,32.996 18.984,33.043 C18.980,33.124 18.984,33.205 18.961,33.283 C18.954,33.306 18.935,33.327 18.926,33.350 C18.889,33.449 18.845,33.545 18.777,33.628 C18.775,33.631 18.775,33.634 18.773,33.636 C18.758,33.655 18.734,33.662 18.717,33.679 C18.647,33.753 18.577,33.825 18.483,33.877 L2.000,42.926 L2.000,45.445 C2.000,45.746 2.244,46.000 2.533,46.000 L45.467,46.000 C45.761,46.000 46.000,45.751 46.000,45.445 L46.000,42.926 Z" class="cls-1"/>
</svg>
