<svg xmlns="http://www.w3.org/2000/svg" xmlns:xlink="http://www.w3.org/1999/xlink" preserveAspectRatio="xMidYMid" width="96" height="85.75" viewBox="0 0 48 42.875">
  <defs>
    <style>
      .cls-1 {
        fill: #1b1b1b;
        fill-rule: evenodd;
      }
    </style>
  </defs>
  <path d="M8.236,42.872 C6.074,42.873 4.011,42.140 2.505,40.642 C0.867,39.013 0.000,37.075 0.000,35.038 C0.000,32.664 1.189,30.226 3.440,27.988 L28.195,3.367 C32.718,-1.132 40.078,-1.132 44.601,3.367 C46.793,5.547 48.000,8.446 48.000,11.530 C48.000,14.614 46.793,17.513 44.601,19.693 L22.719,41.457 C22.329,41.845 21.695,41.846 21.305,41.455 C20.915,41.065 20.916,40.433 21.307,40.045 L43.189,18.281 C45.002,16.478 46.000,14.080 46.000,11.530 C46.000,8.980 45.002,6.582 43.189,4.779 C39.444,1.055 33.352,1.055 29.607,4.779 L4.852,29.400 C2.986,31.256 2.000,33.205 2.000,35.038 C2.000,36.534 2.663,37.983 3.917,39.230 C6.432,41.730 11.269,41.303 14.271,38.316 L34.061,18.622 C34.688,17.998 35.034,17.169 35.034,16.289 C35.034,15.408 34.688,14.579 34.062,13.956 C32.765,12.666 30.657,12.668 29.362,13.956 L12.638,30.590 C12.246,30.979 11.613,30.979 11.224,30.588 C10.834,30.198 10.835,29.566 11.226,29.178 L27.950,12.543 C30.024,10.482 33.400,10.481 35.474,12.543 C36.480,13.544 37.034,14.873 37.034,16.289 C37.034,17.704 36.480,19.034 35.474,20.034 L15.683,39.728 C13.595,41.806 10.844,42.872 8.236,42.872 Z" class="cls-1"/>
</svg>
