<svg xmlns="http://www.w3.org/2000/svg" xmlns:xlink="http://www.w3.org/1999/xlink" preserveAspectRatio="xMidYMid" width="72" height="96" viewBox="0 0 36 48">
  <defs>
    <style>
      .cls-1 {
        fill: #1b1b1b;
        fill-rule: evenodd;
      }
    </style>
  </defs>
  <path d="M18.645,47.764 C18.459,47.921 18.230,48.000 18.000,48.000 C17.771,48.000 17.541,47.921 17.355,47.764 C16.646,47.165 0.000,32.927 0.000,17.818 C0.000,7.993 8.075,0.000 18.000,0.000 C27.925,0.000 36.000,7.993 36.000,17.818 C36.000,32.927 19.354,47.165 18.645,47.764 ZM18.000,2.000 C9.178,2.000 2.000,9.096 2.000,17.818 C2.000,30.389 14.932,42.879 18.000,45.664 C21.066,42.877 34.000,30.377 34.000,17.818 C34.000,9.096 26.822,2.000 18.000,2.000 ZM18.000,27.000 C13.037,27.000 9.000,22.963 9.000,18.000 C9.000,13.037 13.037,9.000 18.000,9.000 C22.963,9.000 27.000,13.037 27.000,18.000 C27.000,22.963 22.963,27.000 18.000,27.000 ZM18.000,11.000 C14.141,11.000 11.000,14.141 11.000,18.000 C11.000,21.859 14.141,25.000 18.000,25.000 C21.859,25.000 25.000,21.859 25.000,18.000 C25.000,14.141 21.859,11.000 18.000,11.000 Z" class="cls-1"/>
</svg>
