<svg xmlns="http://www.w3.org/2000/svg" xmlns:xlink="http://www.w3.org/1999/xlink" preserveAspectRatio="xMidYMid" width="96" height="80" viewBox="0 0 48 40">
  <defs>
    <style>
      .cls-1 {
        fill: #1b1b1b;
        fill-rule: evenodd;
      }
    </style>
  </defs>
  <path d="M36.000,36.000 L30.000,36.000 C29.447,36.000 29.000,35.552 29.000,35.000 C29.000,34.447 29.447,34.000 30.000,34.000 L36.000,34.000 C42.565,34.000 46.000,28.283 46.000,22.636 C46.000,16.370 40.946,11.272 34.733,11.272 C34.511,11.272 34.288,11.285 34.066,11.311 C33.597,11.366 33.161,11.088 33.008,10.646 C31.209,5.475 26.356,2.000 20.934,2.000 C13.876,2.000 8.134,7.791 8.134,14.909 C8.134,15.509 8.185,16.119 8.291,16.775 C8.369,17.259 8.085,17.728 7.619,17.883 C4.258,19.001 2.000,22.153 2.000,25.727 C2.000,30.288 5.679,34.000 10.200,34.000 L18.000,34.000 C18.552,34.000 19.000,34.447 19.000,35.000 C19.000,35.552 18.552,36.000 18.000,36.000 L10.200,36.000 C4.576,36.000 0.000,31.391 0.000,25.727 C0.000,21.573 2.462,17.876 6.207,16.281 C6.158,15.814 6.134,15.360 6.134,14.909 C6.134,6.688 12.773,-0.000 20.934,-0.000 C26.953,-0.000 32.363,3.696 34.627,9.273 C41.971,9.178 48.000,15.232 48.000,22.636 C48.000,29.277 43.878,36.000 36.000,36.000 ZM17.293,27.707 C16.902,27.316 16.902,26.683 17.293,26.293 L23.293,20.293 C23.385,20.201 23.495,20.128 23.618,20.077 C23.862,19.976 24.138,19.976 24.382,20.077 C24.505,20.128 24.615,20.201 24.707,20.293 L30.707,26.293 C31.098,26.683 31.098,27.316 30.707,27.707 C30.512,27.902 30.256,28.000 30.000,28.000 C29.744,28.000 29.488,27.902 29.293,27.707 L25.000,23.414 L25.000,39.000 C25.000,39.552 24.552,40.000 24.000,40.000 C23.448,40.000 23.000,39.552 23.000,39.000 L23.000,23.414 L18.707,27.707 C18.316,28.097 17.684,28.097 17.293,27.707 Z" class="cls-1"/>
</svg>
