<svg xmlns="http://www.w3.org/2000/svg" xmlns:xlink="http://www.w3.org/1999/xlink" preserveAspectRatio="xMidYMid" width="96" height="63.876" viewBox="0 0 48 31.938">
  <defs>
    <style>
      .cls-1 {
        fill: #1b1b1b;
        fill-rule: evenodd;
      }
    </style>
  </defs>
  <path d="M47.480,31.816 C47.329,31.898 47.165,31.938 47.000,31.938 C46.812,31.938 46.623,31.885 46.459,31.780 L34.000,23.783 L34.000,29.941 C34.000,31.043 33.102,31.938 32.000,31.938 L2.000,31.938 C0.897,31.938 0.000,31.043 0.000,29.941 L0.000,1.986 C0.000,0.884 0.897,-0.011 2.000,-0.011 L32.000,-0.011 C33.102,-0.011 34.000,0.884 34.000,1.986 L34.000,8.144 L46.459,0.147 C46.767,-0.051 47.157,-0.065 47.480,0.111 C47.800,0.286 48.000,0.622 48.000,0.987 L48.000,30.940 C48.000,31.305 47.800,31.641 47.480,31.816 ZM46.000,2.816 L33.541,10.813 C33.517,10.829 33.489,10.830 33.463,10.843 C33.404,10.875 33.343,10.896 33.277,10.916 C33.211,10.935 33.148,10.950 33.081,10.955 C33.053,10.958 33.029,10.971 33.000,10.971 C32.965,10.971 32.935,10.955 32.900,10.951 C32.830,10.944 32.765,10.932 32.698,10.911 C32.638,10.891 32.583,10.868 32.529,10.838 C32.473,10.807 32.422,10.774 32.372,10.732 C32.318,10.688 32.273,10.640 32.229,10.585 C32.208,10.558 32.178,10.542 32.159,10.513 C32.144,10.489 32.143,10.462 32.130,10.438 C32.097,10.377 32.075,10.315 32.055,10.247 C32.037,10.183 32.022,10.121 32.017,10.056 C32.014,10.027 32.000,10.002 32.000,9.973 L32.000,1.938 L2.000,1.938 L2.000,29.941 L32.000,29.941 L32.000,21.954 C32.000,21.925 32.014,21.900 32.017,21.871 C32.022,21.806 32.037,21.744 32.055,21.680 C32.075,21.612 32.097,21.550 32.130,21.489 C32.143,21.465 32.144,21.438 32.159,21.414 C32.178,21.385 32.208,21.369 32.229,21.342 C32.273,21.287 32.318,21.239 32.372,21.195 C32.422,21.154 32.472,21.120 32.528,21.089 C32.583,21.060 32.638,21.036 32.698,21.016 C32.765,20.995 32.830,20.983 32.900,20.976 C32.934,20.972 32.964,20.956 33.000,20.956 C33.029,20.956 33.053,20.970 33.081,20.972 C33.148,20.977 33.211,20.992 33.276,21.011 C33.342,21.031 33.404,21.052 33.464,21.084 C33.489,21.097 33.517,21.099 33.541,21.114 L46.000,29.111 L46.000,2.816 Z" class="cls-1"/>
</svg>
