<svg xmlns="http://www.w3.org/2000/svg" xmlns:xlink="http://www.w3.org/1999/xlink" preserveAspectRatio="xMidYMid" width="93.812" height="83.876" viewBox="0 0 46.906 41.938">
  <defs>
    <style>
      .cls-1 {
        fill: #1b1b1b;
        fill-rule: evenodd;
      }
    </style>
  </defs>
  <path d="M41.329,20.970 L46.611,26.255 C47.001,26.645 47.001,27.277 46.611,27.667 C46.416,27.862 46.161,27.959 45.906,27.959 C45.650,27.959 45.395,27.862 45.200,27.667 L39.918,22.382 L34.635,27.667 C34.440,27.862 34.185,27.959 33.930,27.959 C33.674,27.959 33.419,27.862 33.224,27.667 C32.834,27.277 32.834,26.645 33.224,26.255 L38.507,20.970 L33.224,15.685 C32.834,15.295 32.834,14.663 33.224,14.273 C33.614,13.883 34.245,13.883 34.635,14.273 L39.918,19.558 L45.200,14.273 C45.590,13.883 46.222,13.883 46.611,14.273 C47.001,14.663 47.001,15.295 46.611,15.685 L41.329,20.970 ZM27.376,41.839 C27.238,41.905 27.091,41.937 26.944,41.937 C26.721,41.937 26.501,41.863 26.320,41.719 L11.623,29.956 L4.056,29.956 C1.818,29.956 -0.003,28.075 -0.003,25.763 L-0.003,16.177 C-0.003,13.865 1.818,11.984 4.056,11.984 L11.623,11.984 L26.320,0.221 C26.620,-0.020 27.031,-0.066 27.376,0.101 C27.722,0.268 27.942,0.617 27.942,1.001 L27.942,40.939 C27.942,41.323 27.722,41.672 27.376,41.839 ZM26.000,2.938 L12.597,13.762 C12.347,13.962 12.034,14.007 11.744,13.938 L4.000,13.938 C2.863,13.938 1.993,14.966 1.993,16.177 L1.993,25.763 C1.993,26.974 2.918,27.959 4.056,27.959 L11.973,27.959 C12.018,27.959 12.057,27.979 12.100,27.985 C12.169,27.993 12.234,28.002 12.300,28.025 C12.367,28.048 12.423,28.083 12.482,28.119 C12.519,28.141 12.562,28.149 12.597,28.178 L26.000,38.938 L26.000,2.938 Z" class="cls-1"/>
</svg>
